<svg height="496pt" viewBox="0 -24 496 496" width="496pt" xmlns="http://www.w3.org/2000/svg"><path d="m136 136v-96c0-17.671875 14.328125-32 32-32h288c17.671875 0 32 14.328125 32 32v208c0 17.671875-14.328125 32-32 32h-320zm0 0" fill="#ff826e"/><path d="m239.550781 242.382812 18.546875-18.542968-33.9375-33.9375-18.542968 18.546875c-13.816407-9.632813-29.242188-16.578125-45.617188-20.519531v-3.929688h24v-40c0-13.230469-10.769531-24-24-24h-24v160h121.921875c-4.128906-13.34375-10.296875-26.046875-18.371094-37.617188zm0 0" fill="#fc6e51"/><path d="m112 160h32v56h-32zm0 0" fill="#e6e9ed"/><path d="m112 160h32v24h-32zm0 0" fill="#ccd1d9"/><path d="m248 320c0 66.273438-53.726562 120-120 120s-120-53.726562-120-120 53.726562-120 120-120 120 53.726562 120 120zm0 0" fill="#fcd770"/><path d="m216 320c0 48.601562-39.398438 88-88 88s-88-39.398438-88-88 39.398438-88 88-88 88 39.398438 88 88zm0 0" fill="#e6e9ed"/><path d="m168 168h-80v-24c0-4.414062 3.585938-8 8-8h64c4.414062 0 8 3.585938 8 8zm0 0" fill="#fcd770"/><path d="m223.855469 235.457031 11.625-11.625-11.3125-11.3125-11.625 11.625c-16.855469-14.886719-37.589844-25.441406-60.542969-29.816406v-18.328125h24v-32c0-8.824219-7.175781-16-16-16h-16v-88c0-13.230469 10.769531-24 24-24h184v-16h-184c-22.054688 0-40 17.945312-40 40v88h-32c-8.824219 0-16 7.175781-16 16v32h24v18.335938c-22.953125 4.375-43.679688 14.929687-60.542969 29.816406l-11.625-11.625-11.3125 11.3125 11.625 11.625c-19.9375 22.566406-32.144531 52.121094-32.144531 84.535156 0 70.574219 57.425781 128 128 128s128-57.425781 128-128c0-11.0625-1.558594-21.753906-4.214844-32h12.214844v-16h-17.425781c-5.476563-13.488281-13.230469-25.792969-22.71875-36.542969zm-127.855469-91.457031h64v16h-64zm24 32h16v16.40625c-2.65625-.167969-5.296875-.40625-8-.40625s-5.34375.238281-8 .40625zm8 256c-61.761719 0-112-50.238281-112-112s50.238281-112 112-112 112 50.238281 112 112-50.238281 112-112 112zm0 0"/><path d="m128 224c-22.40625 0-44.214844 7.894531-61.425781 22.246094l10.25 12.28125c12.273437-10.230469 27.367187-16.488282 43.175781-18.085938v23.558594h16v-23.59375c37.734375 3.769531 67.832031 33.859375 71.59375 71.59375h-23.59375v16h23.558594c-1.597656 15.800781-7.855469 30.894531-18.085938 43.167969l12.289063 10.246093c14.34375-17.207031 22.238281-39.015624 22.238281-61.414062 0-52.9375-43.0625-96-96-96zm0 0"/><path d="m136 399.558594v-23.558594h-16v23.59375c-37.734375-3.761719-67.832031-33.859375-71.59375-71.59375h23.59375v-16h-23.558594c1.597656-15.800781 7.855469-30.894531 18.085938-43.167969l-12.289063-10.257812c-14.34375 17.21875-22.238281 39.027343-22.238281 61.425781 0 52.9375 43.0625 96 96 96 22.40625 0 44.214844-7.894531 61.425781-22.246094l-10.25-12.28125c-12.273437 10.222656-27.367187 16.488282-43.175781 18.085938zm0 0"/><path d="m120 280v48h32v-16h-16v-32zm0 0"/><path d="m256 76c0-15.441406-12.558594-28-28-28s-28 12.558594-28 28v12h16v-12c0-6.617188 5.382812-12 12-12s12 5.382812 12 12c0 5.871094-2.070312 11.585938-5.832031 16.097656l-43.246094 51.902344h65.078125v-16h-30.921875l21.386719-25.65625c6.152344-7.375 9.535156-16.734375 9.535156-26.34375zm0 0"/><path d="m312 144h16v-15.960938l16.015625-.039062-.039063-16-15.976562.03125v-64.03125h-20.640625l-35.359375 61.871094v18.28125l40-.089844zm-22.855469-31.878906 22.855469-39.992188v39.941406zm0 0"/><path d="m376 104h32v40h16v-96h-16v40h-32v-40h-16v96h16zm0 0"/><path d="m280 272h16v16h-16zm0 0"/><path d="m312 272h16v16h-16zm0 0"/><path d="m456 0h-24v16h24c13.230469 0 24 10.769531 24 24v208c0 13.230469-10.769531 24-24 24h-112v16h112c22.054688 0 40-17.945312 40-40v-208c0-22.054688-17.945312-40-40-40zm0 0"/><path d="m400 0h16v16h-16zm0 0"/><path d="m368 0h16v16h-16zm0 0"/><path d="m288 176h176v16h-176zm0 0"/><path d="m288 208h176v16h-176zm0 0"/><path d="m448 240h16v16h-16zm0 0"/><path d="m288 240h144v16h-144zm0 0"/></svg>