<svg height="496pt" viewBox="0 0 496 496" width="496pt" xmlns="http://www.w3.org/2000/svg"><path d="m224 424h-208c-4.414062 0-8-3.585938-8-8v-400c0-4.414062 3.585938-8 8-8h288c4.414062 0 8 3.585938 8 8v408zm0 0" fill="#fcd770"/><path d="m312 144h-304v-32h304zm0 0" fill="#ff826e"/><path d="m128 8v416h-32v-416zm0 0" fill="#ff826e"/><path d="m312 187.222656c-72.945312 14.867188-128 79.503906-128 156.777344 0 29.160156 7.96875 56.433594 21.648438 80h106.351562zm0 0" fill="#ffc729"/><path d="m488 344c0 79.527344-64.472656 144-144 144s-144-64.472656-144-144 64.472656-144 144-144 144 64.472656 144 144zm0 0" fill="#a0d468"/><path d="m456 344c0 61.855469-50.144531 112-112 112s-112-50.144531-112-112 50.144531-112 112-112 112 50.144531 112 112zm0 0" fill="#e6e9ed"/><path d="m344 416-41.160156-68.601562c-4.472656-7.453126-6.839844-16-6.839844-24.695313v-2.703125c0-26.511719 21.488281-48 48-48s48 21.488281 48 48v2.703125c0 8.695313-2.367188 17.234375-6.839844 24.695313zm0 0" fill="#ff826e"/><path d="m360 320c0 8.835938-7.164062 16-16 16s-16-7.164062-16-16 7.164062-16 16-16 16 7.164062 16 16zm0 0" fill="#fcd770"/><path d="m127.71875 89.65625-15.71875 15.71875-15.71875-15.71875c-.089844-.089844-.191406-.144531-.28125-.230469v77.148438c.089844-.085938.191406-.140625.28125-.230469l15.71875-15.71875 15.71875 15.71875c.089844.089844.191406.144531.28125.230469v-77.148438c-.089844.085938-.191406.140625-.28125.230469zm0 0" fill="#fc6e51"/><path d="m56 112h-15.902344c-.007812.328125-.097656.640625-.097656.96875v30.0625c0 .328125.089844.640625.097656.96875h143.804688c.007812-.328125.097656-.640625.097656-.96875v-30.0625c0-.328125-.089844-.640625-.097656-.96875zm0 0" fill="#fc6e51"/><path d="m72.96875 160c-9.367188 0-16.96875-7.601562-16.96875-16.96875v-30.054688c0-9.375 7.601562-16.976562 16.96875-16.976562 4.503906 0 8.816406 1.785156 12 4.96875l27.03125 27.03125-27.03125 27.03125c-3.183594 3.183594-7.496094 4.96875-12 4.96875zm0 0" fill="#ff826e"/><path d="m151.03125 160c9.367188 0 16.96875-7.601562 16.96875-16.96875v-30.054688c0-9.375-7.601562-16.976562-16.96875-16.976562-4.503906 0-8.816406 1.785156-12 4.96875l-27.03125 27.03125 27.03125 27.03125c3.183594 3.183594 7.496094 4.96875 12 4.96875zm0 0" fill="#ff826e"/><path d="m392.015625 351.519531c5.222656-8.703125 7.984375-18.671875 7.984375-28.816406v-2.703125c0-30.878906-25.121094-56-56-56s-56 25.121094-56 56v2.703125c0 10.152344 2.761719 20.113281 7.984375 28.816406l48.015625 80.023438zm-88.015625-28.816406v-2.703125c0-22.054688 17.945312-40 40-40s40 17.945312 40 40v2.703125c0 7.25-1.976562 14.367187-5.695312 20.585937l-34.304688 57.167969-34.304688-57.167969c-3.71875-6.21875-5.695312-13.335937-5.695312-20.585937zm0 0"/><path d="m368 320c0-13.230469-10.769531-24-24-24s-24 10.769531-24 24 10.769531 24 24 24 24-10.769531 24-24zm-32 0c0-4.40625 3.59375-8 8-8s8 3.59375 8 8-3.59375 8-8 8-8-3.59375-8-8zm0 0"/><path d="m344 192c-8.183594 0-16.160156.832031-24 2.089844v-178.089844c0-8.824219-7.175781-16-16-16h-288c-8.824219 0-16 7.175781-16 16v400c0 8.824219 7.175781 16 16 16h204.296875c27.582031 38.664062 72.695313 64 123.703125 64 83.816406 0 152-68.183594 152-152s-68.183594-152-152-152zm-168-72h128v16h-128zm128-16h-129.734375c-3.617187-9.335938-12.632813-16-23.234375-16-5.519531 0-10.710938 1.863281-15.03125 5.152344v-77.152344h168zm-184 4.6875-8 8-8-8v-92.6875h16zm-19.3125 19.3125-21.375 21.375c-1.695312 1.6875-3.945312 2.625-6.34375 2.625-4.945312 0-8.96875-4.023438-8.96875-8.96875v-30.0625c0-4.945312 4.023438-8.96875 8.96875-8.96875 2.398438 0 4.648438.9375 6.34375 2.625zm3.3125 19.3125 8-8 8 8v268.6875h-16zm19.3125-19.3125 21.375-21.375c1.695312-1.6875 3.945312-2.625 6.34375-2.625 4.945312 0 8.96875 4.023438 8.96875 8.96875v30.0625c0 4.945312-4.023438 8.96875-8.96875 8.96875-2.398438 0-4.648438-.9375-6.34375-2.625zm-35.3125-112v77.152344c-4.320312-3.289063-9.511719-5.152344-15.03125-5.152344-10.601562 0-19.617188 6.664062-23.234375 16h-33.734375v-88zm-40 120h-32v-16h32zm-32 16h33.734375c3.617187 9.335938 12.632813 16 23.234375 16 5.519531 0 10.710938-1.863281 15.03125-5.152344v253.152344h-72zm120 264v-253.152344c4.320312 3.289063 9.511719 5.152344 15.03125 5.152344 10.601562 0 19.617188-6.664062 23.234375-16h129.734375v45.519531c-64.441406 17.625-112 76.527344-112 146.480469 0 26.039062 6.601562 50.550781 18.183594 72zm208 64c-74.992188 0-136-61.007812-136-136s61.007812-136 136-136 136 61.007812 136 136-61.007812 136-136 136zm0 0"/><path d="m32 320h40v16h-40zm0 0"/><path d="m32 352h40v16h-40zm0 0"/><path d="m32 384h40v16h-40zm0 0"/><path d="m344 448c-57.34375 0-104-46.65625-104-104 0-24.929688 9.039062-49.089844 25.464844-68.023438l-12.089844-10.488281c-18.941406 21.847657-29.375 49.726563-29.375 78.511719 0 66.167969 53.832031 120 120 120 28.785156 0 56.664062-10.433594 78.511719-29.375l-10.488281-12.089844c-18.933594 16.425782-43.09375 25.464844-68.023438 25.464844zm0 0"/><path d="m344 224c-28.785156 0-56.664062 10.433594-78.511719 29.375l10.488281 12.089844c18.933594-16.425782 43.09375-25.464844 68.023438-25.464844 57.34375 0 104 46.65625 104 104 0 24.929688-9.039062 49.089844-25.464844 68.023438l12.089844 10.488281c18.941406-21.847657 29.375-49.726563 29.375-78.511719 0-66.167969-53.832031-120-120-120zm0 0"/><path d="m272 32h16v16h-16zm0 0"/><path d="m240 32h16v16h-16zm0 0"/><path d="m208 32h16v16h-16zm0 0"/></svg>