<svg height="496pt" viewBox="0 0 496 496" width="496pt" xmlns="http://www.w3.org/2000/svg"><path d="m376 280v192c0 8.839844-7.160156 16-16 16h-336c-8.839844 0-16-7.160156-16-16v-240c0-8.839844 7.160156-16 16-16h330.496094c11.878906 0 21.503906 9.625 21.503906 21.503906zm0 0" fill="#dfb28b"/><path d="m352 296c8.183594 0 16.160156-.832031 24-2.089844v-77.910156h-157.816406c25.703125 47.585938 76.039062 80 133.816406 80zm0 0" fill="#cf9e76"/><path d="m248 232h80v64h-80zm0 0" fill="#e6e9ed"/><path d="m152.96875 384c-9.367188 0-16.96875-7.601562-16.96875-16.96875v-30.054688c0-9.375 7.601562-16.976562 16.96875-16.976562 4.503906 0 8.816406 1.785156 12 4.96875l27.03125 27.03125-27.03125 27.03125c-3.183594 3.183594-7.496094 4.96875-12 4.96875zm0 0" fill="#fcd770"/><path d="m231.03125 384c9.367188 0 16.96875-7.601562 16.96875-16.96875v-30.054688c0-9.375-7.601562-16.976562-16.96875-16.976562-4.503906 0-8.816406 1.785156-12 4.96875l-27.03125 27.03125 27.03125 27.03125c3.183594 3.183594 7.496094 4.96875 12 4.96875zm0 0" fill="#fcd770"/><path d="m236.648438 72.359375c-81.152344 5.167969-147.359376 65.335937-161.746094 143.632813l-32.453125.007812c15.390625-99.679688 101.558593-176 205.550781-176 5.273438 0 10.503906.199219 15.671875.585938zm0 0" fill="#ff826e"/><path d="m376.046875 368.742188c27.304687-28.941407 44.90625-67.140626 47.59375-109.390626l31.757813-27.304687c.402343 5.265625.601562 10.585937.601562 15.953125 0 66.59375-31.296875 125.878906-79.976562 163.945312zm0 0" fill="#ff826e"/><path d="m248 254.679688c21.679688 20.390624 49.320312 34.464843 80 39.351562v-62.03125h-80zm0 0" fill="#ccd1d9"/><path d="m423.640625 259.351562c-.433594 6.746094-1.367187 13.34375-2.535156 19.863282 12.71875-6.527344 24.367187-14.789063 34.703125-24.488282.0625-2.238281.191406-4.46875.191406-6.726562 0-5.367188-.199219-10.6875-.601562-15.953125zm0 0" fill="#fc6e51"/><path d="m216.785156 74.902344c6.519532-1.167969 13.117188-2.109375 19.871094-2.542969l27.023438-31.773437c-5.175782-.386719-10.40625-.585938-15.679688-.585938-2.304688 0-4.542969.238281-6.832031.3125-9.648438 10.304688-17.878907 21.910156-24.382813 34.589844zm0 0" fill="#fc6e51"/><path d="m488 144c0 75.109375-60.890625 136-136 136s-136-60.890625-136-136 60.890625-136 136-136 136 60.890625 136 136zm0 0" fill="#a0d468"/><path d="m45.664062 200c-1.25 5.273438-2.382812 10.585938-3.214843 16l32.453125-.007812c1-5.433594 2.304687-10.753907 3.785156-15.992188zm0 0" fill="#fc6e51"/><path d="m392 348.984375c-4.878906 6.945313-10.144531 13.601563-15.953125 19.757813l-.023437 43.203124c5.570312-4.359374 10.886718-9.023437 15.976562-13.914062zm0 0" fill="#fc6e51"/><path d="m32 240h80v16h-80zm0 0"/><path d="m32 272h80v16h-80zm0 0"/><path d="m64 304h16v16h-16zm0 0"/><path d="m96 304h16v16h-16zm0 0"/><path d="m32 304h16v16h-16zm0 0"/><path d="m496 144c0-79.398438-64.601562-144-144-144-34.472656 0-66.136719 12.199219-90.953125 32.480469-4.34375-.257813-8.710937-.480469-13.046875-.480469-103.296875 0-193.3125 75.191406-212.246094 176h-11.753906c-13.230469 0-24 10.769531-24 24v240c0 13.230469 10.769531 24 24 24h336c13.230469 0 24-10.769531 24-24v-56.273438c50.855469-41.261718 80-102.125 80-167.726562 0-4.335938-.230469-8.695312-.496094-13.03125 20.289063-24.824219 32.496094-56.488281 32.496094-90.96875zm-16 0c0 70.574219-57.425781 128-128 128s-128-57.425781-128-128 57.425781-128 128-128 128 57.425781 128 128zm-248.96875 168c-6.574219 0-13.007812 2.664062-17.65625 7.3125l-13.375 13.375v-108.6875h32.351562c2.390626 3.558594 4.960938 6.984375 7.648438 10.304688v69.695312h96v-16.945312c5.265625.585937 10.585938.945312 16 .945312s10.734375-.359375 16-.945312v56.945312h-112v-7.03125c0-13.769531-11.199219-24.96875-24.96875-24.96875zm-71.71875 61.375c-1.671875 1.671875-3.984375 2.625-6.34375 2.625-4.945312 0-8.96875-4.023438-8.96875-8.96875v-30.0625c0-4.945312 4.023438-8.96875 8.96875-8.96875 2.359375 0 4.671875.953125 6.34375 2.625l21.375 21.375zm44-21.375 21.375-21.375c1.671875-1.671875 3.984375-2.625 6.34375-2.625 4.945312 0 8.96875 4.023438 8.96875 8.96875v30.0625c0 4.945312-4.023438 8.96875-8.96875 8.96875-2.359375 0-4.671875-.953125-6.34375-2.625zm52.6875-100.976562c17.894531 16.074218 39.761719 27.738281 64 33.273437v3.703125h-64zm-171.078125-43.023438c16.101563-66.144531 70.34375-115.761719 137.316406-126.015625-9.03125 18.808594-14.238281 39.792969-14.238281 62.015625 0 23.007812 5.558594 44.6875 15.199219 64zm299.078125 76.289062c10.496094-2.394531 20.519531-5.976562 30.007812-10.527343-4.0625 26.214843-14.464843 51.085937-30.007812 72.589843zm-139.160156-236.144531c-4.703125 5.253907-9.097656 10.785157-13 16.6875-80.105469 6.976563-145.976563 64.871094-163.3125 143.167969h-16.3125c18.539062-90.777344 99.34375-158.351562 192.625-159.855469zm-220.839844 175.855469h160v108.6875l-13.375-13.375c-4.648438-4.648438-11.082031-7.3125-17.65625-7.3125-13.769531 0-24.96875 11.199219-24.96875 24.96875v7.03125h-112v-112c0-4.414062 3.585938-8 8-8zm-8 248v-112h112v7.03125c0 13.769531 11.199219 24.96875 24.96875 24.96875 6.574219 0 13.007812-2.664062 17.65625-7.3125l3.558594-3.558594c-8.449219 18.925782-23.199219 34.4375-41.757813 43.710938l7.160157 14.3125c18.710937-9.351563 34.109374-24.113282 44.421874-42.144532v82.992188h-160.007812c-4.414062 0-8-3.585938-8-8zm344 8h-160v-82.992188c10.3125 18.03125 25.710938 32.792969 44.425781 42.144532l7.160157-14.3125c-18.5625-9.273438-33.3125-24.785156-41.761719-43.710938l3.558593 3.558594c4.640626 4.648438 11.074219 7.3125 17.648438 7.3125 13.769531 0 24.96875-11.199219 24.96875-24.96875v-7.03125h112v112c0 4.414062-3.585938 8-8 8zm24-85.449219v-22.773437c27.070312-29.746094 43.664062-67.664063 47.160156-107.617188 5.929688-3.921875 11.480469-8.328125 16.75-13.054687-.839844 55.070312-23.832031 106.34375-63.910156 143.445312zm0 0"/><path d="m264 80h16v120h-16zm0 0"/><path d="m296 184h16v16h-16zm0 0"/><path d="m296 80h16v88h-16zm0 0"/><path d="m392 184h16v16h-16zm0 0"/><path d="m392 80h16v88h-16zm0 0"/><path d="m328 80h16v120h-16zm0 0"/><path d="m360 80h16v120h-16zm0 0"/><path d="m424 80h16v120h-16zm0 0"/></svg>