<svg height="496pt" viewBox="0 -27 496 495" width="496pt" xmlns="http://www.w3.org/2000/svg"><path d="m352 48.5h40c17.671875 0 32 14.328125 32 32v352h-416v-352c0-17.671875 14.328125-32 32-32zm0 0" fill="#e6e9ed"/><path d="m352 280.5c0 75.109375-60.890625 136-136 136s-136-60.890625-136-136 60.890625-136 136-136 136 60.890625 136 136zm0 0" fill="#ccd1d9"/><path d="m287.785156 184.5h88.214844v192h-320v-192zm0 0" fill="#a0d468"/><path d="m144.214844 184.5h-24.445313c-24.5625 24.617188-39.769531 58.558594-39.769531 96s15.207031 71.382812 39.769531 96h192.453125c24.570313-24.617188 39.777344-58.558594 39.777344-96s-15.207031-71.382812-39.769531-96zm0 0" fill="#8cc152"/><path d="m336 280.5c0 66.273438-53.726562 120-120 120s-120-53.726562-120-120 53.726562-120 120-120 120 53.726562 120 120zm0 0" fill="#fcd770"/><path d="m304 280.5c0 48.601562-39.398438 88-88 88s-88-39.398438-88-88 39.398438-88 88-88 88 39.398438 88 88zm0 0" fill="#e6e9ed"/><path d="m392 48.5h-352c-17.671875 0-32 14.328125-32 32v48h416v-48c0-17.671875-14.328125-32-32-32zm0 0" fill="#ff826e"/><g fill="#fcd770"><path d="m96 88.5c-8.839844 0-16-7.160156-16-16v-48c0-8.839844 7.160156-16 16-16s16 7.160156 16 16v48c0 8.839844-7.160156 16-16 16zm0 0"/><path d="m176 88.5c-8.839844 0-16-7.160156-16-16v-48c0-8.839844 7.160156-16 16-16s16 7.160156 16 16v48c0 8.839844-7.160156 16-16 16zm0 0"/><path d="m256 88.5c-8.839844 0-16-7.160156-16-16v-48c0-8.839844 7.160156-16 16-16s16 7.160156 16 16v48c0 8.839844-7.160156 16-16 16zm0 0"/><path d="m336 88.5c-8.839844 0-16-7.160156-16-16v-48c0-8.839844 7.160156-16 16-16s16 7.160156 16 16v48c0 8.839844-7.160156 16-16 16zm0 0"/></g><path d="m141.664062 176.5h-93.664062v208h93.664062c20.984376 15.039062 46.609376 24 74.335938 24s53.351562-8.960938 74.335938-24h93.664062v-208h-93.664062c-20.984376-15.039062-46.609376-24-74.335938-24s-53.351562 8.960938-74.335938 24zm-77.664062 16h59.289062c-21.808593 22.960938-35.289062 53.902344-35.289062 88s13.480469 65.039062 35.289062 88h-59.289062zm40 88c0-61.761719 50.238281-112 112-112s112 50.238281 112 112-50.238281 112-112 112-112-50.238281-112-112zm264 88h-59.289062c21.808593-22.960938 35.289062-53.902344 35.289062-88s-13.480469-65.039062-35.289062-88h59.289062zm0 0"/><path d="m216 184.5c-22.40625 0-44.214844 7.894531-61.425781 22.246094l10.25 12.28125c12.273437-10.230469 27.367187-16.488282 43.167969-18.085938v23.558594h16v-23.59375c37.734374 3.769531 67.832031 33.859375 71.59375 71.59375h-23.585938v16h23.558594c-1.597656 15.808594-7.855469 30.902344-18.085938 43.167969l12.28125 10.246093c14.351563-17.199218 22.246094-39.007812 22.246094-61.414062 0-52.9375-43.0625-96-96-96zm0 0"/><path d="m224 360.058594v-23.558594h-16v23.59375c-37.734375-3.769531-67.832031-33.859375-71.59375-71.59375h23.59375v-16h-23.558594c1.597656-15.808594 7.855469-30.902344 18.085938-43.167969l-12.28125-10.246093c-14.351563 17.199218-22.246094 39.007812-22.246094 61.414062 0 52.9375 43.0625 96 96 96 22.40625 0 44.214844-7.894531 61.425781-22.246094l-10.25-12.28125c-12.273437 10.222656-27.367187 16.488282-43.175781 18.085938zm0 0"/><path d="m208 240.5v48h32v-16h-16v-32zm0 0"/><path d="m416 424.5h-400v-288h400v48h16v-104c0-22.054688-17.945312-40-40-40h-32v-16c0-13.230469-10.769531-24-24-24s-24 10.769531-24 24v16h-32v-16c0-13.230469-10.769531-24-24-24s-24 10.769531-24 24v16h-32v-16c0-13.230469-10.769531-24-24-24s-24 10.769531-24 24v16h-32v-16c0-13.230469-10.769531-24-24-24s-24 10.769531-24 24v16h-32c-22.054688 0-40 17.945312-40 40v360h432v-80h-16zm-88-400c0-4.414062 3.585938-8 8-8s8 3.585938 8 8v48c0 4.414062-3.585938 8-8 8s-8-3.585938-8-8zm-80 0c0-4.414062 3.585938-8 8-8s8 3.585938 8 8v48c0 4.414062-3.585938 8-8 8s-8-3.585938-8-8zm-80 0c0-4.414062 3.585938-8 8-8s8 3.585938 8 8v48c0 4.414062-3.585938 8-8 8s-8-3.585938-8-8zm-80 0c0-4.414062 3.585938-8 8-8s8 3.585938 8 8v48c0 4.414062-3.585938 8-8 8s-8-3.585938-8-8zm-48 32h32v16c0 13.230469 10.769531 24 24 24s24-10.769531 24-24v-16h32v16c0 13.230469 10.769531 24 24 24s24-10.769531 24-24v-16h32v16c0 13.230469 10.769531 24 24 24s24-10.769531 24-24v-16h32v16c0 13.230469 10.769531 24 24 24s24-10.769531 24-24v-16h32c13.230469 0 24 10.769531 24 24v40h-400v-40c0-13.230469 10.769531-24 24-24zm0 0"/><path d="m480 200.5h16v16h-16zm0 0"/><path d="m400 200.5h64v16h-64zm0 0"/><path d="m480 232.5h16v16h-16zm0 0"/><path d="m400 232.5h64v16h-64zm0 0"/><path d="m480 264.5h16v16h-16zm0 0"/><path d="m400 264.5h64v16h-64zm0 0"/><path d="m480 296.5h16v16h-16zm0 0"/><path d="m400 296.5h64v16h-64zm0 0"/><path d="m480 328.5h16v16h-16zm0 0"/><path d="m400 328.5h64v16h-64zm0 0"/></svg>