<svg height="496pt" viewBox="0 0 496 496" width="496pt" xmlns="http://www.w3.org/2000/svg"><path d="m8 216c0 42.519531 5.046875 84.878906 15.039062 126.207031l1.984376 8.207031c4.578124 16.769532 13.441406 32.050782 25.730468 44.339844 18.726563 18.726563 44.125 29.246094 70.605469 29.246094h38.640625c4.414062 0 8-3.585938 8-8v-96c0-4.414062-3.585938-8-8-8h-37.574219c-11.515625 0-22.257812-5.753906-28.640625-15.328125-3.777344-5.65625-5.785156-12.296875-5.785156-19.097656v-123.148438c0-6.792969 2.007812-13.441406 5.785156-19.097656 6.382813-9.574219 17.125-15.328125 28.640625-15.328125h37.574219c4.414062 0 8-3.585938 8-8v-96c0-4.414062-3.585938-8-8-8h-38.640625c-26.480469 0-51.878906 10.519531-70.605469 29.246094-12.289062 12.289062-21.160156 27.570312-25.730468 44.339844l-1.984376 8.207031c-9.992187 41.328125-15.039062 83.6875-15.039062 126.207031zm0 0" fill="#ff826e"/><path d="m120 120h40c4.414062 0 8-3.585938 8-8v-96c0-4.414062-3.585938-8-8-8h-38.640625c-.457031 0-.902344.0625-1.359375.0625zm0 0" fill="#e6e9ed"/><path d="m168 416v-96c0-4.414062-3.585938-8-8-8h-40v111.9375c.457031 0 .902344.0625 1.359375.0625h38.640625c4.414062 0 8-3.585938 8-8zm0 0" fill="#e6e9ed"/><path d="m488 152c0 79.527344-64.472656 144-144 144s-144-64.472656-144-144 64.472656-144 144-144 144 64.472656 144 144zm0 0" fill="#fcd770"/><path d="m432 200-16 32h-144l-16-32zm0 0" fill="#dfb28b"/><path d="m432 200c0-13.257812-10.742188-24-24-24 0-13.257812-10.742188-24-24-24-.488281 0-.945312.113281-1.425781.144531-3.261719-9.375-12.085938-16.144531-22.574219-16.144531-6.175781 0-11.742188 2.398438-16 6.230469-4.257812-3.832031-9.824219-6.230469-16-6.230469-10.488281 0-19.3125 6.769531-22.574219 16.144531-.480469-.03125-.9375-.144531-1.425781-.144531-13.257812 0-24 10.742188-24 24-13.257812 0-24 10.742188-24 24zm0 0" fill="#e6e9ed"/><path d="m232 192h224v16h-224zm0 0" fill="#dfb28b"/><path d="m424 216 4-8h-168l4 8zm0 0" fill="#cf9e76"/><path d="m257.472656 192h173.0625c-1.0625-2.992188-2.679687-5.6875-4.757812-8h-163.546875c-2.085938 2.3125-3.695313 5.007812-4.757813 8zm0 0" fill="#ccd1d9"/><path d="m336 416h16v16h-16zm0 0"/><path d="m336 384h16v16h-16zm0 0"/><path d="m304 480h-120c-17.648438 0-32-14.351562-32-32v-16h8c8.824219 0 16-7.175781 16-16v-96c0-8.824219-7.175781-16-16-16h-37.574219c-8.859375 0-17.074219-4.398438-21.984375-11.769531-2.90625-4.351563-4.441406-9.421875-4.441406-14.65625v-123.148438c0-5.234375 1.535156-10.304687 4.441406-14.65625 4.902344-7.371093 13.125-11.769531 21.984375-11.769531h37.574219c8.824219 0 16-7.175781 16-16v-96c0-8.824219-7.175781-16-16-16h-38.640625c-28.808594 0-55.894531 11.214844-76.269531 31.59375-13.25 13.246094-22.859375 29.804688-27.84375 48.109375l-1.980469 8.207031c-10.128906 41.890625-15.265625 84.984375-15.265625 128.089844s5.136719 86.199219 15.265625 128.089844l2.039063 8.429687c4.925781 18.082031 14.535156 34.640625 27.792968 47.886719 20.367188 20.378906 47.453125 31.59375 76.261719 31.59375h14.640625v16c0 26.472656 21.527344 48 48 48h120c26.472656 0 48-21.527344 48-48h-16c0 17.648438-14.351562 32-32 32zm-144-64h-32v-96h32zm0-304h-32v-96h32zm-127.199219 236.535156-1.984375-8.207031c-9.832031-40.65625-14.816406-82.488281-14.816406-124.328125s4.984375-83.671875 14.816406-124.328125l1.925782-7.984375c4.195312-15.390625 12.378906-29.496094 23.664062-40.785156 15.121094-15.117188 34.59375-24.308594 55.59375-26.421875v96.816406c-10.070312 2.542969-18.960938 8.726563-24.871094 17.597656-4.664062 6.992188-7.128906 15.128907-7.128906 23.53125v123.160157c0 8.398437 2.464844 16.535156 7.128906 23.527343 5.910156 8.863281 14.808594 15.054688 24.871094 17.597657v96.808593c-21-2.113281-40.472656-11.304687-55.59375-26.421875-11.285156-11.289062-19.46875-25.394531-23.605469-40.5625zm0 0"/><path d="m496 152c0-83.816406-68.183594-152-152-152s-152 68.183594-152 152c0 81.113281 63.910156 147.390625 144 151.59375v64.40625h16v-64.40625c80.089844-4.203125 144-70.480469 144-151.59375zm-152 136c-74.992188 0-136-61.007812-136-136s61.007812-136 136-136 136 61.007812 136 136-61.007812 136-136 136zm0 0"/><path d="m438.863281 192c-2.984375-11.480469-12.078125-20.511719-23.679687-23.183594-3-13.015625-13.960938-23.023437-27.457032-24.601562-5.605468-9.886719-16.140624-16.214844-27.726562-16.214844-5.640625 0-11.144531 1.519531-16 4.359375-4.855469-2.839844-10.359375-4.359375-16-4.359375-11.585938 0-22.121094 6.328125-27.726562 16.214844-13.496094 1.578125-24.457032 11.585937-27.457032 24.601562-11.601562 2.671875-20.695312 11.710938-23.679687 23.183594h-17.136719v16h19.054688l16 32h153.890624l16-32h19.054688v-16zm-158.863281-8h8v-8c0-8.824219 7.175781-16 15.71875-16l7.257812.519531 2-5.742187c2.246094-6.441406 8.289063-10.777344 15.023438-10.777344 4.96875 0 8.527344 2.273438 10.648438 4.167969l5.351562 4.824219 5.351562-4.816407c2.121094-1.902343 5.679688-4.175781 10.648438-4.175781 6.734375 0 12.777344 4.335938 15.015625 10.777344l2 5.742187 6.074219-.390625.910156-.128906c8.824219 0 16 7.175781 16 16v8h8c5.894531 0 11 3.238281 13.777344 8h-155.554688c2.777344-4.761719 7.882813-8 13.777344-8zm131.054688 40h-134.109376l-8-16h150.109376zm0 0"/><path d="m344 61.007812c0 .71875-.167969 1.449219-.488281 2.089844l-4.6875 9.367188c-1.847657 3.695312-2.824219 7.832031-2.824219 11.960937 0 10.191407 5.664062 19.351563 14.777344 23.910157l5.648437 2.824218 7.160157-14.3125-5.648438-2.824218c-3.664062-1.832032-5.9375-5.511719-5.9375-9.597657 0-1.664062.390625-3.320312 1.128906-4.800781l4.6875-9.367188c1.429688-2.859374 2.183594-6.058593 2.183594-9.25 0-10.519531-4.097656-20.421874-11.542969-27.863281l-6.800781-6.800781-11.3125 11.3125 6.800781 6.800781c4.421875 4.421875 6.855469 10.304688 6.855469 16.550781zm0 0"/><path d="m400 77.007812c0 .71875-.167969 1.449219-.488281 2.089844l-4.6875 9.367188c-1.847657 3.695312-2.824219 7.832031-2.824219 11.960937 0 10.191407 5.664062 19.351563 14.777344 23.910157l5.648437 2.824218 7.160157-14.3125-5.648438-2.824218c-3.664062-1.832032-5.9375-5.511719-5.9375-9.597657 0-1.664062.390625-3.320312 1.128906-4.800781l4.6875-9.367188c1.429688-2.859374 2.183594-6.058593 2.183594-9.25 0-10.519531-4.097656-20.421874-11.542969-27.863281l-6.800781-6.800781-11.3125 11.3125 6.800781 6.800781c4.421875 4.421875 6.855469 10.304688 6.855469 16.550781zm0 0"/><path d="m288 77.007812c0 .71875-.167969 1.449219-.488281 2.089844l-4.6875 9.367188c-1.847657 3.695312-2.824219 7.832031-2.824219 11.960937 0 10.191407 5.664062 19.351563 14.777344 23.910157l5.648437 2.824218 7.160157-14.3125-5.648438-2.824218c-3.664062-1.832032-5.9375-5.511719-5.9375-9.597657 0-1.664062.390625-3.320312 1.128906-4.800781l4.6875-9.367188c1.429688-2.859374 2.183594-6.058593 2.183594-9.25 0-10.519531-4.097656-20.421874-11.542969-27.863281l-6.800781-6.800781-11.3125 11.3125 6.800781 6.800781c4.421875 4.421875 6.855469 10.304688 6.855469 16.550781zm0 0"/></svg>