<svg height="496pt" viewBox="0 0 496 496" width="496pt" xmlns="http://www.w3.org/2000/svg"><path d="m19.199219 296 18.511719 92.550781c2.433593 12.152344 8.25 22.882813 16.304687 31.386719 0 0 41.984375 36.0625 193.984375 36.0625s193.929688-36.007812 193.929688-36.007812c8.078124-8.511719 13.917968-19.265626 16.359374-31.441407l18.511719-92.550781zm0 0" fill="#aab2bd"/><path d="m454.617188 440c-13.082032 0-20.015626-5.359375-25.585938-9.671875-4.757812-3.671875-8.191406-6.328125-15.808594-6.328125-7.605468 0-11.039062 2.65625-15.78125 6.328125-5.570312 4.3125-12.496094 9.671875-25.570312 9.671875-13.070313 0-19.992188-5.367188-25.558594-9.671875-4.746094-3.671875-8.167969-6.328125-15.769531-6.328125-7.597657 0-11.03125 2.65625-15.773438 6.328125-5.570312 4.304687-12.496093 9.671875-25.570312 9.671875-13.070313 0-19.992188-5.367188-25.558594-9.671875-4.746094-3.671875-8.167969-6.328125-15.769531-6.328125-7.597656 0-11.03125 2.65625-15.773438 6.328125-5.570312 4.304687-12.496094 9.671875-25.5625 9.671875-13.070312 0-19.992187-5.367188-25.558594-9.671875-4.746093-3.671875-8.167968-6.328125-15.769531-6.328125-7.597656 0-11.023437 2.65625-15.765625 6.328125-5.5625 4.304687-12.488281 9.671875-25.554687 9.671875-13.054688 0-19.976563-5.367188-25.535157-9.671875-4.742187-3.671875-8.167968-6.328125-15.75-6.328125-7.59375 0-11.027343 2.65625-15.769531 6.328125-5.558593 4.304687-12.488281 9.671875-25.550781 9.671875-13.058594 0-19.976562-5.367188-25.539062-9.679688-4.734376-3.671874-8.15625-6.320312-15.742188-6.320312v72h496v-72c-7.617188 0-11.046875 2.65625-15.808594 6.328125-5.566406 4.3125-12.496094 9.671875-25.574218 9.671875zm0 0" fill="#4fc1e9"/><path d="m8 264h480v32h-480zm0 0" fill="#ff826e"/><path d="m22.398438 312h451.203124l3.199219-16h-457.601562zm0 0" fill="#969faa"/><path d="m64 176h112v88h-112zm0 0" fill="#dfb28b"/><path d="m104 176h32v32h-32zm0 0" fill="#cf9e76"/><path d="m208 120h144v144h-144zm0 0" fill="#dfb28b"/><path d="m248 120h64v48h-64zm0 0" fill="#cf9e76"/><path d="m384 40h32v224h-32zm0 0" fill="#969faa"/><path d="m72 8h360v32h-360zm0 0" fill="#fcd770"/><path d="m160 328c0 17.671875-14.328125 32-32 32s-32-14.328125-32-32 14.328125-32 32-32 32 14.328125 32 32zm0 0" fill="#e6e9ed"/><path d="m448.609375 405.023438c-6.289063-4.871094-16.816406-13.023438-35.386719-13.023438-18.519531 0-29.054687 8.136719-35.375 13.023438-3.839844 2.976562-3.839844 2.976562-5.976562 2.976562-2.128906 0-2.128906 0-6.015625-3.007812-6.28125-4.855469-16.800781-12.992188-35.3125-12.992188s-29.046875 8.136719-35.367188 13.023438c-3.839843 2.976562-3.839843 2.976562-5.976562 2.976562-2.128907 0-2.128907 0-6.015625-3.007812-6.28125-4.855469-16.800782-12.992188-35.3125-12.992188-18.511719 0-29.046875 8.136719-35.367188 13.023438-3.839844 2.976562-3.839844 2.976562-5.96875 2.976562s-2.128906 0-6.015625-3.007812c-6.28125-4.855469-16.800781-12.992188-35.3125-12.992188-18.550781 0-29.078125 8.160156-35.375 13.039062-3.824219 2.960938-3.824219 2.960938-5.945312 2.960938-2.109375 0-2.109375 0-5.933594-2.96875-6.289063-4.871094-16.808594-13.03125-35.351563-13.03125-18.554687 0-29.082031 8.160156-35.378906 13.039062-1.214844.945313-1.984375 1.511719-2.621094 1.953126 2.621094 4.703124 5.75 9.078124 9.40625 12.945312.984376-.699219 1.96875-1.441406 3.023438-2.257812 5.570312-4.3125 12.496094-9.679688 25.570312-9.679688 13.0625 0 19.984376 5.367188 25.542969 9.679688 4.742188 3.671874 8.160157 6.320312 15.742188 6.320312 7.59375 0 11.015625-2.65625 15.761719-6.320312 5.558593-4.3125 12.496093-9.679688 25.558593-9.679688 13.066407 0 19.992188 5.367188 25.5625 9.671875 4.742188 3.671875 8.175781 6.328125 15.765625 6.328125 7.59375 0 11.023438-2.65625 15.769532-6.328125 5.566406-4.304687 12.503906-9.671875 25.566406-9.671875 13.066406 0 19.992187 5.367188 25.5625 9.671875 4.742187 3.671875 8.175781 6.328125 15.765625 6.328125 7.601562 0 11.03125-2.65625 15.777343-6.328125 5.566407-4.304687 12.503907-9.671875 25.566407-9.671875 13.066406 0 19.992187 5.367188 25.5625 9.671875 4.742187 3.671875 8.175781 6.328125 15.765625 6.328125 7.601562 0 11.03125-2.65625 15.777344-6.328125 5.566406-4.304687 12.503906-9.671875 25.574218-9.671875 13.074219 0 20.015625 5.359375 25.585938 9.671875 1.085937.839844 2.101562 1.609375 3.121094 2.320313 3.664062-3.863282 6.789062-8.230469 9.421874-12.945313-.648437-.429687-1.441406-1.015625-2.742187-2.023437zm0 0" fill="#969faa"/><path d="m384 40h32v16h-32zm0 0" fill="#838f9b"/><path d="m384 248h32v16h-32zm0 0" fill="#838f9b"/><path d="m208 248h144v16h-144zm0 0" fill="#cf9e76"/><path d="m64 248h112v16h-112zm0 0" fill="#cf9e76"/><path d="m454.617188 480c-7.617188 0-11.050782-2.65625-15.808594-6.328125-5.570313-4.3125-12.503906-9.671875-25.585938-9.671875-13.078125 0-20.007812 5.359375-25.574218 9.671875-4.746094 3.671875-8.167969 6.328125-15.777344 6.328125-7.589844 0-11.023438-2.65625-15.765625-6.328125-5.570313-4.3125-12.488281-9.671875-25.5625-9.671875-13.070313 0-20 5.359375-25.566407 9.671875-4.746093 3.671875-8.167968 6.328125-15.777343 6.328125-7.589844 0-11.023438-2.65625-15.765625-6.328125-5.570313-4.3125-12.488282-9.671875-25.5625-9.671875-13.070313 0-20 5.359375-25.566406 9.671875-4.746094 3.671875-8.167969 6.328125-15.769532 6.328125-7.597656 0-11.023437-2.65625-15.765625-6.328125-5.570312-4.3125-12.488281-9.671875-25.5625-9.671875-13.070312 0-20 5.359375-25.558593 9.671875-4.746094 3.671875-8.160157 6.328125-15.761719 6.328125-7.582031 0-11-2.65625-15.742188-6.320312-5.558593-4.3125-12.480469-9.679688-25.542969-9.679688-13.074218 0-20 5.359375-25.5625 9.671875-4.742187 3.671875-8.167968 6.328125-15.757812 6.328125-7.585938 0-11.007812-2.65625-15.746094-6.328125-5.558594-4.304687-12.480468-9.671875-25.535156-9.671875v16c7.585938 0 11.007812 2.65625 15.742188 6.328125 5.5625 4.304687 12.480468 9.671875 25.539062 9.671875 13.0625 0 19.992188-5.359375 25.550781-9.671875 4.742188-3.671875 8.175781-6.328125 15.769531-6.328125 7.582032 0 11.007813 2.65625 15.75 6.328125 5.558594 4.3125 12.480469 9.671875 25.535157 9.671875 13.066406 0 19.992187-5.359375 25.554687-9.671875 4.742188-3.671875 8.175782-6.328125 15.765625-6.328125 7.59375 0 11.023438 2.65625 15.769531 6.328125 5.566407 4.3125 12.496094 9.671875 25.558594 9.671875 13.066406 0 19.992188-5.359375 25.5625-9.671875 4.742188-3.671875 8.175782-6.328125 15.773438-6.328125 7.59375 0 11.023437 2.65625 15.769531 6.328125 5.566406 4.3125 12.496094 9.671875 25.558594 9.671875 13.066406 0 20-5.359375 25.570312-9.671875 4.742188-3.671875 8.175781-6.328125 15.773438-6.328125 7.59375 0 11.023437 2.65625 15.769531 6.328125 5.566406 4.3125 12.496094 9.671875 25.558594 9.671875 13.066406 0 20-5.359375 25.570312-9.671875 4.742188-3.671875 8.175782-6.328125 15.78125-6.328125 7.617188 0 11.050782 2.65625 15.808594 6.328125 5.570312 4.3125 12.503906 9.671875 25.585938 9.671875 13.078124 0 20.007812-5.359375 25.574218-9.671875 4.761719-3.671875 8.191406-6.328125 15.808594-6.328125v-16c-13.078125 0-20.015625 5.359375-25.585938 9.671875-4.757812 3.671875-8.191406 6.328125-15.796874 6.328125zm0 0"/><path d="m483.351562 304h12.648438v-48h-72v-208h16v-48h-376v48h48v24h-16v16h16v24c0 4.40625-3.585938 8-8 8s-8-3.59375-8-8v-8h-16v8c0 13.230469 10.769531 24 24 24s24-10.769531 24-24v-24h16v-16h-16v-24h248v208h-16v-144h-160v144h-16v-88h-128v88h-56v48h12.648438l17.222656 86.121094c2.472656 12.414062 8.242187 23.925781 16.519531 33.375-1.496094.320312-3.160156.503906-5.109375.503906-7.585938 0-11.007812-2.65625-15.746094-6.328125-5.558594-4.304687-12.480468-9.671875-25.535156-9.671875v16c7.585938 0 11.007812 2.65625 15.742188 6.328125 5.5625 4.304687 12.480468 9.671875 25.539062 9.671875 13.0625 0 19.992188-5.359375 25.550781-9.671875 4.742188-3.671875 8.175781-6.328125 15.769531-6.328125 7.582032 0 11.007813 2.65625 15.75 6.328125 5.558594 4.3125 12.480469 9.671875 25.535157 9.671875 13.066406 0 19.992187-5.359375 25.554687-9.671875 4.742188-3.671875 8.175782-6.328125 15.765625-6.328125 7.59375 0 11.023438 2.65625 15.769531 6.328125 5.566407 4.3125 12.496094 9.671875 25.558594 9.671875 13.066406 0 19.992188-5.359375 25.5625-9.671875 4.742188-3.671875 8.175782-6.328125 15.773438-6.328125 7.59375 0 11.023437 2.65625 15.769531 6.328125 5.566406 4.3125 12.496094 9.671875 25.558594 9.671875 13.066406 0 20-5.359375 25.570312-9.671875 4.742188-3.671875 8.175781-6.328125 15.773438-6.328125 7.59375 0 11.023437 2.65625 15.769531 6.328125 5.566406 4.3125 12.496094 9.671875 25.558594 9.671875 13.066406 0 20-5.359375 25.570312-9.671875 4.742188-3.671875 8.175782-6.328125 15.78125-6.328125 7.617188 0 11.050782 2.65625 15.808594 6.328125 5.570312 4.3125 12.503906 9.671875 25.585938 9.671875 13.078124 0 20.007812-5.359375 25.574218-9.671875 4.761719-3.671875 8.191406-6.328125 15.808594-6.328125v-16c-13.078125 0-20.015625 5.359375-25.585938 9.671875-4.757812 3.671875-8.191406 6.328125-15.796874 6.328125-1.914063 0-3.5625-.167969-5.042969-.480469 8.296875-9.449219 14.066406-20.96875 16.554687-33.398437zm-19.511718 16h-296.648438c-1.214844-5.945312-3.855468-11.328125-7.390625-16h307.238281zm-311.839844 8c0 13.230469-10.769531 24-24 24s-24-10.769531-24-24 10.769531-24 24-24 24 10.769531 24 24zm-28.6875-296-16-16h25.375l16 16zm32-16h25.375l16 16h-25.375zm48 0h25.375l16 16h-25.375zm48 0h25.375l16 16h-25.375zm48 0h25.375l16 16h-25.375zm48 0h25.375l16 16h-25.375zm76.6875 16h-12.6875l-16-16h28.6875zm-344-16h4.6875l16 16h-20.6875zm312 32h16v208h-16zm-120 96v16h-16v-32h48v32h-16v-16zm-56-16h24v48h80v-48h24v128h-128zm-104 56h16v16h-16zm-40 0h24v32h48v-32h24v72h-96zm-56 88h464v16h-464zm80.207031 32c-3.535156 4.671875-6.183593 10.054688-7.390625 16h-56.65625l-3.199218-16zm339.144531 111.089844c-5.0625-3.609375-11.582031-7.089844-22.128906-7.089844-13.078125 0-20.007812 5.359375-25.574218 9.671875-4.746094 3.671875-8.167969 6.328125-15.777344 6.328125-7.589844 0-11.023438-2.65625-15.765625-6.328125-5.570313-4.3125-12.488281-9.671875-25.5625-9.671875-13.070313 0-20 5.359375-25.566407 9.671875-4.746093 3.671875-8.167968 6.328125-15.777343 6.328125-7.589844 0-11.023438-2.65625-15.765625-6.328125-5.570313-4.3125-12.488282-9.671875-25.5625-9.671875-13.070313 0-20 5.359375-25.566406 9.671875-4.746094 3.671875-8.167969 6.328125-15.769532 6.328125-7.597656 0-11.023437-2.65625-15.765625-6.328125-5.570312-4.3125-12.488281-9.671875-25.5625-9.671875-13.070312 0-20 5.359375-25.558593 9.671875-4.746094 3.671875-8.160157 6.328125-15.761719 6.328125-7.582031 0-11-2.65625-15.742188-6.320312-5.558593-4.3125-12.480469-9.679688-25.542969-9.679688-10.472656 0-16.976562 3.441406-22.015624 7.03125-7.554688-7.71875-12.90625-17.398438-15.035157-28.046875l-10.191406-50.984375h53.449219c3.71875 18.230469 19.871094 32 39.191406 32s35.472656-13.769531 39.191406-32h293.449219l-10.191406 50.984375c-2.136719 10.679687-7.519531 20.375-15.097657 28.105469zm0 0"/><path d="m200 368h16v16h-16zm0 0"/><path d="m248 368h16v16h-16zm0 0"/><path d="m296 368h16v16h-16zm0 0"/><path d="m344 368h16v16h-16zm0 0"/><path d="m392 368h16v16h-16zm0 0"/></svg>