<svg height="496pt" viewBox="0 0 496 496" width="496pt" xmlns="http://www.w3.org/2000/svg"><path d="m184 24h128v64h-128zm0 0" fill="#ccd1d9"/><path d="m288 88-32-64h-48l32 64zm0 0" fill="#fcd770"/><path d="m80 296h336v192h-336zm0 0" fill="#dfb28b"/><path d="m80 296h112v192h-112zm0 0" fill="#f0d0b4"/><path d="m280 296h48v32h-48zm0 0" fill="#cf9e76"/><path d="m280 456h48v32h-48zm0 0" fill="#cf9e76"/><path d="m152 200c0-17.671875-14.328125-32-32-32-1.105469 0-2.160156.144531-3.230469.273438-6.105469-14.265626-20.265625-24.273438-36.769531-24.273438s-30.664062 10.007812-36.769531 24.273438c-1.0625-.128907-2.125-.273438-3.230469-.273438-17.671875 0-32 14.328125-32 32zm0 0" fill="#69d6f4"/><path d="m488 120c0-17.671875-14.328125-32-32-32-1.105469 0-2.160156.144531-3.230469.273438-6.105469-14.265626-20.265625-24.273438-36.769531-24.273438s-30.664062 10.007812-36.769531 24.273438c-1.0625-.128907-2.125-.273438-3.230469-.273438-17.671875 0-32 14.328125-32 32zm0 0" fill="#69d6f4"/><path d="m216 368h128v16h-128zm0 0"/><path d="m216 400h128v16h-128zm0 0"/><path d="m288.351562 214.726562c9.671876-10.070312 15.648438-23.703124 15.648438-38.726562 0-28.167969-20.894531-51.535156-48-55.433594v-24.566406h64v-80h-16v-16h-16v16h-80v-16h-16v16h-16v80h64v40h8c22.054688 0 40 17.945312 40 40 0 10.457031-4.128906 19.910156-10.71875 27.039062-8.050781-7.054687-18.480469-11.039062-29.28125-11.039062s-21.230469 3.984375-29.28125 11.039062c-6.589844-7.128906-10.71875-16.582031-10.71875-27.039062h-16c0 15.023438 5.976562 28.65625 15.648438 38.726562l-67.167969 73.273438h-68.480469v208h352v-208h-68.480469zm-43.40625-134.726562-24-48h30.109376l24 48zm59.054688 0h-11.054688l-24-48h35.054688zm-112-48h11.054688l24 48h-35.054688zm96 272h32v16h-32zm-24.359375-91.191406c-4.808594 2.046875-10.089844 3.191406-15.640625 3.191406s-10.832031-1.144531-15.640625-3.191406c4.617187-3.054688 10.03125-4.808594 15.640625-4.808594s11.023438 1.753906 15.640625 4.808594zm-43.34375 11.800781c8.183594 4.679687 17.625 7.390625 27.703125 7.390625s19.519531-2.710938 27.703125-7.390625l58.113281 63.390625h-171.632812zm-132.296875 79.390625h96v176h-96zm232 176h-32v-16h32zm88 0h-72v-32h-64v32h-72v-176h72v32h64v-32h72zm0 0"/><path d="m109.425781 171.425781 2.664063 5.484375 5.957031-.734375c.648437-.078125 1.289063-.175781 1.953125-.175781 13.230469 0 24 10.769531 24 24h16c0-21.527344-17.097656-39.136719-38.414062-39.96875-8.496094-14.757812-24.265626-24.03125-41.585938-24.03125s-33.089844 9.273438-41.585938 24.03125c-21.316406.832031-38.414062 18.441406-38.414062 39.96875h16c0-13.230469 10.769531-24 24-24 .664062 0 1.304688.097656 2.265625.214844l5.949219.722656 2.359375-5.511719c5.058593-11.800781 16.601562-19.425781 29.425781-19.425781s24.367188 7.625 29.425781 19.425781zm0 0"/><path d="m457.585938 80.03125c-8.496094-14.757812-24.265626-24.03125-41.585938-24.03125s-33.089844 9.273438-41.585938 24.03125c-21.316406.832031-38.414062 18.441406-38.414062 39.96875h16c0-13.230469 10.769531-24 24-24 .664062 0 1.304688.097656 2.265625.214844l5.949219.722656 2.359375-5.511719c5.058593-11.800781 16.601562-19.425781 29.425781-19.425781s24.367188 7.625 29.425781 19.425781l2.664063 5.484375 5.957031-.734375c.648437-.078125 1.289063-.175781 1.953125-.175781 13.230469 0 24 10.769531 24 24h16c0-21.527344-17.097656-39.136719-38.414062-39.96875zm0 0"/></svg>