<svg height="496pt" viewBox="-72 0 496 496" width="496pt" xmlns="http://www.w3.org/2000/svg"><path d="m268 24h60c8.839844 0 16 7.160156 16 16v432c0 8.839844-7.160156 16-16 16h-304c-8.839844 0-16-7.160156-16-16v-432c0-8.839844 7.160156-16 16-16zm0 0" fill="#dfb28b"/><path d="m88 56h-48v400h208l64-64v-336zm0 0" fill="#e6e9ed"/><path d="m268 24h-200.496094l16 64h184.992188l16-64zm0 0" fill="#cf9e76"/><path d="m83.503906 88h184.992188l8-32h-200.992188zm0 0" fill="#ccd1d9"/><path d="m256 72h-160l-16-64h192zm0 0" fill="#aab2bd"/><path d="m240 376v80h8l64-64v-16zm0 0" fill="#ccd1d9"/><path d="m248 456v-64h64zm0 0" fill="#ff826e"/><path d="m72 104h208v176h-208zm0 0" fill="#ecc19c"/><path d="m128 104h96v48h-96zm0 0" fill="#cf9e76"/><path d="m128 232h96v48h-96zm0 0" fill="#cf9e76"/><path d="m152 344v48h-80v-80h80zm0 0" fill="#fcd770"/><path d="m328 16h-49.753906l4-16h-212.492188l4 16h-49.753906c-13.230469 0-24 10.769531-24 24v432c0 13.230469 10.769531 24 24 24h304c13.230469 0 24-10.769531 24-24v-432c0-13.230469-10.769531-24-24-24zm-66.246094 0-12 48h-147.507812l-12-48zm.492188 64 4-16h37.753906v320h-64v64h-192v-384h37.753906l4 16zm30.441406 320-36.6875 36.6875v-36.6875zm43.3125 72c0 4.40625-3.59375 8-8 8h-304c-4.40625 0-8-3.59375-8-8v-432c0-4.40625 3.59375-8 8-8h53.753906l4 16h-49.753906v416h219.3125l68.6875-68.6875v-347.3125h-49.753906l4-16h53.753906c4.40625 0 8 3.59375 8 8zm0 0"/><path d="m128 32h16v16h-16zm0 0"/><path d="m208 32h16v16h-16zm0 0"/><path d="m64 288h224v-192h-224zm152-16h-16v-16h-16v16h-16v-16h-16v16h-16v-32h80zm-80-160h16v16h16v-16h16v16h16v-16h16v32h-80zm-56 0h40v48h112v-48h40v160h-40v-48h-112v48h-40zm0 0"/><path d="m144 384h-64v-64h32v-16h-48v96h96v-56h-16zm0 0"/><path d="m104 348.6875-10.34375-10.34375-11.3125 11.3125 21.65625 21.65625 61.65625-61.65625-11.3125-11.3125zm0 0"/><path d="m176 320h112v16h-112zm0 0"/><path d="m176 352h112v16h-112zm0 0"/><path d="m64 416h16v16h-16zm0 0"/><path d="m96 416h16v16h-16zm0 0"/><path d="m128 416h16v16h-16zm0 0"/></svg>