<svg height="496pt" viewBox="0 0 496 496" width="496pt" xmlns="http://www.w3.org/2000/svg"><path d="m448 280v-272h-352v272zm0 0" fill="#cf9e76"/><path d="m216 488h-208v-232l56-56h152zm0 0" fill="#e6e9ed"/><path d="m160 384c0 30.929688-25.070312 56-56 56s-56-25.070312-56-56 25.070312-56 56-56 56 25.070312 56 56zm0 0" fill="#fcd770"/><path d="m8 256v16h64v-72h-8zm0 0" fill="#ccd1d9"/><path d="m64 200v56h-56zm0 0" fill="#ff826e"/><path d="m224 8h96v64h-96zm0 0" fill="#b27946"/><path d="m216 200v80h232v-80zm0 0" fill="#b27946"/><path d="m248 216h240v208h-240zm0 0" fill="#dfb28b"/><path d="m320 216h96v48h-96zm0 0" fill="#cf9e76"/><path d="m320 376h96v48h-96zm0 0" fill="#cf9e76"/><path d="m104 388.6875-18.34375-18.34375-11.3125 11.3125 29.65625 29.65625 85.65625-85.65625-11.3125-11.3125zm0 0"/><path d="m151.742188 379.054688c.167968 1.625.257812 3.28125.257812 4.945312 0 26.472656-21.527344 48-48 48s-48-21.527344-48-48 21.527344-48 48-48c8.921875 0 17.679688 2.519531 25.328125 7.289062l8.472656-13.578124c-10.199219-6.351563-21.890625-9.710938-33.800781-9.710938-35.289062 0-64 28.710938-64 64s28.710938 64 64 64 64-28.710938 64-64c0-2.214844-.121094-4.433594-.335938-6.585938zm0 0"/><path d="m88 224h16v16h-16zm0 0"/><path d="m120 224h72v16h-72zm0 0"/><path d="m88 256h16v16h-16zm0 0"/><path d="m120 256h72v16h-72zm0 0"/><path d="m344 112h16v16h-16zm0 0"/><path d="m376 112h16v16h-16zm0 0"/><path d="m408 112h16v16h-16zm0 0"/><path d="m376 144h16v16h-16zm0 0"/><path d="m408 144h16v16h-16zm0 0"/><path d="m408 176h16v16h-16zm0 0"/><path d="m456 208v-208h-368v192h-27.3125l-60.6875 60.6875v243.3125h224v-208h16v144h256v-224zm-176-176v32h-16v-32h-16v32h-16v-48h80v48h-16v-32zm-224 187.3125v28.6875h-28.6875zm152 260.6875h-192v-216h56v-56h136zm16-208v-80h-120v-176h112v64h112v-64h112v192h-200v64zm152-32v16h-16v-16h-16v16h-16v-32h80v32h-16v-16zm-16 160v-16h16v16h16v-16h16v32h-80v-32h16v16zm120 16h-56v-48h-112v48h-56v-192h56v48h112v-48h56zm0 0"/></svg>