<svg xmlns="http://www.w3.org/2000/svg" viewBox="0 17.37999725341797 469.9999694824219 362.95001220703125">
  <defs>
    <style>
      .cls-1 { fill: #cfd4db }
      .cls-2 { fill: #f0f2f5 }
      .cls-3 { fill: #a5adba }
      .cls-4 { isolation: isolate }
      .cls-5 { fill: #00c7e5; opacity: 0.3 }
      .cls-6 { fill: #172b4d }
      .cls-7 { fill: #253858 }
      .cls-8 { fill: #d4b696 }
      .cls-9 { fill: #344563 }
      .cls-10 { fill: #42526e }
      .cls-11 { clip-path: url(#clip-path) }
      .cls-12, .cls-14, .cls-15 { fill: none }
      .cls-12 { stroke: #3dc7dc }
      .cls-12, .cls-14, .cls-15, .cls-19 { stroke-miterlimit: 10 }
      .cls-12, .cls-15, .cls-19 { stroke-width: 3.01px }
      .cls-13 { clip-path: url(#clip-path-2) }
      .cls-14 { stroke: #9ce3ee; stroke-width: 2.26px }
      .cls-15 { stroke: #ff8a63 }
      .cls-15, .cls-16, .cls-17 { mix-blend-mode: multiply }
      .cls-16 { fill: url(#linear-gradient) }
      .cls-17 { fill: url(#linear-gradient-2) }
      .cls-18 { clip-path: url(#clip-path-3) }
      .cls-19 { fill: #1db9d4; stroke: #158699 }
      .cls-20 { fill: #72594b }
      .cls-21 { fill: url(#linear-gradient-3) }
      .cls-22 { fill: #0065ff }
      .cls-23 { fill: url(#linear-gradient-4) }
      .cls-24 { fill: #505f79 }
      .cls-25 { fill: #ff7452 }
      .cls-26 { fill: #de350b }
      .cls-27 { fill: url(#linear-gradient-5) }
      .cls-28 { fill: url(#linear-gradient-6) }
    </style>
    <clipPath id="clip-path">
      <path d="M135.88 256.51l-15.19 123.82L449.56 70.51l-313.68 186z" class="cls-1"/>
    </clipPath>
    <clipPath id="clip-path-2">
      <path d="M300.55 328.3L0 196.53 449.51 70.42 300.55 328.3z" class="cls-2"/>
    </clipPath>
    <clipPath id="clip-path-3">
      <path d="M449.56 70.51l-313.68 186-22.61-9.91L449.56 70.51z" class="cls-3"/>
    </clipPath>
    <linearGradient id="linear-gradient" x1="313.45" x2="383.1" y1="235.71" y2="150.35" gradientTransform="matrix(.83 -.15 -.15 .67 52.94 92.12)" gradientUnits="userSpaceOnUse">
      <stop offset="0" stop-color="#c1c7d0" stop-opacity="0"/>
      <stop offset=".12" stop-color="#c1c7d0" stop-opacity=".2"/>
      <stop offset=".28" stop-color="#c1c7d0" stop-opacity=".44"/>
      <stop offset=".44" stop-color="#c1c7d0" stop-opacity=".64"/>
      <stop offset=".59" stop-color="#c1c7d0" stop-opacity=".8"/>
      <stop offset=".74" stop-color="#c1c7d0" stop-opacity=".91"/>
      <stop offset=".88" stop-color="#c1c7d0" stop-opacity=".98"/>
      <stop offset="1" stop-color="#c1c7d0"/>
    </linearGradient>
    <linearGradient id="linear-gradient-2" x1="215.67" x2="287.19" y1="173.36" y2="85.72" gradientTransform="matrix(.67 -.1 -.24 .43 73.96 141.35)" gradientUnits="userSpaceOnUse">
      <stop offset=".22" stop-color="#c1c7d0" stop-opacity="0"/>
      <stop offset=".3" stop-color="#c1c7d0" stop-opacity=".05"/>
      <stop offset=".43" stop-color="#c1c7d0" stop-opacity=".17"/>
      <stop offset=".59" stop-color="#c1c7d0" stop-opacity=".38"/>
      <stop offset=".79" stop-color="#c1c7d0" stop-opacity=".67"/>
      <stop offset="1" stop-color="#c1c7d0"/>
    </linearGradient>
    <linearGradient id="linear-gradient-3" x1="226.7" x2="250.26" y1="106.8" y2="100.19" gradientUnits="userSpaceOnUse">
      <stop offset=".31" stop-color="#0065ff"/>
      <stop offset=".47" stop-color="#0468ff"/>
      <stop offset=".63" stop-color="#1171ff"/>
      <stop offset=".79" stop-color="#267fff"/>
      <stop offset=".96" stop-color="#4394ff"/>
      <stop offset="1" stop-color="#4c9aff"/>
    </linearGradient>
    <linearGradient id="linear-gradient-4" x1="303.01" x2="284.07" y1="139.24" y2="168.71" gradientUnits="userSpaceOnUse">
      <stop offset=".13" stop-color="#ff5630"/>
      <stop offset=".71" stop-color="#de350b"/>
    </linearGradient>
    <linearGradient id="linear-gradient-5" x1="303.03" x2="345.32" y1="182.76" y2="144.07" gradientUnits="userSpaceOnUse">
      <stop offset=".42" stop-color="#de350b"/>
      <stop offset=".57" stop-color="#ec5029"/>
      <stop offset=".73" stop-color="#f76440"/>
      <stop offset=".87" stop-color="#fd704d"/>
      <stop offset="1" stop-color="#ff7452"/>
    </linearGradient>
    <linearGradient id="linear-gradient-6" x1="301.38" x2="381.19" y1="141.47" y2="141.47" gradientUnits="userSpaceOnUse">
      <stop offset=".26" stop-color="#ff5630"/>
      <stop offset=".45" stop-color="#ff6f4d"/>
      <stop offset=".64" stop-color="#ff8062"/>
      <stop offset=".83" stop-color="#ff8b6f"/>
      <stop offset="1" stop-color="#ff8f73"/>
    </linearGradient>
  </defs>
  <g class="cls-4">
    <g>
      <g>
        <path d="M371.64 19.06l15.28 12.22 14.36-12.22s-8.86-1.11-14.82 5.61c-5.96-7.29-14.82-5.61-14.82-5.61zm-38.92 15.75L348 47l14.36-12.22s-8.86-1.11-14.82 5.61c-5.96-7.26-14.82-5.58-14.82-5.58z" class="cls-5"/>
        <path d="M245 21.33a2.16 2.16 0 0 1-1.26 3.06l-6.41 2.31c-.52.19-1.23-.25-1.62-1-.38-.72-.34-1.51.13-1.8l5.79-3.47a2.43 2.43 0 0 1 3.36.87z" class="cls-6"/>
        <ellipse cx="240.66" cy="24.02" class="cls-7" rx="1.38" ry="1.19"/>
        <path d="M241.17 26.34a3.7 3.7 0 0 0 1.61 1.07c1 .35 4.29 1.46 4.83.59.26-.41-.22-1.11-.52-1.42-.57-.6-1.66-.2-2.43-.74l-.45-.3c-.46-.29-.7-.43-.81-.37s.07.68-.18.92c-.45.43-2.14-.66-2.36-.38s.21.51.31.63z" class="cls-8"/>
        <ellipse cx="240.38" cy="24.22" class="cls-9" rx="1.38" ry="1.19"/>
        <path d="M248.21 22a2.16 2.16 0 0 1-1.21 3l-6.41 2.31c-.52.19-1.23-.25-1.62-1-.38-.72-.34-1.51.13-1.8l5.79-3.47a2.43 2.43 0 0 1 3.36.87z" class="cls-10"/>
        <path d="M250.39 25.93c0 1.17-1.87 2.43-3.6 2.34a4 4 0 0 1-2.68-1.41c-.71-.81-.45-1.17-1-2.18-1.22-2.06-3.55-2.61-3.35-3.18 0-.14.25-.29 1-.34a.5.5 0 0 1 .13-.41c.27-.23.89 0 1.17.15a45.54 45.54 0 0 1 5.23 2.41c2.04 1.35 3.09 2.04 3.1 2.62z" class="cls-8"/>
        <path d="M244.61 21.12a6.51 6.51 0 0 1 1.88 1.43c2.13 1.93 3.79 2.81 3.67 3s-.66-.13-1-.27c-2.58-1.08-7.66-3.7-7.3-4.44.2-.37 1.68-.2 2.75.28z" class="cls-8"/>
        <path d="M113.27 246.6l7.42 133.73L449.56 70.51 113.27 246.6z" class="cls-3"/>
        <path d="M317.84 240.1c7.78-11.21 14.77-14 19.63-14.46 12.53-1.3 19.07 11.49 35.64 10.12 7.31-.6 8.5-3.3 13.74-2 9.3 2.37 9.65 11.88 19.23 15.46 7.28 2.72 8.78-2.14 18.55-.69 11.59 1.72 14 9.24 27.82 14.43a55.09 55.09 0 0 0 17.55 3.47H270.7a13.28 13.28 0 0 1 6-6.53c4.26-2 7 .27 10.85-1.38 4.9-2.12 4.4-7.7 8.09-12.23 2.79-3.43 8.62-7 22.2-6.19zM137.27 99.39c-5.83-8.39-11.07-10.47-14.72-10.85-9.4-1-14.31 8.62-26.73 7.59-5.49-.45-6.37-2.47-10.31-1.47-7 1.78-7.24 8.91-14.43 11.59-5.46 2-6.58-1.6-13.91-.52-8.7 1.29-10.5 6.93-20.87 10.82a41.33 41.33 0 0 1-13.14 2.58h149.47a10 10 0 0 0-4.49-4.9c-3.2-1.53-5.28.2-8.14-1-3.67-1.59-3.3-5.78-6.07-9.17-2.1-2.6-6.46-5.28-16.66-4.67z" class="cls-5"/>
        <path d="M135.88 256.51l-15.19 123.82L449.56 70.51l-313.68 186z" class="cls-1"/>
        <path d="M175.26 223.31l-17.31 143.92M224.98 177l-17.32 143.92" class="cls-11 cls-12"/>
        <path d="M300.55 328.3L0 196.53 449.51 70.42 300.55 328.3z" class="cls-2"/>
        <g class="cls-13">
          <path d="M41.42 177l311.15 131.07M76.28 141.81l311.15 131.07M111.14 106.61l311.15 131.08M146 71.42L457.14 202.5M180.86 36.23L492 167.31M215.72 1.04l311.14 131.08" class="cls-14"/>
          <path d="M4.23 238.38l261.34-130.3" class="cls-15"/>
        </g>
        <path d="M297.19 216.76c-19 4.43-43.65-2.14-46.74-13.86-4.19-15.86 31.76-38.7 55.95-49.31 26-11.39 63.18-18.89 68-8.83 2.5 5.17-11.82 18.56-40.34 45.27-22.66 21.26-28.94 24.88-36.87 26.73z" class="cls-16"/>
        <path d="M162.67 197.67c-2.53-3.38-6.3-8.43-5.94-14.17 1.51-23.76 72.28-33.66 78.11-33.9a83.94 83.94 0 0 1 12.17.49c5.54.63 10.55 1.21 16.31 3.88 6 2.8 10.32 4.79 10.76 7.75 1.16 7.69-25.34 10.45-57 32.18-14.41 9.9-20.77 17.47-32.33 16.69-7.75-.52-16.49-5.44-22.08-12.92z" class="cls-17"/>
        <path d="M449.56 70.51l-313.68 186-22.61-9.91L449.56 70.51z" class="cls-3"/>
        <path d="M154.94 223.31v121.58m52.58-152.1v121.57m53.33-162.6v121.57m105.94-170.61V224.3" class="cls-18 cls-19"/>
        <path d="M281.39 176.9a2.38 2.38 0 0 1-.93 1.52 2.57 2.57 0 0 1-1.12.25 22 22 0 0 1-2.62.06 28.7 28.7 0 0 0-2.9-.19 11.48 11.48 0 0 0-1.57.21 12.46 12.46 0 0 0-2.11.53 12 12 0 0 1-2.93 1.07.58.58 0 0 1-.54-.15c-.15-.2 0-.49.13-.7l.82-1.21a4.17 4.17 0 0 1-1.42.48 2.64 2.64 0 0 1 .73-1.6 7.86 7.86 0 0 1 1.39-1.13 3.42 3.42 0 0 1-1 .26.4.4 0 0 1-.37-.09c-.11-.14 0-.35.13-.48a6.24 6.24 0 0 1 1-.81l1.34-.94a6.24 6.24 0 0 1 1.41-.82 5.88 5.88 0 0 1 2-.26 16.11 16.11 0 0 1 6.89 1.13c.33.15.65.33 1 .48s.72.21.9.43c.38.39-.11 1.53-.23 1.96z" class="cls-20"/>
        <path d="M222.44 68.87c.42-.85.81-1.54 1.08-2 .44.12 1.16.29 2.06.44s1.37.18 1.69.22c1.82.22 5.3.57 14.67 1.18a23.58 23.58 0 0 1 1.76 2.1 22.86 22.86 0 0 1 3.71 7.58c3.77 13.17 4.5 17.31 4.5 17.31 3.52 17.07 5.28 25.61 5.93 27 1.12 2.45 4.18 8.57 1.85 14.12-.14.33-.27.59-.36.76l-.35.21a15.32 15.32 0 0 1-3.72 1.78 8.22 8.22 0 0 1-3.09.22 6.25 6.25 0 0 1-1.19-1.48 8 8 0 0 1-.71-5.23c.42-2.81-1-6.35-11.22-29.17-.41-.91-1.06-2.38-2-4.32q-2.26-4.83-4.59-9.32c.34 3.76.7 7.19 1 10.24.63 5.61.9 7.08 1.13 10.47.43 6.38-.23 5.34.2 10.26.55 6.25 1.8 10.08-.49 14.15a11.13 11.13 0 0 1-.62 1 5.14 5.14 0 0 1-4.55 1.25 4.77 4.77 0 0 1-2.69-2 7.5 7.5 0 0 1-1.33-2.63 8 8 0 0 1 0-3.76c.83-4.25.24-9.15-.83-17.93-1.23-11-1.85-16.45-2.51-19.28-1.22-5.22-3.18-10-2-16.27a23.57 23.57 0 0 1 2.67-6.9z" class="cls-21"/>
        <path d="M259.7 136.85a8.93 8.93 0 0 1-7.52 3c.78 3.45 1.54 6.2 2.08 8.08 1.17 4 2.19 6.79 2.48 11.07.06.92.07 1.68.07 2.18h3.95l.66-.74 1 .7h10a.92.92 0 0 0 .88-1.21l-4-1.26a11.24 11.24 0 0 1-7.76-9.24c-.38-2.89-.83-6.08-1.2-8.37q-.27-2.15-.64-4.21zm-32.82-.79l6.87.35c-.5 3-.91 5.74-1.24 8.11s-.55 4.13.46 4.86a2.33 2.33 0 0 0 1.86.22.84.84 0 0 1 .57 1.36l-2.89 3.73a12.62 12.62 0 0 1-1.8 2.4 2.76 2.76 0 0 1-1.29.52 2.73 2.73 0 0 1-1.77-.23 2.39 2.39 0 0 1-1-1c.2-2.79.26-5.06.27-6.57 0-3-.08-4.6-.11-9 .05-2.1.06-3.73.07-4.75z" class="cls-9"/>
        <path d="M241.84 38.87c-5.56.6-10-.27-15.1-1.25a39.25 39.25 0 0 1-6.66-1.82 37.23 37.23 0 0 1-6.61-3.28 32 32 0 0 0 5.77-1.52 32 32 0 0 0 4-1.81 4.35 4.35 0 0 1-.25-.8 4.78 4.78 0 0 1 .29-2.81 41.36 41.36 0 0 0-5 .75 37.08 37.08 0 0 0-5.15 1.46 34.1 34.1 0 0 0-6.11 3 1.62 1.62 0 0 0-.56 2.18 26.44 26.44 0 0 0 1.8 2.72c2 2.59 4 4.21 8.17 7.43a25.83 25.83 0 0 0 3.9 2.57c.78.41 1.44.71 1.9.91a34.89 34.89 0 0 1 .45 21.61 19.38 19.38 0 0 0 7.6 3.12A20.8 20.8 0 0 0 244 68.85c-2.56-2.89-3-5.14-2.79-6.68.47-3.48 3.62-4.87 4.09-8.77a9.24 9.24 0 0 0-1.3-5.64c.47-.11 1-.25 1.57-.4l.61-.17a39.39 39.39 0 0 0 10.64-5 32.2 32.2 0 0 0 7.64-7.7 1.9 1.9 0 0 0-.52-2.7c-1.68-1.09-3.56-2.2-5.63-3.28a67.53 67.53 0 0 0-9.15-3.93l-2.35 3.68 10 5.53a36.89 36.89 0 0 1-14.97 5.08z" class="cls-22"/>
        <path d="M235.79 24.48a5.16 5.16 0 0 1-.73.39 5.48 5.48 0 0 0-1.92 1.32c-.9 1.09.24 2.4-.11 4.85a7.47 7.47 0 0 0-.06 1.91 7.17 7.17 0 0 0 .15.9c.16.72.11 2.3-.65 5.91l1-.57 2.75-2c1.8-2.08 2.23-2.45 1.95-3.5-.34-1.26-.93-3.46-.89-3.56.53-.89 1.41-1.28.47-1.93-.54-.37-.94-.63-1.08-.7-.46-.26-.89-.93-.88-3.02z" class="cls-8"/>
        <path d="M309.57 129.63a5 5 0 0 0-3.49-.77 5.34 5.34 0 0 0-3.51 2.23q-3.23 5-6.47 10.12-3 4.71-5.94 9.4L276 173.91a10.79 10.79 0 0 0 6 2l12.07-15.75q2.89-3.77 5.78-7.83c4-5.57 7.53-11 10.75-16.31a4.61 4.61 0 0 0-1.03-6.39z" class="cls-23"/>
        <path d="M233.21 26.11A31.68 31.68 0 0 1 235 39.22v.43a9.29 9.29 0 0 1-11.62 8.21l-.57-.18h-.1a6 6 0 0 1-3.34-8.45 22.91 22.91 0 0 0 2-5.76c1-4.94-.15-7.91 2.31-10.42a11.24 11.24 0 0 1 5.75-2.68 5.88 5.88 0 0 1 3.33.06 6.23 6.23 0 0 1 2.24 1.48 6.57 6.57 0 0 1 1.46 2.38 10.09 10.09 0 0 0-3.21 1.82z" class="cls-6"/>
        <path d="M240.43 25.65c.28.55.23 1.13-.11 1.28s-.85-.17-1.14-.72-.23-1.13.11-1.28.86.16 1.14.72z" class="cls-7"/>
        <path d="M352.88 144c2.42-.05 6.44-.9 7.7-1 .94-.07 2.27.59 3.86 0 .77-2 .06-3.72.21-5a50.5 50.5 0 0 0 .74-7.45 1.47 1.47 0 0 0-1.47-1.41 1.47 1.47 0 0 0-1.41 1.05l-.86 2.9c-.39 1.31-2 2.94-3.31 2.44-1.89-.76-4.06-2.46-6-3.22a15 15 0 0 1 2 6c.06 1.27-2.28 4.83-1.46 5.69z" class="cls-24"/>
        <path d="M370.26 139c.19.36 1.63 3.25.29 5.2-.59.86-1.59 1.34-3.76 1.66a24.13 24.13 0 0 1-10.59-.86c-5.42-1.71-8.14-2.57-9.16-5.25-1.09-2.85.18-6.65 2.95-8.78a8.49 8.49 0 0 1 9.24-.66z" class="cls-25"/>
        <path d="M342.74 131.37c-1.64-2.11-5.31-2-8.2.23a8.44 8.44 0 0 0-2.27 2.66l-.07-.06-18.2 19.58 10 9.27 16.15-17.41.84.57c4.13 2.73 6.27 3.56 9.08 3a13.44 13.44 0 0 0 4.85-2.13z" class="cls-26"/>
        <path d="M321.83 120.84c.27.92-.65 1.59-.7 3.69a8.11 8.11 0 0 0 .7 3.44c-5.55 2.13-10.26 2.31-11.47.4-.51-.81-.46-2.09-.4-3.7.07-1.8.12-3.27.88-4.33 2.24-3.16 10.28-1.95 10.99.5z" class="cls-20"/>
        <path d="M319.06 105.83a24.89 24.89 0 0 1 4.08 6.38c.11.29.13.43.73.75s1.39.45 1.24.89-1 1-1.12 1.4l.84 6.13-2.46 1-8.37 3.22c.1-.33 3.15-8.64 3.13-9.12s-.12-1.47.43-1.73 1.43-5.11 1.69-5.76a2.45 2.45 0 0 0 0-1.72c-.08-.88-.19-1.44-.19-1.44z" class="cls-20"/>
        <path d="M305.16 121.61c.94 1 3.05 3.14 6.16 3 3.43-.12 6.67-3 6.78-5.44.05-1.11-.53-1.88-.27-3.84.13-.94.47-2.28 1-2.32s.89 1.32 1.25 1.25.33-1.56.33-2.41c0-3.75.79-4 .47-5.44-.6-2.85-3.72-4.37-4.11-4.55-3.87-1.83-7.83.28-8.48.62-4.74 2.52-6.91 8.42-6.07 13.21a11.22 11.22 0 0 0 2.94 5.92z" class="cls-7"/>
        <path d="M297.71 113.23a6.28 6.28 0 0 0 4.63 2.28c2.57-.09 5-2.22 5.1-4.09 0-.84-.4-1.41-.2-2.88.1-.71.35-1.71.74-1.74s.67 1 .94.94.25-1.17.25-1.81c0-2.82.59-3 .36-4.09-.45-2.14-2.79-3.28-3.08-3.42-2.91-1.37-5.89.21-6.37.47-3.56 1.89-5.19 6.32-4.56 9.92a8.43 8.43 0 0 0 2.19 4.42z" class="cls-7"/>
        <path d="M304.08 159.88v2.49a12.89 12.89 0 0 0 8 11.91l5.27 1a18.83 18.83 0 0 0 19-1.1 98.68 98.68 0 0 0 15.6-20l3.84-6.26a31.27 31.27 0 0 0 4.87-9.66c1.22-4.1.59-5.22.25-5.65-1.6-2.09-5.85-1.12-6.61-1a10.35 10.35 0 0 0-5.07 2.66l-27.83 27.17z" class="cls-27"/>
        <path d="M383.23 118a5 5 0 0 1 1.06-.4 9.7 9.7 0 0 1 1.4-.31s.81-.14 2.65-.49c.45-.09 1.11-.22 1.91-.4a1.14 1.14 0 0 1-.07.7c-.13.28-.36.4-.75.61s-1.5.81-2.18 1.23l-.41.26.13.47a8.39 8.39 0 0 1 .4 1.5 1.8 1.8 0 0 1-.09.86.89.89 0 0 1-.6.58.7.7 0 0 0-.35.11c-.14.13-.06.36-.08.55a.55.55 0 0 1-.66.46 1.2 1.2 0 0 1-.49.69 1.21 1.21 0 0 1-.92.16l-.86-1.41-.62.45a2.51 2.51 0 0 1-.73.52 2.25 2.25 0 0 1-1.09.23 1.94 1.94 0 0 1-1.2-.45 2 2 0 0 1-.63-1.44 6.07 6.07 0 0 1 .15-1.59.93.93 0 0 1 .48-.78c.4-.24.77-.51 1.16-.76q1.16-.71 2.39-1.35z" class="cls-20"/>
        <path d="M380.19 119.88q-3.12.93-6.34 1.82c-6.59 1.81-13 3.32-19.18 4.57-4.89.38-10.07.62-15.52.68q-5.57.06-10.75-.14a53.94 53.94 0 0 0-9.57-.7s-7.47.08-12.85 2.13h-.1a7.16 7.16 0 0 0-4.29 8.43c.52 2.13.91 4.05 1.2 5.71a61.48 61.48 0 0 1 1.14 10.24 57.84 57.84 0 0 1-.44 8.29c3 .62 4.75 1 6.89 1.39a42.32 42.32 0 0 0 5.84.69c3.08.08 9.15.25 11.73-3.13 1.73-2.26.19-3.86 2-10.32a10.13 10.13 0 0 1 1.59-3.62c.72-1 1.28-1.65 1.39-1.78.52-.62.67-2.16-.91-6.15a79.57 79.57 0 0 0 19.67-2.14c3.13-.75 5.64-1.57 6.13-1.74 5.52-1.82 8.14-3.39 14.61-6.19 2-.88 5-2.13 8.72-3.53z" class="cls-28"/>
        <path d="M365 146.1c2.42-.05 6.44-.9 7.7-1 .94-.07 2.27.59 3.86 0 .77-2 .06-3.72.21-5a50.5 50.5 0 0 0 .74-7.45 1.47 1.47 0 0 0-1.47-1.41 1.47 1.47 0 0 0-1.41 1.05l-.86 2.9c-.39 1.31-2 2.94-3.31 2.44-1.89-.76-4.06-2.46-6-3.22a15 15 0 0 1 2 6c.06 1.22-2.28 4.78-1.46 5.69z" class="cls-24"/>
      </g>
    </g>
  </g>
</svg>