<svg height="496pt" viewBox="0 0 496 496" width="496pt" xmlns="http://www.w3.org/2000/svg"><path d="m488 144c0 75.109375-60.890625 136-136 136s-136-60.890625-136-136 60.890625-136 136-136 136 60.890625 136 136zm0 0" fill="#b4dd7f"/><path d="m280 144v72h144v-72l-72-80zm0 0" fill="#e6e9ed"/><path d="m338.34375 45.65625-77.375 77.375c-3.183594 3.183594-4.96875 7.496094-4.96875 12 0 9.367188 7.601562 16.96875 16.96875 16.96875 4.503906 0 8.816406-1.785156 12-4.96875l67.03125-67.03125 67.03125 67.03125c3.183594 3.183594 7.496094 4.96875 12 4.96875 9.367188 0 16.96875-7.601562 16.96875-16.96875 0-4.503906-1.785156-8.816406-4.96875-12l-77.375-77.375c-3.625-3.625-8.535156-5.65625-13.65625-5.65625s-10.03125 2.03125-13.65625 5.65625zm0 0" fill="#ff826e"/><path d="m328 216v-40c0-13.257812 10.742188-24 24-24s24 10.742188 24 24v40zm0 0" fill="#cf9e76"/><path d="m280 352c0 75.109375-60.890625 136-136 136s-136-60.890625-136-136 60.890625-136 136-136 136 60.890625 136 136zm0 0" fill="#e6e9ed"/><path d="m80 328h128v112h-128zm0 0" fill="#cf9e76"/><path d="m96 264h96v64h-96zm0 0" fill="#ecc19c"/><path d="m120 328h48v32h-48zm0 0" fill="#b27946"/><path d="m120 408h48v32h-48zm0 0" fill="#b27946"/><path d="m96 312h96v16h-96zm0 0" fill="#dfb28b"/><path d="m161.007812 58.894531 14.78125-6.125 6.125 14.785157-14.785156 6.121093zm0 0"/><path d="m125.78125 79.492188 13.304688-8.890626 8.890624 13.304688-13.304687 8.890625zm0 0"/><path d="m95.261719 106.578125 11.3125-11.3125 11.3125 11.3125-11.3125 11.3125zm0 0"/><path d="m70.605469 139.089844 8.882812-13.296875 13.304688 8.890625-8.886719 13.292968zm0 0"/><path d="m52.769531 175.789062 6.125-14.78125 14.777344 6.125-6.125 14.78125zm0 0"/><path d="m42.429688 215.253906 3.117187-15.683594 15.691406 3.117188-3.113281 15.683594zm0 0"/><path d="m277.601562 437.894531 15.695313-3.121093 3.117187 15.683593-15.691406 3.121094zm0 0"/><path d="m314.078125 428.441406 14.785156-6.121094 6.121094 14.78125-14.78125 6.121094zm0 0"/><path d="m348 412.070312 13.300781-8.890624 8.890625 13.300781-13.300781 8.890625zm0 0"/><path d="m378.105469 389.421875 11.3125-11.3125 11.316406 11.3125-11.316406 11.3125zm0 0"/><path d="m403.183594 361.34375 8.882812-13.296875 13.304688 8.890625-8.886719 13.296875zm0 0"/><path d="m422.308594 328.875 6.125-14.78125 14.78125 6.125-6.125 14.78125zm0 0"/><path d="m272 159.902344v64.097656h160v-64.097656c13.3125-.519532 24-11.4375 24-24.871094 0-6.574219-2.664062-13.007812-7.3125-17.65625l-77.367188-77.375c-10.3125-10.3125-28.328124-10.3125-38.632812 0l-77.375 77.375c-4.648438 4.648438-7.3125 11.082031-7.3125 17.65625 0 13.433594 10.6875 24.34375 24 24.871094zm96 48.097656h-32v-32c0-8.824219 7.175781-16 16-16s16 7.175781 16 16zm16 0v-32c0-17.648438-14.351562-32-32-32s-32 14.351562-32 32v32h-32v-53.152344c.894531-.6875 1.816406-1.34375 2.625-2.160156l61.375-61.375 61.375 61.375c.816406.816406 1.730469 1.472656 2.625 2.160156v53.152344zm-117.375-79.3125 77.375-77.375c4.265625-4.28125 11.71875-4.28125 16 0l77.375 77.375c1.664062 1.671875 2.625 3.984375 2.625 6.34375 0 4.945312-4.023438 8.96875-8.96875 8.96875-2.398438 0-4.648438-.929688-6.34375-2.625l-72.6875-72.6875-72.6875 72.6875c-1.695312 1.695312-3.945312 2.625-6.34375 2.625-4.945312 0-8.96875-4.023438-8.96875-8.96875 0-2.359375.960938-4.671875 2.625-6.34375zm0 0"/><path d="m352 288c79.398438 0 144-64.601562 144-144s-64.601562-144-144-144-144 64.601562-144 144 64.601562 144 144 144zm0-272c70.574219 0 128 57.425781 128 128s-57.425781 128-128 128-128-57.425781-128-128 57.425781-128 128-128zm0 0"/><path d="m144 208c-79.398438 0-144 64.601562-144 144s64.601562 144 144 144 144-64.601562 144-144-64.601562-144-144-144zm0 272c-70.574219 0-128-57.425781-128-128s57.425781-128 128-128 128 57.425781 128 128-57.425781 128-128 128zm0 0"/><path d="m200 256h-112v64h-16v128h144v-128h-16zm-96 16h16v16h16v-16h16v16h16v-16h16v48h-80zm24 64h32v16h-32zm32 96h-32v-16h32zm40 0h-24v-32h-64v32h-24v-96h24v32h64v-32h24zm0 0"/><path d="m388.847656 304.648438 6.304688 14.703124 47.65625-20.421874 13.503906 47.261718 15.375-4.382812-18.496094-64.738282zm0 0"/><path d="m176.648438 100.847656 14.703124 6.304688 27.578126-64.34375-64.730469-18.503906-4.398438 15.390624 47.269531 13.496094zm0 0"/></svg>