<svg height="496pt" viewBox="0 -59 496 495" width="496pt" xmlns="http://www.w3.org/2000/svg"><path d="m440 224.5h-376l-8 64h368zm0 0" fill="#ff826e"/><path d="m112 40.5h216v184h-248zm0 0" fill="#e6e9ed"/><g fill="#ccd1d9"><path d="m328 56.5v-16h-216l-2.785156 16zm0 0"/><path d="m82.785156 208.5-2.785156 16h248v-16zm0 0"/><path d="m328 224.5v-184h-43.550781c-2.753907 4.726562-4.449219 10.144531-4.449219 16v168zm0 0"/></g><path d="m472 224.5v-86.679688c0-6.089843-1.734375-12.046874-5-17.183593l-46.28125-72.730469c-2.941406-4.613281-8.03125-7.40625-13.503906-7.40625h-95.214844c-8.839844 0-16 7.160156-16 16v168zm0 0" fill="#ff826e"/><path d="m296 208.5h176v16h-176zm0 0" fill="#fc6e51"/><path d="m440 224.5h-19.519531l-9.601563 48h-352.878906l-2 16h368zm0 0" fill="#fc6e51"/><path d="m420.480469 224.5h51.519531v-32h-45.121094zm0 0" fill="#fc6e51"/><path d="m400 288.5h24l16-80h32c8.839844 0 16 7.160156 16 16l-24 112h-416c-4.414062 0-8-3.585938-8-8v-32c0-4.414062 3.585938-8 8-8zm0 0" fill="#fcd770"/><path d="m216 312.5c0 30.929688-25.070312 56-56 56s-56-25.070312-56-56 25.070312-56 56-56 56 25.070312 56 56zm0 0" fill="#656d78"/><path d="m184 312.5c0 13.253906-10.746094 24-24 24s-24-10.746094-24-24 10.746094-24 24-24 24 10.746094 24 24zm0 0" fill="#aab2bd"/><path d="m408 312.5c0 30.929688-25.070312 56-56 56s-56-25.070312-56-56 25.070312-56 56-56 56 25.070312 56 56zm0 0" fill="#656d78"/><path d="m376 312.5c0 13.253906-10.746094 24-24 24s-24-10.746094-24-24 10.746094-24 24-24 24 10.746094 24 24zm0 0" fill="#aab2bd"/><path d="m328 160.5h112v-24l-40-64h-72zm0 0" fill="#e6e9ed"/><path d="m88 40.5h256v-32h-248zm0 0" fill="#fcd770"/><path d="m160 280.5c-17.648438 0-32 14.351562-32 32s14.351562 32 32 32 32-14.351562 32-32-14.351562-32-32-32zm0 48c-8.824219 0-16-7.175781-16-16s7.175781-16 16-16 16 7.175781 16 16-7.175781 16-16 16zm0 0"/><path d="m352 280.5c-17.648438 0-32 14.351562-32 32s14.351562 32 32 32 32-14.351562 32-32-14.351562-32-32-32zm0 48c-8.824219 0-16-7.175781-16-16s7.175781-16 16-16 16 7.175781 16 16-7.175781 16-16 16zm0 0"/><path d="m480 201.972656v-64.152344c0-7.625-2.167969-15.054687-6.257812-21.480468l-46.285157-72.734375c-4.433593-6.960938-12-11.113281-20.242187-11.113281h-55.214844v-31.992188h-262.246094l-12 48h24.734375l-2.785156 16h-67.703125v16h64.921875l-5.570313 32h-59.351562v16h56.574219l-5.566407 32h-51.007812v16h48.222656l-6.957031 40h-16.328125l-8 64h-.9375c-8.824219 0-16 7.175781-16 16v32c0 8.824219 7.175781 16 16 16h56.65625c11.085938 19.097656 31.710938 32 55.34375 32s44.257812-12.902344 55.34375-32h81.320312c11.089844 19.097656 31.710938 32 55.34375 32 23.632813 0 44.257813-12.902344 55.34375-32h63.128907l25.351562-118.320312.167969-1.679688c0-10.414062-6.710938-19.214844-16-22.527344zm-72.785156-153.472656c2.746094 0 5.273437 1.382812 6.746094 3.703125l46.285156 72.738281c2.457031 3.847656 3.753906 8.300782 3.753906 12.878906v62.679688h-30.558594l-3.203125 16h-126.238281v-160c0-4.414062 3.59375-8 8-8zm-304.96875-32h233.753906v16h-237.753906zm16.480468 32h170.746094c-.898437 2.511719-1.472656 5.183594-1.472656 8v160h-198.488281zm-47.664062 184h355.976562l-9.597656 48h-10.105468c-11.089844-19.097656-31.710938-32-55.34375-32-23.632813 0-44.257813 12.902344-55.34375 32h-81.304688c-11.085938-19.097656-31.710938-32-55.34375-32s-44.257812 12.902344-55.34375 32h-39.601562zm-23.0625 96v-32h50.105469c-1.328125 5.128906-2.105469 10.464844-2.105469 16s.777344 10.871094 2.105469 16zm112 32c-26.472656 0-48-21.527344-48-48s21.527344-48 48-48 48 21.527344 48 48-21.527344 48-48 48zm61.894531-32c1.328125-5.128906 2.105469-10.464844 2.105469-16s-.777344-10.871094-2.105469-16h68.21875c-1.335937 5.128906-2.113281 10.464844-2.113281 16s.777344 10.871094 2.105469 16zm130.105469 32c-26.472656 0-48-21.527344-48-48s21.527344-48 48-48 48 21.527344 48 48-21.527344 48-48 48zm105.527344-32h-43.640625c1.335937-5.128906 2.113281-10.464844 2.113281-16s-.777344-10.871094-2.105469-16h16.664063l16-80h25.441406c4.175781 0 7.617188 3.207031 7.96875 7.296875zm0 0"/><path d="m448 134.203125-43.566406-69.703125h-84.433594v104h128zm-16 18.296875h-96v-72h59.566406l36.433594 58.296875zm0 0"/><path d="m320 184.5h48v16h-48zm0 0"/><path d="m0 64.5h16v16h-16zm0 0"/><path d="m0 112.5h16v16h-16zm0 0"/><path d="m0 160.5h16v16h-16zm0 0"/></svg>