<svg height="496pt" viewBox="0 0 496 496" width="496pt" xmlns="http://www.w3.org/2000/svg"><path d="m224 312-48 48-48-48-81.414062 16.28125c-22.433594 4.488281-38.585938 24.191406-38.585938 47.070312v112.648438h368v-144zm0 0" fill="#f0d0b4"/><path d="m72 488v-64l-16 64zm0 0" fill="#ecc19c"/><path d="m280 488v-64l16 64zm0 0" fill="#ecc19c"/><path d="m280 432v-108.207031l-56-11.792969-48 48-48-48-80 16-1.414062.28125c-22.433594 4.488281-38.585938 24.191406-38.585938 47.070312v64.648438h64v48h208zm0 0" fill="#fcd770"/><path d="m280 433.703125v-109.910156l-26.886719-5.664063c-8.320312 17.589844-13.113281 37.160156-13.113281 57.871094 0 37.550781 15.304688 71.601562 40 96.230469zm0 0" fill="#ffc729"/><path d="m224 312-48 48-48-48v-48h96zm0 0" fill="#f0d0b4"/><path d="m128 297.816406c13.871094 9.007813 30.367188 14.183594 48 14.183594s34.128906-5.175781 48-14.183594v-33.816406h-96zm0 0" fill="#ecc19c"/><path d="m112.679688 383.320312c15.257812-15.257812 34.382812-26.089843 55.320312-31.320312l-40-40-24 4.800781v3.199219l8 64zm0 0" fill="#ffeaa7"/><path d="m224 312-40 40c20.9375 5.230469 40.0625 16.0625 55.320312 31.320312l.679688.679688 8-64v-2.945312zm0 0" fill="#ffeaa7"/><path d="m144 40c0-17.671875 14.328125-32 32-32s32 14.328125 32 32v8h-64zm0 0" fill="#fcd770"/><path d="m208 40c0-5.046875-1.273438-9.769531-3.359375-14.015625-6.695313-1.25-13.585937-1.984375-20.640625-1.984375h-16c-7.054688 0-13.945312.734375-20.640625 1.984375-2.085937 4.246094-3.359375 8.96875-3.359375 14.015625v8h64zm0 0" fill="#ffc729"/><path d="m488 376c0 61.855469-50.144531 112-112 112s-112-50.144531-112-112 50.144531-112 112-112 112 50.144531 112 112zm0 0" fill="#e6e9ed"/><path d="m72 136h208v72h-208zm0 0" fill="#838f9b"/><path d="m136 184h80c26.472656 0 48-21.527344 48-48h-176c0 26.472656 21.527344 48 48 48zm0 0" fill="#656d78"/><path d="m72 136h208v16h-208zm0 0" fill="#656d78"/><path d="m248 176v-40h-144v40c-17.671875 0-32 14.328125-32 32s14.328125 32 32 32h1.847656c7.289063 32.054688 35.894532 56 70.152344 56s62.871094-23.945312 70.152344-56h1.847656c17.671875 0 32-14.328125 32-32s-14.328125-32-32-32zm0 0" fill="#f0d0b4"/><path d="m216 184c12.304688 0 23.496094-4.6875 32-12.320312v-35.679688h-144v35.679688c8.503906 7.632812 19.695312 12.320312 32 12.320312zm0 0" fill="#ecc19c"/><path d="m312 320h128v112h-128zm0 0" fill="#cf9e76"/><path d="m352 320h48v32h-48zm0 0" fill="#dfb28b"/><path d="m352 400h48v32h-48zm0 0" fill="#dfb28b"/><path d="m248 136c0 17.671875-14.328125 32-32 32h-80c-17.671875 0-32-14.328125-32-32zm0 0" fill="#ffeaa7"/><path d="m8 424h64v32h-64zm0 0" fill="#ffeaa7"/><path d="m280 136h-208c0-53.015625 42.984375-96 96-96h16c53.015625 0 96 42.984375 96 96zm0 0" fill="#fcd770"/><path d="m72 424-8 32h8zm0 0" fill="#ffc729"/><path d="m224 136c0-31.015625-10.871094-61.046875-30.726562-84.871094l-9.273438-11.128906h-16l-9.273438 11.128906c-19.855468 23.824219-30.726562 53.855469-30.726562 84.871094zm0 0" fill="#e6e9ed"/><path d="m240 376c0 1.921875.207031 3.792969.289062 5.6875l5.480469-43.863281c-3.609375 12.128906-5.769531 24.878906-5.769531 38.175781zm0 0" fill="#fcd770"/><path d="m224 184c0 4.417969-3.582031 8-8 8s-8-3.582031-8-8 3.582031-8 8-8 8 3.582031 8 8zm0 0"/><path d="m144 184c0 4.417969-3.582031 8-8 8s-8-3.582031-8-8 3.582031-8 8-8 8 3.582031 8 8zm0 0"/><path d="m176 264c17.648438 0 32-14.351562 32-32h-16c0 8.824219-7.175781 16-16 16s-16-7.175781-16-16h-16c0 17.648438 14.351562 32 32 32zm0 0"/><path d="m469.003906 328.8125 14.78125-6.125 6.125 14.78125-14.78125 6.125zm0 0"/><path d="m443.882812 296.804688 11.3125-11.3125 11.3125 11.3125-11.3125 11.3125zm0 0"/><path d="m431.761719 302.0625-6.632813-26.535156 19.3125-12.871094-8.882812-13.3125-28.6875 19.128906 9.367187 37.464844zm0 0"/><path d="m496 376c0-2.871094-.105469-5.742188-.304688-8.566406l-15.960937 1.140625c.175781 2.449219.265625 4.929687.265625 7.425781 0 28.175781-11.089844 54.558594-31.214844 74.289062l5.597656 5.710938-5.597656-5.710938c-19.554687 19.160157-45.402344 29.710938-72.785156 29.710938-57.34375 0-104-46.65625-104-104s46.65625-104 104-104c4.953125 0 9.953125.351562 14.871094 1.054688l2.25-15.839844c-5.65625-.808594-11.425782-1.214844-17.121094-1.214844-43.367188 0-81.320312 23.199219-102.398438 57.761719l-41.601562-8.320313v-24.410156c9.359375-9.191406 16.488281-20.648438 20.457031-33.488281 19.933594-2.238281 35.542969-19.015625 35.542969-39.542969v-72c0-46.289062-30.414062-85.585938-72.304688-99.023438-1.574218-20.625-18.679687-36.976562-39.695312-36.976562s-38.121094 16.351562-39.695312 36.976562c-41.890626 13.4375-72.304688 52.734376-72.304688 99.023438v72c0 20.527344 15.609375 37.304688 35.542969 39.550781 3.960937 12.839844 11.089843 24.289063 20.457031 33.488281v24.410157l-74.984375 14.992187c-26.078125 5.214844-45.015625 28.320313-45.015625 54.910156v120.648438h376c31.601562 0 61.425781-12.175781 83.984375-34.289062 23.222656-22.757813 36.015625-53.199219 36.015625-85.710938zm-224 59.617188v44.382812h-88v-116.6875l2.328125-2.328125c17.847656 5.230469 34.152344 14.808594 47.320313 27.976563l12.246093 12.320312 9.363281-74.875 10.574219 2.113281c-6.304687 14.578125-9.832031 30.617188-9.832031 47.480469 0 21.703125 5.878906 42.023438 16 59.617188zm-208 12.382812h-48v-16h48zm-13.984375-112.246094 46.726563-9.347656 9.363281 74.875 12.230469-12.304688c13.183593-13.183593 29.488281-22.769531 47.335937-27.992187l2.328125 2.328125v116.6875h-88v-61.089844c0-30.503906-10.679688-59.734375-29.984375-83.15625zm189.511719-12.488281-5.574219 44.589844c-10.527344-8.328125-22.328125-14.925781-34.929687-19.566407l27.601562-27.601562zm-67.785156-275.265625h8.515624l6.871094 8.246094c16.902344 20.289062 26.824219 45.515625 28.519532 71.753906h-79.296876c1.695313-26.238281 11.617188-51.464844 28.519532-71.761719zm66.785156 96c-3.3125 9.289062-12.113282 16-22.527344 16h-80c-10.414062 0-19.214844-6.710938-22.527344-16zm17.136718 86.632812c.183594-2.191406.335938-4.394531.335938-6.632812v-38.527344c9.289062 3.3125 16 12.113282 16 22.527344 0 10.535156-6.871094 19.414062-16.335938 22.632812zm16.335938-54.425781c-4.671875-3.535156-10.054688-6.183593-16-7.390625v-24.816406h16zm-.359375-48.207031h-39.992187c-1.625-28.304688-11.808594-55.535156-29.183594-77.984375 37.144531 7.976563 65.679687 39.390625 69.175781 77.984375zm-95.640625-112c10.855469 0 19.945312 7.289062 22.894531 17.191406-4.878906-.703125-9.824219-1.191406-14.894531-1.191406h-16c-5.070312 0-10.015625.488281-14.894531 1.191406 2.949219-9.902344 12.039062-17.191406 22.894531-17.191406zm-26.472656 34.015625c-17.375 22.449219-27.550782 49.679687-29.175782 77.984375h-39.992187c3.496094-38.59375 32.03125-70.007812 69.167969-77.984375zm-53.527344 93.984375v24.808594c-5.945312 1.214844-11.328125 3.855468-16 7.390625v-32.199219zm-16 64c0-10.414062 6.710938-19.214844 16-22.527344v38.527344c0 2.238281.152344 4.441406.335938 6.632812-9.464844-3.21875-16.335938-12.097656-16.335938-22.632812zm32 16v-56.207031c6.703125 5.078125 14.960938 8.207031 24 8.207031h80c9.039062 0 17.296875-3.128906 24-8.207031v56.207031c0 35.289062-28.710938 64-64 64s-64-28.710938-64-64zm64 80c14.574219 0 28.214844-3.984375 40-10.824219v15.511719l-40 40-40-40v-15.511719c11.785156 6.839844 25.425781 10.824219 40 10.824219zm-50.632812 16.679688 27.601562 27.601562c-12.601562 4.640625-24.394531 11.238281-34.929688 19.566406l-5.574218-44.589844zm-91.054688 21.175781c18.488281 20.441406 28.855469 46.664062 29.550781 74.144531h-47.863281v-40.648438c0-13.832031 7.222656-26.273437 18.3125-33.496093zm-18.3125 122.144531h48v16h-48zm272 16v-22.6875c8.246094 8.917969 17.792969 16.589844 28.390625 22.6875zm0 0"/><path d="m304 440h144v-128h-144zm88-16h-32v-16h32zm-32-96h32v16h-32zm-40 0h24v32h64v-32h24v96h-24v-32h-64v32h-24zm0 0"/><path d="m96 416h56v16h-56zm0 0"/></svg>