<svg height="493pt" viewBox="-32 0 493 493.656" width="493pt" xmlns="http://www.w3.org/2000/svg"><path d="m350.761719 205.65625h-280v64l19.199219 216h249.597656l19.203125-216zm0 0" fill="#fc6e51"/><path d="m70.761719 205.65625v64l19.199219 216h60.800781l-24-280zm0 0" fill="#ff826e"/><path d="m350.761719 205.65625h-224l3 34.984375 28.132812 45.015625h199.441407l1.425781-16zm0 0" fill="#e9573f"/><path d="m374.761719 205.65625h-248l40 64h248zm0 0" fill="#e6e9ed"/><path d="m129.03125 232.199219-2.269531-26.542969h-56v64l1.421875 16h23.441406zm0 0" fill="#fc6e51"/><path d="m14.761719 269.65625h72l40-64h-72zm0 0" fill="#e6e9ed"/><path d="m318.761719 373.65625c0 39.765625-32.238281 72-72 72-39.765625 0-72-32.234375-72-72s32.234375-72 72-72c39.761719 0 72 32.234375 72 72zm0 0" fill="#e6e9ed"/><path d="m318.761719 157.65625 40-40h16c8.839843 0 16-7.160156 16-16s-7.160157-16-16-16h-8v-8c0-8.839844-7.160157-16-16-16-8.839844 0-16 7.160156-16 16v16l-40 40zm0 0" fill="#f5e0cd"/><path d="m214.761719 165.65625c20.484375-20.488281 48.277343-32 77.253906-32h2.746094l24 24 .40625 1.230469c5.03125 15.082031 7.59375 30.875 7.59375 46.769531h-120v-40zm0 0" fill="#dfb28b"/><path d="m206.761719 189.65625v16h120c0-5.359375-.402344-10.6875-.976563-16zm0 0" fill="#cf9e76"/><path d="m254.761719 189.65625c0-16.558594-10.160157-30.703125-24.53125-36.777344-5.488281 3.769532-10.695313 8-15.46875 12.777344h-8v40h44.527343c2.199219-5.015625 3.472657-10.417969 3.472657-16zm0 0" fill="#cf9e76"/><path d="m232.648438 205.65625c3.800781-4.25 6.113281-9.855469 6.113281-16 0-13.257812-10.746094-24-24-24 0-13.257812-10.746094-24-24-24 0-13.257812-10.746094-24-24-24-13.257813 0-24 10.742188-24 24-13.257813 0-24 10.742188-24 24-13.257813 0-24 10.742188-24 24 0 6.144531 2.308593 11.75 6.109375 16zm0 0" fill="#fcd770"/><path d="m94.761719 189.65625c0 6.144531 2.308593 11.75 6.109375 16h131.777344c3.800781-4.25 6.113281-9.855469 6.113281-16zm0 0" fill="#ffc729"/><path d="m429.191406 277.65625-50-80h-44.75c-.65625-12.808594-2.875-25.441406-6.648437-37.71875l34.277343-34.28125h12.691407c13.230469 0 24-10.769531 24-24s-10.769531-24-24-24c0-13.230469-10.769531-24-24-24-13.234375 0-24 10.769531-24 24v12.6875l-35.347657 35.34375c-26.574218.136719-51.734374 9.082031-72.230468 25.410156-4.253906-8.273437-11.960938-14.488281-21.238282-16.625-3.273437-14.199218-16.007812-24.816406-31.183593-24.816406s-27.914063 10.617188-31.1875 24.816406c-11.878907 2.734375-21.261719 12.121094-24 24-14.199219 3.269532-24.8125 16.007813-24.8125 31.183594 0 2.734375.46875 5.398438 1.140625 8h-37.574219l-50 80h63.113281l19.199219 216h264.238281l19.199219-216zm-28.863281-16h-229.136719l-30-48h229.136719zm-154.710937-64c.671874-2.601562 1.144531-5.265625 1.144531-8 0-11.6875-6.328125-21.878906-15.714844-27.464844 17.34375-13.152344 38.304687-20.390625 60.425781-20.503906l20.253906 20.257812c3.816407 11.589844 6.015626 23.574219 6.707032 35.710938zm97.144531-100.6875v-19.3125c0-4.410156 3.589843-8 8-8 4.40625 0 8 3.589844 8 8v16h16c4.40625 0 8 3.589844 8 8 0 4.40625-3.59375 8-8 8h-19.3125l-36.6875 36.6875-12.691407-12.6875zm-240 92.6875c0-8.824219 7.175781-16 16-16h8v-8c0-8.824219 7.175781-16 16-16h8v-8c0-8.824219 7.175781-16 16-16s16 7.175781 16 16v8h8c8.824219 0 16 7.175781 16 16v8h8c8.824219 0 16 7.175781 16 16 0 2.839844-.777344 5.582031-2.175781 8h-29.824219v-8h-16v8h-48v-8h-16v8h-13.824219c-1.402344-2.417969-2.175781-5.160156-2.175781-8zm-43.570313 24h53.136719l-30 48h-53.136719zm20.3125 64h11.6875l29.082032-46.519531 21.75 246.519531h-44.742188zm252.734375 200h-174.148437l-21.25-240.777344 25.488281 40.777344h187.6875zm0 0"/><path d="m246.761719 453.65625c44.109375 0 80-35.886719 80-80s-35.890625-80-80-80c-44.113281 0-80 35.886719-80 80s35.886719 80 80 80zm0-144c35.285156 0 64 28.710938 64 64s-28.714844 64-64 64c-35.289063 0-64-28.710938-64-64s28.710937-64 64-64zm0 0"/><path d="m238.761719 333.65625h16v16h-16zm0 0"/><path d="m238.761719 365.65625h16v16h-16zm0 0"/><path d="m238.761719 397.65625h16v16h-16zm0 0"/><path d="m158.761719 157.65625h16v16h-16zm0 0"/><path d="m217.105469 107.3125 11.308593-11.3125-8-8c-3.589843-3.59375-5.652343-8.574219-5.652343-13.65625v-1.375c0-5.082031 2.0625-10.066406 5.652343-13.65625 6.675782-6.664062 10.347657-15.535156 10.347657-24.96875v-1.375c0-9.433594-3.671875-18.304688-10.347657-24.96875l-8-8-11.308593 11.3125 8 8c3.589843 3.589844 5.65625 8.574219 5.65625 13.65625v1.375c0 5.082031-2.066407 10.0625-5.65625 13.65625-6.671875 6.664062-10.34375 15.535156-10.34375 24.96875v1.375c0 9.433594 3.671875 18.304688 10.34375 24.96875zm0 0"/><path d="m177.105469 107.3125 11.308593-11.3125-8-8c-3.589843-3.59375-5.652343-8.574219-5.652343-13.65625v-1.375c0-5.082031 2.0625-10.066406 5.652343-13.65625 6.675782-6.664062 10.347657-15.535156 10.347657-24.96875v-1.375c0-9.433594-3.671875-18.304688-10.347657-24.96875l-8-8-11.308593 11.3125 8 8c3.589843 3.589844 5.65625 8.574219 5.65625 13.65625v1.375c0 5.082031-2.066407 10.0625-5.65625 13.65625-6.671875 6.664062-10.34375 15.535156-10.34375 24.96875v1.375c0 9.433594 3.671875 18.304688 10.34375 24.96875zm0 0"/><path d="m257.105469 107.3125 11.308593-11.3125-8-8c-3.589843-3.59375-5.652343-8.574219-5.652343-13.65625v-1.375c0-5.082031 2.0625-10.066406 5.652343-13.65625 6.675782-6.664062 10.347657-15.535156 10.347657-24.96875v-1.375c0-9.433594-3.671875-18.304688-10.347657-24.96875l-8-8-11.308593 11.3125 8 8c3.589843 3.589844 5.65625 8.574219 5.65625 13.65625v1.375c0 5.082031-2.066407 10.0625-5.65625 13.65625-6.671875 6.664062-10.34375 15.535156-10.34375 24.96875v1.375c0 9.433594 3.671875 18.304688 10.34375 24.96875zm0 0"/></svg>