<svg height="496pt" viewBox="-104 0 496 496" width="496pt" xmlns="http://www.w3.org/2000/svg"><path d="m8 280h272v208h-272zm0 0" fill="#ecc19c"/><path d="m8 280h80v208h-80zm0 0" fill="#dfb28b"/><path d="m8 280 40 40 40-40zm0 0" fill="#cf9e76"/><path d="m120 336h128v96h-128zm0 0" fill="#e6e9ed"/><path d="m264 128c0 66.273438-53.726562 120-120 120s-120-53.726562-120-120 53.726562-120 120-120 120 53.726562 120 120zm0 0" fill="#ff826e"/><path d="m96 56v32c0 26.511719 21.488281 48 48 48s48-21.488281 48-48v-32zm0 0" fill="#e6e9ed"/><path d="m0 272v224h288v-224zm48 36.6875-20.6875-20.6875h41.375zm-32-9.375 24 24v68.6875h16v-68.6875l24-24v180.6875h-24v-72h-16v72h-24zm256 180.6875h-176v-192h176zm0 0"/><path d="m256 440v-112h-144v112zm-128-96h112v80h-112zm0 0"/><path d="m144 360h80v16h-80zm0 0"/><path d="m144 392h32v16h-32zm0 0"/><path d="m192 392h32v16h-32zm0 0"/><path d="m144 256c70.574219 0 128-57.425781 128-128s-57.425781-128-128-128-128 57.425781-128 128 57.425781 128 128 128zm0-240c61.761719 0 112 50.238281 112 112s-50.238281 112-112 112-112-50.238281-112-112 50.238281-112 112-112zm0 0"/><path d="m136 143.359375v56.640625h-40v16h96v-16h-40v-56.640625c27.089844-3.902344 48-27.207031 48-55.359375v-40h-112v40c0 28.152344 20.910156 51.457031 48 55.359375zm-32-79.359375h20.6875l25.015625 25.015625-12.359375 18.542969 13.3125 8.875 19.640625-29.457032-22.984375-22.976562h36.6875v24c0 22.054688-17.945312 40-40 40s-40-17.945312-40-40zm0 0"/></svg>