<svg id="Layer_4" data-name="Layer 4" xmlns="http://www.w3.org/2000/svg" xmlns:xlink="http://www.w3.org/1999/xlink" viewBox="0 0 5114.17 1682.88"><defs><style>.cls-1,.cls-10,.cls-11,.cls-12,.cls-13,.cls-14,.cls-15,.cls-16,.cls-17,.cls-18,.cls-19,.cls-2,.cls-20,.cls-21,.cls-22,.cls-23,.cls-24,.cls-25,.cls-26,.cls-27,.cls-28,.cls-29,.cls-3,.cls-30,.cls-31,.cls-32,.cls-33,.cls-34,.cls-35,.cls-36,.cls-37,.cls-38,.cls-39,.cls-4,.cls-40,.cls-41,.cls-42,.cls-5,.cls-6,.cls-7,.cls-8,.cls-9{fill:none;stroke-miterlimit:10;stroke-width:1.85px;}.cls-1{stroke:url(#linear-gradient);}.cls-2{stroke:url(#linear-gradient-2);}.cls-3{stroke:url(#linear-gradient-3);}.cls-4{stroke:url(#linear-gradient-4);}.cls-5{stroke:url(#linear-gradient-5);}.cls-6{stroke:url(#linear-gradient-6);}.cls-7{stroke:url(#linear-gradient-7);}.cls-8{stroke:url(#linear-gradient-8);}.cls-9{stroke:url(#linear-gradient-9);}.cls-10{stroke:url(#linear-gradient-10);}.cls-11{stroke:url(#linear-gradient-11);}.cls-12{stroke:url(#linear-gradient-12);}.cls-13{stroke:url(#linear-gradient-13);}.cls-14{stroke:url(#linear-gradient-14);}.cls-15{stroke:url(#linear-gradient-15);}.cls-16{stroke:url(#linear-gradient-16);}.cls-17{stroke:url(#linear-gradient-17);}.cls-18{stroke:url(#linear-gradient-18);}.cls-19{stroke:url(#linear-gradient-19);}.cls-20{stroke:url(#linear-gradient-20);}.cls-21{stroke:url(#linear-gradient-21);}.cls-22{stroke:url(#linear-gradient-22);}.cls-23{stroke:url(#linear-gradient-23);}.cls-24{stroke:url(#linear-gradient-24);}.cls-25{stroke:url(#linear-gradient-25);}.cls-26{stroke:url(#linear-gradient-26);}.cls-27{stroke:url(#linear-gradient-27);}.cls-28{stroke:url(#linear-gradient-28);}.cls-29{stroke:url(#linear-gradient-29);}.cls-30{stroke:url(#linear-gradient-30);}.cls-31{stroke:url(#linear-gradient-31);}.cls-32{stroke:url(#linear-gradient-32);}.cls-33{stroke:url(#linear-gradient-33);}.cls-34{stroke:url(#linear-gradient-34);}.cls-35{stroke:url(#linear-gradient-35);}.cls-36{stroke:url(#linear-gradient-36);}.cls-37{stroke:url(#linear-gradient-37);}.cls-38{stroke:url(#linear-gradient-38);}.cls-39{stroke:url(#linear-gradient-39);}.cls-40{stroke:url(#linear-gradient-40);}.cls-41{stroke:url(#linear-gradient-41);}.cls-42{stroke:url(#linear-gradient-42);}</style><linearGradient id="linear-gradient" x1="2.85" y1="761.71" x2="5117.02" y2="761.71" gradientUnits="userSpaceOnUse"><stop offset="0.01" stop-color="#4bccf0" stop-opacity="0.1"/><stop offset="0.08" stop-color="#4bccf0"/><stop offset="0.44" stop-color="#5efc85"/><stop offset="0.9" stop-color="#4bcdef"/><stop offset="1" stop-color="#4bcdef" stop-opacity="0.1"/></linearGradient><linearGradient id="linear-gradient-2" x1="2.85" y1="765.67" x2="5116.92" y2="765.67" xlink:href="#linear-gradient"/><linearGradient id="linear-gradient-3" x1="2.85" y1="769.64" x2="5116.81" y2="769.64" xlink:href="#linear-gradient"/><linearGradient id="linear-gradient-4" x1="2.85" y1="773.62" x2="5116.71" y2="773.62" xlink:href="#linear-gradient"/><linearGradient id="linear-gradient-5" x1="2.85" y1="777.58" x2="5116.61" y2="777.58" xlink:href="#linear-gradient"/><linearGradient id="linear-gradient-6" x1="2.86" y1="781.54" x2="5116.5" y2="781.54" xlink:href="#linear-gradient"/><linearGradient id="linear-gradient-7" x1="2.86" y1="785.49" x2="5116.4" y2="785.49" xlink:href="#linear-gradient"/><linearGradient id="linear-gradient-8" x1="2.86" y1="789.43" x2="5116.3" y2="789.43" xlink:href="#linear-gradient"/><linearGradient id="linear-gradient-9" x1="2.86" y1="793.37" x2="5116.2" y2="793.37" xlink:href="#linear-gradient"/><linearGradient id="linear-gradient-10" x1="2.86" y1="797.3" x2="5116.1" y2="797.3" xlink:href="#linear-gradient"/><linearGradient id="linear-gradient-11" x1="2.87" y1="801.23" x2="5116" y2="801.23" xlink:href="#linear-gradient"/><linearGradient id="linear-gradient-12" x1="2.87" y1="805.15" x2="5115.9" y2="805.15" xlink:href="#linear-gradient"/><linearGradient id="linear-gradient-13" x1="2.87" y1="809.07" x2="5115.81" y2="809.07" xlink:href="#linear-gradient"/><linearGradient id="linear-gradient-14" x1="2.87" y1="812.98" x2="5115.71" y2="812.98" xlink:href="#linear-gradient"/><linearGradient id="linear-gradient-15" x1="2.88" y1="816.89" x2="5115.61" y2="816.89" xlink:href="#linear-gradient"/><linearGradient id="linear-gradient-16" x1="2.88" y1="820.79" x2="5115.51" y2="820.79" xlink:href="#linear-gradient"/><linearGradient id="linear-gradient-17" x1="2.88" y1="824.68" x2="5115.41" y2="824.68" xlink:href="#linear-gradient"/><linearGradient id="linear-gradient-18" x1="2.88" y1="828.57" x2="5115.32" y2="828.57" xlink:href="#linear-gradient"/><linearGradient id="linear-gradient-19" x1="2.89" y1="832.45" x2="5115.22" y2="832.45" xlink:href="#linear-gradient"/><linearGradient id="linear-gradient-20" x1="2.89" y1="836.33" x2="5115.12" y2="836.33" xlink:href="#linear-gradient"/><linearGradient id="linear-gradient-21" x1="2.89" y1="840.2" x2="5115.03" y2="840.2" xlink:href="#linear-gradient"/><linearGradient id="linear-gradient-22" x1="2.9" y1="844.07" x2="5114.93" y2="844.07" xlink:href="#linear-gradient"/><linearGradient id="linear-gradient-23" x1="2.9" y1="847.93" x2="5114.84" y2="847.93" xlink:href="#linear-gradient"/><linearGradient id="linear-gradient-24" x1="2.9" y1="851.79" x2="5114.74" y2="851.79" xlink:href="#linear-gradient"/><linearGradient id="linear-gradient-25" x1="2.9" y1="855.64" x2="5114.64" y2="855.64" xlink:href="#linear-gradient"/><linearGradient id="linear-gradient-26" x1="2.91" y1="859.48" x2="5114.55" y2="859.48" xlink:href="#linear-gradient"/><linearGradient id="linear-gradient-27" x1="2.91" y1="863.33" x2="5114.45" y2="863.33" xlink:href="#linear-gradient"/><linearGradient id="linear-gradient-28" x1="2.92" y1="867.16" x2="5114.36" y2="867.16" xlink:href="#linear-gradient"/><linearGradient id="linear-gradient-29" x1="2.92" y1="870.99" x2="5114.27" y2="870.99" xlink:href="#linear-gradient"/><linearGradient id="linear-gradient-30" x1="2.92" y1="874.82" x2="5114.17" y2="874.82" xlink:href="#linear-gradient"/><linearGradient id="linear-gradient-31" x1="2.93" y1="878.64" x2="5114.08" y2="878.64" xlink:href="#linear-gradient"/><linearGradient id="linear-gradient-32" x1="2.93" y1="882.45" x2="5113.98" y2="882.45" xlink:href="#linear-gradient"/><linearGradient id="linear-gradient-33" x1="2.94" y1="886.26" x2="5113.89" y2="886.26" xlink:href="#linear-gradient"/><linearGradient id="linear-gradient-34" x1="2.94" y1="890.06" x2="5113.79" y2="890.06" xlink:href="#linear-gradient"/><linearGradient id="linear-gradient-35" x1="2.95" y1="893.86" x2="5113.7" y2="893.86" xlink:href="#linear-gradient"/><linearGradient id="linear-gradient-36" x1="2.95" y1="897.64" x2="5113.61" y2="897.64" xlink:href="#linear-gradient"/><linearGradient id="linear-gradient-37" x1="2.96" y1="901.42" x2="5113.51" y2="901.42" xlink:href="#linear-gradient"/><linearGradient id="linear-gradient-38" x1="2.96" y1="905.19" x2="5113.42" y2="905.19" xlink:href="#linear-gradient"/><linearGradient id="linear-gradient-39" x1="2.97" y1="908.94" x2="5113.32" y2="908.94" xlink:href="#linear-gradient"/><linearGradient id="linear-gradient-40" x1="2.98" y1="912.69" x2="5113.23" y2="912.69" xlink:href="#linear-gradient"/><linearGradient id="linear-gradient-41" x1="2.98" y1="916.49" x2="5113.14" y2="916.49" xlink:href="#linear-gradient"/><linearGradient id="linear-gradient-42" x1="2.99" y1="920.12" x2="5113.04" y2="920.12" xlink:href="#linear-gradient"/></defs><title>Meeting</title><path class="cls-1" d="M3.38,827.8S1301.64-96.32,1250.55,326.23c-60.29,498.62-585.37,466-52,660.87,536.72,196.14,1818.45,316.76,2272.76-54.33,789.22-644.65,1182.26,594.48,1645.29,340.09" transform="translate(-2.85 -78.69)"/><path class="cls-2" d="M3.38,813.72S1287.28-96,1243.07,322.75C1190,815.9,671.21,782.43,1216.84,980c536.47,195.09,1803.06,328,2255.47-36.2C4270.4,301.32,4634.15,1538,5116.48,1283.84" transform="translate(-2.85 -78.69)"/><path class="cls-3" d="M3.38,799.63S1272.92-95.74,1235.59,319.27c-45.83,487.67-558.35,453.4-.42,653.54,536.21,194.05,1787.74,339.23,2238.17-18.07,807-640.18,1141.42,594,1643.06,340.09" transform="translate(-2.85 -78.69)"/><path class="cls-4" d="M3.38,785.55S1259.78-95.36,1228.11,315.79c-37.15,482.31-544.43,446,25.38,649.87,536.34,191.93,1772.48,350.55,2220.87.06,816.06-637.89,1121,593.79,1641.94,340.09" transform="translate(-2.85 -78.69)"/><path class="cls-5" d="M3.38,771.47S1245.81-95.06,1220.63,312.32c-29.47,476.84-530.81,439.33,51.19,646.21C1808,1149.11,3029.1,1320.45,3475.39,976.71,4300.56,341.14,4576,1570.27,5116.21,1316.8" transform="translate(-2.85 -78.69)"/><path class="cls-6" d="M3.38,757.38S1231.82-94.79,1213.15,308.84c-21.81,471.36-517.19,432.72,77,642.54,536,189.28,1742.16,373.37,2186.28,36.32C4310.77,354.5,4556.58,1581,5116.12,1327.78" transform="translate(-2.85 -78.69)"/><path class="cls-7" d="M3.38,743.3S1217.82-94.52,1205.67,305.36c-14.16,465.86-503.58,426.13,102.8,638.88,535.84,188,1727.08,384.86,2169,54.45,843.62-630.77,1059.74,593.1,1638.58,340.09" transform="translate(-2.85 -78.69)"/><path class="cls-8" d="M3.38,729.21S1203.81-94.27,1198.19,301.88c-6.53,460.35-490,419.56,128.6,635.21,535.65,186.75,1712.07,396.41,2151.69,72.58,853-628.3,1039.32,592.87,1637.47,340.09" transform="translate(-2.85 -78.69)"/><path class="cls-9" d="M3.38,715.13S1189.77-94,1190.71,298.4c1.08,454.82-476.38,413,154.41,631.55,535.45,185.52,1697.11,408,2134.39,90.71,862.38-625.77,1018.9,592.64,1636.35,340.09" transform="translate(-2.85 -78.69)"/><path class="cls-10" d="M3.38,701S1175.73-93.8,1183.23,294.92c8.67,449.28-462.79,406.47,180.21,627.88,535.25,184.31,1682.21,419.67,2117.1,108.84,871.88-623.17,998.48,592.41,1635.23,340.09" transform="translate(-2.85 -78.69)"/><path class="cls-11" d="M3.38,687S1161.66-93.58,1175.75,291.45c16.23,443.73-449.21,400,206,624.21,535,183.13,1667.36,431.39,2099.8,127,881.46-620.52,978.06,592.18,1634.11,340.09" transform="translate(-2.85 -78.69)"/><path class="cls-12" d="M3.38,672.88S1147.58-93.37,1168.27,288C1192,726.14,732.63,681.42,1400.09,908.52c534.81,182,1652.56,443.16,2082.5,145.1,891.12-617.79,957.64,591.95,1633,340.09" transform="translate(-2.85 -78.69)"/><path class="cls-13" d="M3.38,658.8s1130.09-752,1157.4-374.31c31.29,432.6-422.07,387,257.63,616.88,534.58,180.82,1637.82,455,2065.21,163.23,900.86-615,937.22,591.72,1631.87,340.09" transform="translate(-2.85 -78.69)"/><path class="cls-14" d="M3.38,644.71S1119.34-93,1153.3,281c38.77,427-408.51,380.52,283.43,613.22,534.34,179.7,1623.12,466.88,2047.91,181.36,910.68-612.1,916.8,591.49,1630.75,340.09" transform="translate(-2.85 -78.69)"/><path class="cls-15" d="M3.38,630.63S1105.19-92.81,1145.82,277.53c46.23,421.42-395,374.09,309.23,609.55,534.1,178.59,1608.46,478.82,2030.61,199.49,920.58-609.13,896.38,591.26,1629.64,340.09" transform="translate(-2.85 -78.69)"/><path class="cls-16" d="M3.38,616.54S1091-92.64,1138.34,274.06c53.66,415.82-381.42,367.67,335,605.89,533.85,177.5,1593.86,490.82,2013.32,217.62,930.56-606.08,876,591,1628.52,340.09" transform="translate(-2.85 -78.69)"/><path class="cls-17" d="M3.38,602.46S1076.82-92.47,1130.86,270.58C1191.93,680.79,763,631.85,1491.71,872.8c533.6,176.43,1579.29,502.87,1996,235.75,940.61-602.92,855.54,590.8,1627.4,340.09" transform="translate(-2.85 -78.69)"/><path class="cls-18" d="M3.38,588.38s1059.21-680.68,1120-321.28C1191.81,671.7,769,622,1510,865.66c533.34,175.37,1564.77,515,1978.72,253.88C4439.5,519.87,4323.87,1710.11,5115,1459.63" transform="translate(-2.85 -78.69)"/><path class="cls-19" d="M3.38,574.29s1045-666.44,1112.52-310.67c75.77,399-340.82,348.55,412.45,594.89,533.08,174.33,1550.28,527.15,1961.43,272,961-596.31,814.7,590.34,1625.16,340.09" transform="translate(-2.85 -78.69)"/><path class="cls-20" d="M3.38,560.21S1034.06-92,1108.42,260.14c83.07,393.38-327.31,342.21,438.26,591.23,532.81,173.3,1535.84,539.36,1944.13,290.15,971.25-592.84,794.28,590.11,1624,340.09" transform="translate(-2.85 -78.69)"/><path class="cls-21" d="M3.38,546.13s1016.36-638,1097.55-289.46c90.34,387.77-313.8,335.9,464.06,587.56,532.53,172.29,1521.43,551.64,1926.84,308.28,981.63-589.25,773.86,589.88,1622.93,340.09" transform="translate(-2.85 -78.69)"/><path class="cls-22" d="M3.38,532s1002-623.71,1090.07-278.86c97.58,382.16-300.29,329.61,489.87,583.9,532.26,171.29,1507,564,1909.54,326.41,992.08-585.54,753.44,589.65,1621.81,340.09" transform="translate(-2.85 -78.69)"/><path class="cls-23" d="M3.38,518S991-91.5,1086,249.71C1190.75,626.26,799.18,573,1601.65,829.94c532,170.3,1492.71,576.34,1892.24,344.54,1002.6-581.7,733,589.42,1620.69,340.09" transform="translate(-2.85 -78.69)"/><path class="cls-24" d="M3.38,503.87S976.64-91.32,1078.5,246.23c111.94,371-273.3,317.08,541.48,576.56,531.69,169.33,1478.39,588.78,1874.95,362.67,1013.21-577.72,712.6,589.19,1619.57,340.09" transform="translate(-2.85 -78.69)"/><path class="cls-25" d="M3.38,489.79S962.2-91.14,1071,242.75c119.07,365.37-259.82,310.85,567.28,572.9C2169.7,984,3102.41,1416.92,3496,1196.45c1023.9-573.6,692.18,589,1618.45,340.09" transform="translate(-2.85 -78.69)"/><path class="cls-26" d="M3.38,475.71S947.74-90.95,1063.54,239.27c126.17,359.8-246.34,304.65,593.09,569.23C2187.74,975.91,3106.48,1422.31,3497,1207.44c1034.66-569.33,671.76,588.73,1617.33,340.09" transform="translate(-2.85 -78.69)"/><path class="cls-27" d="M3.38,461.62S933.24-90.74,1056.06,235.8C1189.29,590,823.19,534.25,1675,801.36c530.82,166.46,1435.62,626.4,1823.06,417.06,1045.5-564.91,651.34,588.5,1616.22,340.09" transform="translate(-2.85 -78.69)"/><path class="cls-28" d="M3.38,447.54S918.72-90.51,1048.58,232.32c140.27,348.71-219.4,292.29,644.7,561.9,530.52,165.53,1421.41,639,1805.76,435.19C4555.45,669.09,4130,1817.68,5114.13,1569.5" transform="translate(-2.85 -78.69)"/><path class="cls-29" d="M3.38,433.46S904.16-90.27,1041.09,228.84C1188.36,572,835.15,515,1711.6,787.08c530.22,164.61,1407.23,651.74,1788.46,453.32,1067.4-555.55,610.5,588,1614,340.09" transform="translate(-2.85 -78.69)"/><path class="cls-30" d="M3.38,419.37S889.57-90,1033.61,225.36c154.24,337.69-192.49,280,696.31,554.57C2259.84,943.63,3123,1444.43,3501.09,1251.38,4579.56,700.77,4091.17,1839.2,5114,1591.47" transform="translate(-2.85 -78.69)"/><path class="cls-31" d="M3.38,405.29S875-89.71,1026.13,221.88c161.18,332.21-179,273.92,722.11,550.91,529.61,162.79,1378.91,677.29,1753.87,489.58C4591.73,716.89,4071.78,1850,5113.86,1602.46" transform="translate(-2.85 -78.69)"/><path class="cls-32" d="M3.38,391.2S860.31-89.4,1018.65,218.4c168.09,326.77-165.6,267.84,747.92,547.24,529.31,161.89,1364.78,690.15,1736.58,507.71C4604,733.2,4052.38,1860.71,5113.77,1613.45" transform="translate(-2.85 -78.69)"/><path class="cls-33" d="M3.38,377.12S845.65-89.06,1011.17,214.93C1186.15,536.28,859,476.71,1784.9,758.5c529,161,1350.66,703,1719.28,525.84C4616.29,749.71,4033,1871.47,5113.68,1624.44" transform="translate(-2.85 -78.69)"/><path class="cls-34" d="M3.38,363S831-88.69,1003.69,211.45c181.85,316-138.73,255.74,799.53,539.91,528.69,160.12,1336.55,716,1702,544,1123.48-528.89,508.4,586.9,1608.39,340.09" transform="translate(-2.85 -78.69)"/><path class="cls-35" d="M3.38,349S816.24-88.28,996.21,208C1184.9,518.58,870.9,457.7,1821.54,744.22c528.37,159.25,1322.46,729,1684.69,562.1,1134.91-522.92,488,586.67,1607.27,340.09" transform="translate(-2.85 -78.69)"/><path class="cls-36" d="M3.38,334.87S801.5-87.85,988.73,204.49c195.52,305.29-111.89,243.73,851.14,532.58,528.06,158.38,1308.37,742.06,1667.39,580.23,1146.41-516.73,467.56,586.44,1606.15,340.09" transform="translate(-2.85 -78.69)"/><path class="cls-37" d="M3.38,320.79S786.75-87.38,981.25,201c202.33,300-99,239.67,876.94,528.91,527.44,158.56,1294.28,755.16,1650.09,598.36,1158-510.29,447.14,586.21,1605,340.09" transform="translate(-2.85 -78.69)"/><path class="cls-38" d="M3.38,306.7S772-86.87,973.77,197.54c209.13,294.75-85.54,233.38,902.75,525.25,527.18,157.51,1280.2,768.31,1632.8,616.49,1169.61-503.6,426.72,586,1603.91,340.09" transform="translate(-2.85 -78.69)"/><path class="cls-39" d="M3.38,292.62s753.81-378.94,962.9-98.56c215.92,289.54-72,227.09,928.55,521.58,526.92,156.47,1266.13,781.51,1615.5,634.62C4691.65,853.62,3916.64,1936,5113.14,1690.36" transform="translate(-2.85 -78.69)"/><path class="cls-40" d="M3.38,278.53s739-364.28,955.42-88c222.7,284.36-58.52,220.81,954.36,517.92,526.66,155.42,1252,794.76,1598.2,652.75C4704.44,871.82,3897.25,1946.77,5113,1701.34" transform="translate(-2.85 -78.69)"/><path class="cls-41" d="M3.38,264.45S727.15-84.76,951.33,187.1c229,279.6-45,214.52,980.16,514.25,526.4,154.38,1238,808.05,1580.91,670.88C4717.29,890.32,3877.85,1957.53,5113,1712.33" transform="translate(-2.85 -78.69)"/><path class="cls-42" d="M3.38,250.37s709.4-334.84,940.46-66.74c236.25,274.12-31.5,208.23,1006,510.59,526.15,153.34,1223.88,821.39,1563.61,689,1216.77-474.12,345,585.06,1599.44,340.09" transform="translate(-2.85 -78.69)"/></svg>