<svg height="496pt" viewBox="0 0 496 496" width="496pt" xmlns="http://www.w3.org/2000/svg"><path d="m236.03125 392h-228.03125v-384h384v384zm0 0" fill="#ecc19c"/><path d="m248 8h144v384h-144zm0 0" fill="#dfb28b"/><path d="m392 219.710938c-10.3125-2.351563-20.992188-3.710938-32-3.710938-79.398438 0-144 64.601562-144 144 0 11.007812 1.359375 21.6875 3.710938 32h172.289062zm0 0" fill="#dfb28b"/><path d="m392 219.710938c-10.3125-2.351563-20.992188-3.710938-32-3.710938-45.214844 0-85.585938 20.992188-112 53.695312v122.304688h144zm0 0" fill="#cf9e76"/><path d="m488 360c0 70.691406-57.308594 128-128 128s-128-57.308594-128-128 57.308594-128 128-128 128 57.308594 128 128zm0 0" fill="#4fc1e9"/><path d="m248 8 72 72 72-72zm0 0" fill="#cf9e76"/><path d="m80 8h96v64h-96zm0 0" fill="#cf9e76"/><path d="m40 152h176v160h-176zm0 0" fill="#e6e9ed"/><path d="m400 230.023438v-230.023438h-400v400h230.023438c17.121093 55.527344 68.90625 96 129.976562 96 74.992188 0 136-61.007812 136-136 0-61.070312-40.472656-112.855469-96-129.976562zm53.734375 204.703124c-7.550781-6.566406-20.199219-15.863281-37.414063-23.214843 4.617188-15.328125 7.679688-32.488281 7.679688-51.511719 0-19.191406-2.679688-36.496094-6.726562-51.910156 16.734374-7.289063 29.046874-16.371094 36.460937-22.816406 16.394531 20.527343 26.265625 46.480468 26.265625 74.726562s-9.871094 54.199219-26.265625 74.726562zm-131.261719-13.078124c10.96875-3.390626 23.511719-5.648438 37.527344-5.648438 13.304688 0 25.265625 2.089844 35.863281 5.222656-12.933593 31.769532-32.375 52.335938-38.847656 58.625-.566406-.015625-1.128906-.0625-1.6875-.085937-5.953125-6.824219-22.039063-27.136719-32.855469-58.113281zm10.175782 55.085937c-21.242188-4.972656-40.304688-15.566406-55.550782-30.183594 6.214844-5.335937 16.414063-12.878906 30.277344-19.167969 7.503906 21.480469 17.335938 38.082032 25.273438 49.351563zm-20.648438-116.734375c0-16.878906 2.742188-32.214844 6.871094-46 12.074218 3.609375 25.792968 6 41.128906 6 15.734375 0 29.785156-2.496094 42.089844-6.257812 3.550781 13.851562 5.910156 29.273437 5.910156 46.257812 0 16.878906-2.742188 32.214844-6.871094 46-12.074218-3.609375-25.792968-6-41.128906-6-15.734375 0-29.785156 2.496094-42.089844 6.257812-3.550781-13.851562-5.910156-29.273437-5.910156-46.257812zm8-291.3125-52.6875-52.6875h105.375zm-8 14.625v149.597656c-21.910156 8.304688-41.160156 22.019532-56 39.632813v-245.230469zm27.617188 158.550781c-9.519532 11.433594-21.617188 28.777344-30.664063 51.351563-14.585937-6.40625-25.359375-14.277344-31.824219-19.789063 16.894532-16.179687 38.472656-27.425781 62.488282-31.5625zm23.375-1.710937c.566406.015625 1.128906.0625 1.6875.085937 5.953124 6.832031 22.03125 27.136719 32.847656 58.113281-10.96875 3.390626-23.511719 5.648438-37.527344 5.648438-13.304688 0-25.265625-2.089844-35.863281-5.222656 12.933593-31.777344 32.375-52.34375 38.855469-58.625zm24.359374 3.113281c21.242188 4.972656 40.304688 15.566406 55.550782 30.183594-6.214844 5.335937-16.414063 12.878906-30.277344 19.167969-7.503906-21.480469-17.335938-38.082032-25.273438-49.351563zm23.695313 183.519531c14.585937 6.40625 25.359375 14.277344 31.824219 19.789063-16.894532 16.179687-38.472656 27.425781-62.488282 31.5625 9.519532-11.441407 21.617188-28.777344 30.664063-51.351563zm-51.046875-202.785156c-11.039062 0-21.71875 1.464844-32 3.960938v-144.648438l56-56v198.933594c-7.808594-1.390625-15.800781-2.246094-24-2.246094zm-272-208h80v48h-80zm-72 368v-368h56v64h112v-64h56v280h.0625c-10.222656 19.089844-16.0625 40.871094-16.0625 64 0 8.199219.855469 16.191406 2.246094 24zm250.265625-98.726562c7.550781 6.566406 20.199219 15.863281 37.414063 23.214843-4.617188 15.328125-7.679688 32.488281-7.679688 51.511719 0 19.191406 2.679688 36.496094 6.726562 51.910156-16.734374 7.289063-29.046874 16.371094-36.460937 22.816406-16.394531-20.527343-26.265625-46.480468-26.265625-74.726562s9.871094-54.199219 26.265625-74.726562zm0 0"/><path d="m224 144h-192v176h192zm-16 160h-160v-144h160zm0 0"/><path d="m64 176h80v16h-80zm0 0"/><path d="m64 208h128v16h-128zm0 0"/><path d="m64 240h128v16h-128zm0 0"/><path d="m112 272h16v16h-16zm0 0"/><path d="m144 272h16v16h-16zm0 0"/><path d="m176 272h16v16h-16zm0 0"/></svg>