<svg height="496pt" viewBox="0 -2 496 496" width="496pt" xmlns="http://www.w3.org/2000/svg"><path d="m184 412.136719c-31.625-68.519531-48-143.082031-48-218.542969v-5.457031h-40c-26.136719 41.824219-40 90.152343-40 139.472656v84.527344zm0 0" fill="#fc6e51"/><path d="m80 324.136719c-8.328125 0-16.359375 1.238281-24 3.40625v.066406 84.527344h112c0-48.519531-39.480469-88-88-88zm0 0" fill="#e9573f"/><path d="m224 412.136719v-40c0-20.082031 9.695312-38.929688 26.039062-50.601563l3.921876-2.800781c16.34375-11.671875 26.039062-30.519531 26.039062-50.597656h176v112c0 17.671875-14.328125 32-32 32zm0 0" fill="#fc6e51"/><path d="m439.785156 407.816406c-2.28125-46.511718-40.722656-83.679687-87.785156-83.679687-48.519531 0-88 39.480469-88 88h160c5.769531 0 11.105469-1.648438 15.785156-4.320313zm0 0" fill="#e9573f"/><path d="m120 404.136719h192v16h-192zm0 0" fill="#fc6e51"/><path d="m120 420.136719h47.601562c.238282-2.640625.398438-5.296875.398438-8s-.167969-5.359375-.398438-8h-47.601562zm0 0" fill="#e9573f"/><path d="m264 412.136719c0 2.703125.167969 5.359375.398438 8h47.601562v-16h-47.601562c-.230469 2.640625-.398438 5.296875-.398438 8zm0 0" fill="#e9573f"/><path d="m144 380.136719h-128.449219c-4.824219 9.632812-7.550781 20.488281-7.550781 32 0 39.765625 32.230469 72 72 72s72-32.234375 72-72c0-11.511719-2.734375-22.367188-7.550781-32zm0 0" fill="#656d78"/><path d="m16 380.136719h128l.34375-.175781c-11.824219-23.59375-36.160156-39.824219-64.34375-39.824219-28.257812 0-52.640625 16.3125-64.425781 40zm0 0" fill="#ff826e"/><path d="m150.160156 396.136719c-1.289062-5.609375-3.199218-10.976563-5.710937-16h-128.898438c-2.511719 5.023437-4.421875 10.390625-5.710937 16zm0 0" fill="#5b6570"/><path d="m103.960938 380.105469c9.734374 7.292969 16.039062 18.925781 16.039062 32.03125 0 22.085937-17.910156 40-40 40s-40-17.914063-40-40c0-13.105469 6.296875-24.730469 16.03125-32.023438zm0 0" fill="#969faa"/><path d="m416 380.136719h-128.449219c-4.824219 9.632812-7.550781 20.488281-7.550781 32 0 39.765625 32.230469 72 72 72s72-32.234375 72-72c0-11.511719-2.734375-22.367188-7.550781-32zm0 0" fill="#656d78"/><path d="m422.160156 396.136719c-1.289062-5.609375-3.199218-10.976563-5.710937-16h-128.898438c-2.511719 5.023437-4.421875 10.390625-5.710937 16zm0 0" fill="#5b6570"/><path d="m375.960938 380.105469c9.734374 7.292969 16.039062 18.925781 16.039062 32.03125 0 22.085937-17.910156 40-40 40s-40-17.914063-40-40c0-13.105469 6.296875-24.730469 16.03125-32.023438zm0 0" fill="#969faa"/><path d="m288 380.136719h128l.34375-.175781c-11.824219-23.59375-36.160156-39.824219-64.34375-39.824219-28.257812 0-52.640625 16.3125-64.425781 40zm0 0" fill="#ff826e"/><path d="m344 92.136719h112v96h-112zm0 0" fill="#cf9e76"/><path d="m136 188.136719h-40c-22.089844 0-40-17.914063-40-40 0-22.089844 17.910156-40 40-40h40c8.839844 0 16 7.160156 16 16v48c0 8.839843-7.160156 16-16 16zm0 0" fill="#ff826e"/><path d="m96 108.136719c-22.089844 0-40 17.910156-40 40 0 22.085937 17.910156 40 40 40h8v-80zm0 0" fill="#fcd770"/><path d="m152 132.136719h48c8.839844 0 16 7.160156 16 16 0 8.839843-7.160156 16-16 16h-48zm0 0" fill="#ff826e"/><path d="m128 60.136719c0-8.839844 7.160156-16 16-16h16c8.839844 0 16 7.160156 16 16 0 8.839843-7.160156 16-16 16h-32zm0 0" fill="#ff826e"/><path d="m408 268.136719h-176c-8.839844 0-16-7.160157-16-16 0-8.839844 7.160156-16 16-16h176zm0 0" fill="#969faa"/><path d="m392 260.136719v8h16v-32h-18.871094c1.871094 7.847656 2.871094 15.910156 2.871094 24zm0 0" fill="#838f9b"/><path d="m408 268.136719v-8c0-25.96875-8.425781-51.234375-24-72h72v80zm0 0" fill="#ccd1d9"/><path d="m408 12.136719 56 24-56 32zm0 0" fill="#fcd770"/><path d="m344 92.136719h112v32h-112zm0 0" fill="#dfb28b"/><path d="m456 308.136719 32 8v48l-32 8zm0 0" fill="#fcd770"/><path d="m152 132.136719h16v32h-16zm0 0" fill="#fc6e51"/><path d="m456 284.136719v-16h-176c0 5.472656-.785156 10.832031-2.160156 16zm0 0" fill="#e9573f"/><path d="m384 188.136719c3.808594 5.078125 7.175781 10.4375 10.113281 16h61.886719v-16zm0 0" fill="#aab2bd"/><path d="m136.289062 204.136719c-.074218-3.519531-.289062-7.023438-.289062-10.542969v-5.457031h-40c-3.273438 5.230469-6.351562 10.574219-9.230469 16zm0 0" fill="#e9573f"/><path d="m388.601562 396.136719c-2.785156-6.359375-7.121093-11.878907-12.601562-16h-48c-5.480469 4.121093-9.816406 9.640625-12.601562 16zm0 0" fill="#838f9b"/><path d="m116.601562 396.136719c-2.785156-6.359375-7.121093-11.878907-12.601562-16h-48c-5.480469 4.121093-9.816406 9.640625-12.601562 16zm0 0" fill="#838f9b"/><path d="m472 312.136719-16-4v64l16-4zm0 0" fill="#ffc729"/><path d="m392 148.136719h16v16h-16zm0 0"/><path d="m496 309.886719-32-7.992188v-217.757812h-48v-11.359375l65.921875-37.664063-81.921875-35.113281v84.136719h-64v112h43.800781c6.808594 9.785156 12 20.605469 15.398438 32h-163.199219c-13.230469 0-24 10.765625-24 24 0 13.230469 10.769531 24 24 24h39.335938c-2.160157 14.390625-10.007813 27.511719-22.015626 36.085937l-3.929687 2.808594c-18.398437 13.136719-29.390625 34.488281-29.390625 57.105469v32h-26.726562c-29.417969-65.464844-45.089844-137.722657-45.242188-209.480469 9.273438-3.328125 15.96875-12.113281 15.96875-22.519531h40c13.230469 0 24-10.769531 24-24 0-13.234375-10.769531-24-24-24h-40c0-13.234375-10.769531-24-24-24v-16h24c13.230469 0 24-10.769531 24-24 0-13.234375-10.769531-24-24-24h-16c-13.230469 0-24 10.765625-24 24v40h-24c-26.472656 0-48 21.527343-48 48 0 22.023437 14.929688 40.582031 35.183594 46.207031-22.960938 40.648438-35.183594 86.417969-35.183594 133.265625v11.253906c-28.214844 12.367188-48 40.542969-48 73.273438 0 44.109375 35.886719 80 80 80 41.414062 0 75.566406-31.632813 79.59375-72h112.804688c4.027343 40.367187 38.1875 72 79.59375 72 41.671874 0 75.960937-32.039063 79.632812-72.769531 18.421875-3.582032 32.375-19.792969 32.375-39.230469v-1.753907l32-7.992187zm-80-285.613281 30.078125 12.886718-30.078125 17.191406zm-280 35.863281c0-4.410157 3.59375-8 8-8h16c4.40625 0 8 3.589843 8 8 0 4.40625-3.59375 8-8 8h-24zm312 40v16h-96v-16zm-96 32h96v48h-96zm96 64v64h-32c0-22.417969-6.121094-44.617188-17.289062-64zm-224 56c0-4.410157 3.59375-8 8-8h166.769531c.773438 5.296875 1.230469 10.640625 1.230469 16h-168c-4.40625 0-8-3.585938-8-8zm-24-112c4.40625 0 8 3.589843 8 8 0 4.40625-3.59375 8-8 8h-40v-16zm-56-16v48c0 4.40625-3.59375 8-8 8h-24v-64h24c4.40625 0 8 3.589843 8 8zm-80 24c0-17.648438 14.351562-32 32-32v64c-17.648438 0-32-14.351563-32-32zm0 179.472656c0-46.425781 12.710938-91.746094 36.617188-131.472656h27.453124c.355469 71.144531 15.523438 142.671875 43.800782 208h-12.277344c-4.027344-40.367188-38.1875-72-79.59375-72-5.480469 0-10.832031.558593-16 1.617187zm16 20.527344c20.160156 0 38.144531 9.390625 49.878906 24h-99.757812c11.734375-14.609375 29.71875-24 49.878906-24zm32 64c0 17.648437-14.351562 32-32 32s-32-14.351563-32-32c0-9.375 4.113281-17.914063 11.105469-24h41.78125c7 6.085937 11.113281 14.632812 11.113281 24zm-32 64c-35.289062 0-64-28.710938-64-64 0-8.488281 1.695312-16.585938 4.710938-24h17.761718c-4.160156 7.175781-6.472656 15.367187-6.472656 24 0 26.472656 21.527344 48 48 48s48-21.527344 48-48c0-8.632813-2.3125-16.824219-6.472656-24h17.761718c3.015626 7.414062 4.710938 15.511719 4.710938 24 0 35.289062-28.710938 64-64 64zm272 0c-35.289062 0-64-28.710938-64-64 0-8.488281 1.695312-16.585938 4.710938-24h17.761718c-4.160156 7.175781-6.472656 15.367187-6.472656 24 0 26.472656 21.527344 48 48 48s48-21.527344 48-48c0-8.632813-2.3125-16.824219-6.472656-24h17.761718c3.015626 7.414062 4.710938 15.511719 4.710938 24 0 35.289062-28.710938 64-64 64zm32-64c0 17.648437-14.351562 32-32 32s-32-14.351563-32-32c0-9.375 4.113281-17.914063 11.105469-24h41.78125c7 6.085937 11.113281 14.632812 11.113281 24zm-81.878906-40c11.742187-14.609375 29.71875-24 49.878906-24s38.144531 9.390625 49.878906 24zm129.292968 30.710937c-4.621093-39.742187-38.445312-70.710937-79.414062-70.710937-41.414062 0-75.566406 31.632812-79.59375 72h-40.40625v-32c0-17.464844 8.480469-33.945313 22.679688-44.089844l3.929687-2.808594c16.214844-11.574219 26.648437-29.535156 28.902344-49.109375h160.488281v104c0 10.640625-6.992188 19.566406-16.585938 22.71875zm48.585938-44.960937-16 4.007812v-43.511719l16 4.007813zm0 0"/></svg>