<svg height="496pt" viewBox="0 0 496 496" width="496pt" xmlns="http://www.w3.org/2000/svg"><path d="m376 40v-32h112v32zm0 0" fill="#a0d468"/><path d="m8 40v-32h112v32zm0 0" fill="#a0d468"/><path d="m360 168h56c4.414062 0 8 3.585938 8 8v240c0 4.414062-3.585938 8-8 8h-336c-4.414062 0-8-3.585938-8-8v-240c0-4.414062 3.585938-8 8-8zm0 0" fill="#ff826e"/><path d="m313.648438 169.070312c.847656 2.664063 1.992187 5.152344 3.40625 7.425782 6.089843 9.703125 16.511718 15.503906 27.914062 15.503906 8.679688 0 17.175781-3.511719 23.3125-9.65625l14.34375-14.34375h-69.3125c.152344.503906.296875.992188.335938 1.070312zm0 0" fill="#fc6e51"/><path d="m392 40v48l-59.03125 59.03125c-3.175781 3.175781-4.96875 7.496094-4.96875 12 0 1.519531.265625 2.976562.640625 4.375.070313.273438.160156.53125.246094.792969.433593 1.34375.992187 2.625 1.730469 3.800781 3 4.792969 8.285156 8 14.351562 8 4.503906 0 8.816406-1.792969 12-4.96875l35.03125-35.03125h8v32h16c4.414062 0 8 3.585938 8 8v112l33.992188-40.792969c3.917968-4.703125 6.40625-10.4375 7.167968-16.519531l6.59375-52.710938c.167969-1.3125.246094-2.640624.246094-3.96875v-134.007812zm0 0" fill="#f0d0b4"/><path d="m416 152h-16v16h16c4.414062 0 8 3.585938 8 8v112l16-19.199219v-92.800781c0-13.230469-10.769531-24-24-24zm0 0" fill="#ecc19c"/><path d="m127.71875 182.34375c6.128906 6.144531 14.632812 9.65625 23.3125 9.65625 11.402344 0 21.832031-5.800781 27.9375-15.542969 1.367188-2.199219 2.496094-4.65625 3.375-7.335937l.335938-1.121094h-69.304688zm0 0" fill="#fc6e51"/><path d="m104 40v48l59.03125 59.03125c3.183594 3.183594 4.96875 7.496094 4.96875 12 0 1.519531-.265625 2.976562-.640625 4.375-.070313.273438-.160156.53125-.246094.792969-.433593 1.34375-.992187 2.625-1.730469 3.800781-3 4.792969-8.285156 8-14.351562 8-4.503906 0-8.816406-1.792969-12-4.96875l-35.03125-35.03125h-8v32h-16c-4.414062 0-8 3.585938-8 8v112l-33.992188-40.792969c-3.917968-4.703125-6.40625-10.4375-7.167968-16.519531l-6.59375-52.710938c-.167969-1.3125-.246094-2.640624-.246094-3.96875v-134.007812zm0 0" fill="#f0d0b4"/><path d="m96 168v-16h-16c-13.230469 0-24 10.769531-24 24v92.800781l16 19.199219v-112c0-4.414062 3.585938-8 8-8zm0 0" fill="#ecc19c"/><path d="m424 328h-352v-32h352zm0 0" fill="#fcd770"/><path d="m176 296h64v32h-64zm0 0" fill="#ffc729"/><path d="m192 168h32v256h-32zm0 0" fill="#fcd770"/><path d="m24 40h80v16h-80zm0 0" fill="#ecc19c"/><path d="m392 40h80v16h-80zm0 0" fill="#ecc19c"/><path d="m368 0v48h16v36.6875l-56.6875 56.6875c-4.71875 4.714844-7.3125 10.984375-7.3125 17.65625 0 .328125.089844.640625.097656.96875h-144.195312c.007812-.328125.097656-.640625.097656-.96875 0-6.671875-2.59375-12.941406-7.3125-17.65625l-56.6875-56.6875v-36.6875h16v-48h-128v48h16v126.007812c0 1.664063.113281 3.3125.3125 4.960938l6.582031 52.710938c.945313 7.609374 4.050781 14.753906 8.960938 20.648437l32.144531 38.566406v125.105469c0 8.824219 7.175781 16 16 16h336c8.824219 0 16-7.175781 16-16v-125.105469l32.144531-38.566406c4.910157-5.894531 8.015625-13.039063 8.960938-20.648437l6.582031-52.71875c.199219-1.640626.3125-3.296876.3125-4.953126v-126.007812h16v-48zm-23.03125 184c6.574219 0 13.007812-2.664062 17.65625-7.3125l.6875-.6875h52.6875v112h-184v-112h94.761719c4.558593 4.886719 11.007812 8 18.207031 8zm47.03125-24h-12.6875l12.6875-12.6875zm-312 144h104v16h-104zm120-128h16v240h-16zm32 128h184v16h-184zm-48-128v112h-104v-112h52.6875l.6875.6875c4.648438 4.648438 11.082031 7.3125 17.65625 7.3125 7.199219 0 13.648438-3.113281 18.207031-8zm-80-16v-12.6875l12.6875 12.6875zm-88-144h96v16h-96zm28.160156 226.089844c-2.953125-3.546875-4.816406-7.824219-5.382812-12.386719l-6.585938-52.710937c-.128906-.992188-.191406-1.992188-.191406-2.984376v-126.007812h64v43.3125l61.375 61.375c1.695312 1.695312 2.625 3.945312 2.625 6.34375 0 4.945312-4.023438 8.96875-8.96875 8.96875-2.359375 0-4.671875-.960938-6.34375-2.625l-37.375-37.375h-19.3125v32h-8c-8.824219 0-16 7.175781-16 16v89.894531zm35.839844 93.910156h104v80h-104zm152 80v-80h184v80zm232-241.992188c0 1-.0625 1.992188-.183594 2.976563l-6.585937 52.71875c-.566407 4.5625-2.429688 8.839844-5.382813 12.386719l-19.847656 23.804687v-89.894531c0-8.824219-7.175781-16-16-16h-8v-32h-19.3125l-37.375 37.375c-1.671875 1.664062-3.984375 2.625-6.34375 2.625-4.945312 0-8.96875-4.023438-8.96875-8.96875 0-2.398438.929688-4.648438 2.625-6.34375l61.375-61.375v-43.3125h64zm16-142.007812h-96v-16h96zm0 0"/><path d="m0 320h16v128h-16zm0 0"/><path d="m0 288h16v16h-16zm0 0"/><path d="m32 368h16v128h-16zm0 0"/><path d="m32 336h16v16h-16zm0 0"/><path d="m480 320h16v128h-16zm0 0"/><path d="m480 288h16v16h-16zm0 0"/><path d="m448 368h16v128h-16zm0 0"/><path d="m448 336h16v16h-16zm0 0"/><path d="m320 384h16v16h-16zm0 0"/><path d="m352 384h16v16h-16zm0 0"/><path d="m384 384h16v16h-16zm0 0"/></svg>