<svg height="496pt" viewBox="0 -55 496 495" width="496pt" xmlns="http://www.w3.org/2000/svg"><path d="m248 376.78125 240-64v-240l-240-64-240 64v240zm0 0" fill="#dfb28b"/><path d="m8 72.78125 240 64v240l-240-64zm0 0" fill="#f0d0b4"/><g fill="#cf9e76"><path d="m248 136.78125 240-64-240-64-240 64zm0 0"/><path d="m80 91.980469v52.800781l88 24v-53.335938zm0 0"/><path d="m80 331.980469 88 23.464843v-58.664062l-88-24zm0 0"/></g><path d="m81.0625 92.261719 85.015625 22.671875 240.890625-63.761719-85.015625-22.671875zm0 0" fill="#b27946"/><path d="m248 .5-248 66.136719v252.296875l245.9375 65.574218 2.0625.550782 248-66.132813v-252.289062zm0 128-42.945312-11.457031 208.953124-55.71875 42.945313 11.457031zm-138.953125-37.054688 208.953125-55.722656 64.953125 17.320313-208.953125 55.722656zm-21.046875 10.949219 72 19.203125v36.710938l-72-19.640625zm198.945312-74.949219-208.945312 55.71875-38.953125-10.382812 208.953125-55.722656zm-270.945312 55.75 56 14.9375v52.757813l104 28.363281v-53.394531l64 17.066406v223.4375l-64-17.0625v-58.625l-104-28.375v59.261719l-56-14.933594zm144 261.832032-72-19.199219v-42.566406l72 19.628906zm96 21.335937v-223.4375l224-59.738281v223.441406zm0 0"/><path d="m448 280.78125h16v16h-16zm0 0"/><path d="m416 288.78125h16v16h-16zm0 0"/><path d="m384 296.78125h16v16h-16zm0 0"/></svg>