<svg height="496pt" viewBox="0 0 496 496" width="496pt" xmlns="http://www.w3.org/2000/svg"><path d="m80 184v-16c0-8.839844-7.160156-16-16-16s-16 7.160156-16 16v32zm0 0" fill="#fcd770"/><path d="m416 184v-16c0-8.839844 7.160156-16 16-16s16 7.160156 16 16v32zm0 0" fill="#fcd770"/><path d="m144 152v-40c0-8.839844-7.160156-16-16-16s-16 7.160156-16 16v56zm0 0" fill="#ccd1d9"/><path d="m200 376-96 40v24h288v-24l-96-40zm0 0" fill="#ccd1d9"/><path d="m272.96875 381.664062c-.28125-1.992187-.871094-3.855468-1.59375-5.664062h-46.757812c-.722657 1.800781-1.304688 3.671875-1.59375 5.65625l-8.328126 58.34375h66.609376zm0 0" fill="#aab2bd"/><path d="m352 152v-40c0-8.839844 7.160156-16 16-16s16 7.160156 16 16v56zm0 0" fill="#ccd1d9"/><path d="m352 133.519531v18.480469l32 16v-19.246094zm0 0" fill="#aab2bd"/><path d="m368 96c-8.839844 0-16 7.160156-16 16v16h32v-16c0-8.839844-7.160156-16-16-16zm0 0" fill="#fcd770"/><path d="m144 133.519531-32 15.234375v19.246094l32-16zm0 0" fill="#aab2bd"/><path d="m128 96c-8.839844 0-16 7.160156-16 16v16h32v-16c0-8.839844-7.160156-16-16-16zm0 0" fill="#fcd770"/><path d="m296 376h-96l-15.328125 6.382812.136719 1.050782 40.566406 40.566406h45.25l40.566406-40.566406.136719-1.050782zm0 0" fill="#aab2bd"/><path d="m80 168c0-1.304688-.199219-2.558594-.496094-3.769531l-31.503906 15v20.769531l32-16zm0 0" fill="#ffc729"/><path d="m416.496094 164.230469c-.296875 1.210937-.496094 2.464843-.496094 3.769531v16l32 16v-20.769531zm0 0" fill="#ffc729"/><path d="m176 136-168 80v32h480v-32l-168-80zm0 0" fill="#ccd1d9"/><path d="m176 136-14.617188 6.960938c-.824218 8.464843-1.382812 16.976562-1.382812 25.535156 0 10.960937.6875 22.015625 2.046875 32.863281l5.824219 46.640625h160.257812l5.832032-46.632812c1.351562-10.855469 2.039062-21.902344 2.039062-32.871094 0-8.566406-.558594-17.070313-1.382812-25.535156l-14.617188-6.960938zm0 0" fill="#aab2bd"/><path d="m488 216h-480v32h480zm0 0" fill="#fcd770"/><path d="m167.871094 248h160.257812l4-32h-168.257812zm0 0" fill="#ffc729"/><path d="m264 408 32-32 22.078125-176.617188c1.28125-10.238281 1.921875-20.558593 1.921875-30.878906 0-47.351562-13.503906-93.71875-38.921875-133.664062l-8.484375-13.335938c-5.355469-8.414062-14.625-13.503906-24.59375-13.503906s-19.238281 5.089844-24.59375 13.496094l-8.484375 13.335937c-25.417969 39.953125-38.921875 86.320313-38.921875 133.664063 0 10.320312.640625 20.640625 1.921875 30.878906l22.078125 176.625 32 32zm0 0" fill="#e6e9ed"/><path d="m272.96875 381.664062c-1.761719-12.351562-12.488281-21.664062-24.96875-21.664062s-23.207031 9.3125-24.96875 21.65625l-2.167969 15.199219 11.136719 11.144531h32l11.136719-11.136719zm0 0" fill="#ccd1d9"/><path d="m272 488h-48l14.871094-104.078125c.648437-4.546875 4.535156-7.921875 9.128906-7.921875s8.480469 3.375 9.128906 7.921875zm0 0" fill="#e6e9ed"/><path d="m248 128c-17.671875 0-32-14.328125-32-32h64c0 17.671875-14.328125 32-32 32zm0 0" fill="#ccd1d9"/><path d="m208 96c0 22.054688 17.945312 40 40 40s40-17.945312 40-40v-8h-80zm62.632812 8c-3.304687 9.3125-12.199218 16-22.632812 16s-19.328125-6.6875-22.632812-16zm0 0"/><path d="m456 191.894531v-23.894531c0-13.230469-10.769531-24-24-24s-24 10.769531-24 24v1.039062l-16-7.613281v-49.425781c0-13.230469-10.769531-24-24-24s-24 10.769531-24 24v26.566406l-19.046875-9.070312c-5.378906-35.0625-17.898437-68.726563-37.128906-98.960938l-8.488281-13.335937c-6.855469-10.765625-18.566407-17.199219-31.335938-17.199219s-24.480469 6.433594-31.335938 17.199219l-8.488281 13.335937c-19.230469 30.226563-31.75 63.898438-37.128906 98.953125l-19.046875 9.078125v-26.566406c0-13.230469-10.769531-24-24-24s-24 10.769531-24 24v49.425781l-16 7.613281v-1.039062c0-13.230469-10.769531-24-24-24s-24 10.769531-24 24v23.894531l-40 19.050781v45.054688h176.9375l14.367188 114.960938-95.304688 39.703124v37.335938h125.632812l-6.855468 48h66.445312l-6.855468-48h125.632812v-37.335938l-95.304688-39.703124 14.367188-114.960938h176.9375v-45.054688zm-32-23.894531c0-4.414062 3.59375-8 8-8s8 3.585938 8 8v16.28125l-16-7.617188zm-56-64c4.40625 0 8 3.585938 8 8v8h-16v-8c0-4.414062 3.59375-8 8-8zm-8 32h16v17.800781l-16-7.617187zm-232-32c4.40625 0 8 3.585938 8 8v8h-16v-8c0-4.414062 3.59375-8 8-8zm-8 32h16v10.183594l-16 7.617187zm-64 32c0-4.414062 3.59375-8 8-8s8 3.585938 8 8v8.65625l-16 7.617188zm-40 72v-16h144v-16h-116.585938l125.441407-59.734375c-.527344 6.710937-.855469 13.453125-.855469 20.230469 0 10.625.664062 21.351562 1.984375 31.871094l4.953125 39.632812zm96 192v-10.664062l86.128906-35.886719 28.214844 28.207031.230469-.230469-2.652344 18.574219zm121.222656 48 13.5625-94.945312c.167969-1.199219 2.253906-1.199219 2.429688 0l13.5625 94.945312zm150.777344-48h-111.921875l-2.652344-18.574219.230469.230469 28.214844-28.207031 86.128906 35.886719zm-95.601562-59.71875-21.742188 21.75-1.609375-11.238281c-1.207031-8.433594-8.535156-14.792969-17.046875-14.792969s-15.839844 6.359375-17.046875 14.792969l-1.609375 11.238281-21.742188-21.75-21.738281-173.890625c-1.238281-9.871094-1.863281-19.917969-1.863281-29.894531 0-45.902344 13.023438-90.640625 37.671875-129.367188l8.488281-13.335937c3.902344-6.128907 10.574219-9.792969 17.839844-9.792969s13.9375 3.664062 17.839844 9.800781l8.488281 13.335938c24.648437 38.71875 37.671875 83.457031 37.671875 129.359375 0 9.96875-.625 20.023437-1.855469 29.886718zm32.664062-132.28125 4.953125-39.625c1.320313-10.527344 1.984375-21.246094 1.984375-31.878906 0-6.777344-.328125-13.519532-.855469-20.230469l125.441407 59.734375h-116.585938v16h144v16zm0 0"/><path d="m0 272h16v80h-16zm0 0"/><path d="m0 368h16v16h-16zm0 0"/><path d="m32 320h16v88h-16zm0 0"/><path d="m32 424h16v16h-16zm0 0"/><path d="m64 376h16v88h-16zm0 0"/><path d="m64 480h16v16h-16zm0 0"/><path d="m480 272h16v80h-16zm0 0"/><path d="m480 368h16v16h-16zm0 0"/><path d="m448 320h16v88h-16zm0 0"/><path d="m448 424h16v16h-16zm0 0"/><path d="m416 376h16v88h-16zm0 0"/><path d="m416 480h16v16h-16zm0 0"/></svg>