<svg height="496pt" viewBox="-1 0 495 496" width="496pt" xmlns="http://www.w3.org/2000/svg"><path d="m62.628906 248h368v240h-368zm0 0" fill="#cf9e76"/><path d="m62.628906 248h144v240h-144zm0 0" fill="#ecc19c"/><path d="m245.5625 344h185.066406v-96h-224v31.097656zm0 0" fill="#b27946"/><path d="m167.691406 344h-105.0625v-96h144v31.097656zm0 0" fill="#dfb28b"/><path d="m478.628906 328h-224l-48-80h224zm0 0" fill="#ecc19c"/><path d="m14.628906 328h144l48-80h-144zm0 0" fill="#f5e0cd"/><path d="m270.628906 8h-64c-26.511718 0-48 21.488281-48 48v104h-24l48 56 48-56h-24v-96c0-4.414062 3.582032-8 8-8h56zm0 0" fill="#ff826e"/><path d="m492.765625 336-57.601563-96h-377.0625l-57.601562 96h54.128906v160h384v-160zm-66.664063-80 38.398438 64h-205.34375l-38.398438-64zm-358.945312 0h125.335938l-38.398438 64h-125.328125zm355.472656 224h-208v-80h-16v80h-128v-144h92.527344l35.472656-59.113281v107.113281h16v-107.113281l35.472656 59.113281h172.527344zm0 0"/><path d="m326.628906 448h16v16h-16zm0 0"/><path d="m358.628906 448h16v16h-16zm0 0"/><path d="m390.628906 448h16v16h-16zm0 0"/><path d="m248.019531 152h-33.390625v-88h56v-16h-56c-8.824218 0-16 7.175781-16 16v104h14.605469l-30.605469 35.703125-30.609375-35.703125h14.609375v-112c0-22.054688 17.941406-40 40-40h64v-16h-64c-30.871094 0-56 25.121094-56 56v96h-33.394531l65.394531 76.296875zm0 0"/><path d="m286.628906 0h16v64h-16zm0 0"/><path d="m318.628906 0h16v64h-16zm0 0"/><path d="m350.628906 0h16v64h-16zm0 0"/></svg>