<svg height="496pt" viewBox="0 -3 496 496" width="496pt" xmlns="http://www.w3.org/2000/svg"><path d="m200 164.71875v-152l24.046875 11.519531 24.050781-11.519531 24.007813 11.519531 24-11.519531 24 11.519531 23.964843-11.519531 24 11.519531 24-11.519531 23.992188 11.519531 23.976562-11.519531 23.992188 11.519531 23.96875-11.519531v464l-23.96875-11.519531-23.992188 11.519531-23.976562-11.519531-23.992188 11.519531-24-11.519531-24 11.519531-23.964843-11.519531-24 11.519531-24-11.519531-24.007813 11.519531-24.050781-11.519531-24.046875 11.519531zm0 0" fill="#e6e9ed"/><path d="m248 244.71875c0-40.3125-18.777344-76.277344-48-99.757812v199.519531c29.222656-23.480469 48-59.449219 48-99.761719zm0 0" fill="#ccd1d9"/><path d="m232 244.71875c0 61.855469-50.144531 112-112 112s-112-50.144531-112-112 50.144531-112 112-112 112 50.144531 112 112zm0 0" fill="#fcd770"/><path d="m200 244.71875c0 44.183594-35.816406 80-80 80s-80-35.816406-80-80c0-44.179688 35.816406-80 80-80s80 35.820312 80 80zm0 0" fill="#ffeaa7"/><path d="m464.03125 15.367188-23.992188-11.519532-23.976562 11.519532-23.992188-11.519532-24 11.519532-24-11.519532-23.964843 11.519532-24-11.519532-24 11.519532-24-11.511719-24.050781 11.519531-32.054688-15.359375v148.929687c-20.078125-15.136718-44.96875-24.226562-72-24.226562-66.167969 0-120 53.832031-120 120s53.832031 120 120 120c27.03125 0 51.921875-9.085938 72-24.230469v148.925781l32.046875-15.351562 24.050781 11.523438 24-11.515626 24 11.523438 24-11.523438 23.964844 11.523438 24-11.523438 24 11.523438 23.992188-11.523438 23.976562 11.523438 23.992188-11.523438 31.976562 15.371094v-489.441406zm-448.03125 229.351562c0-57.34375 46.65625-104 104-104s104 46.65625 104 104-46.65625 104-104 104-104-46.65625-104-104zm464 219.28125-15.96875-7.671875-23.992188 11.519531-23.976562-11.519531-23.992188 11.519531-24-11.519531-24 11.519531-23.972656-11.519531-24 11.519531-24-11.519531-24.007812 11.519531-24.042969-11.519531-16.046875 7.6875v-137.992187c10.9375-11.832032 19.503906-25.824219 25-41.304688h231v-16h-226.414062c1.0625-5.207031 1.652343-10.574219 2.015624-16h96.398438v-16h-96.40625c-.363281-5.421875-.953125-10.789062-2.019531-16h226.425781v-16h-231c-1.855469-5.230469-4.015625-10.304688-6.550781-15.175781h13.550781v-16h-16v11.570312c-4.511719-7.839843-9.894531-15.097656-16-21.699219v-137.988281l16.046875 7.6875 24.042969-11.519531 24.007812 11.519531 24-11.519531 24 11.519531 23.972656-11.519531 24 11.519531 24-11.519531 23.992188 11.519531 23.976562-11.519531 23.992188 11.519531 15.96875-7.671875zm0 0"/><path d="m224 436.71875h240v-112h-240zm176-48v-48h16v80h-16v-16h-16v16h-16v-80h16v48zm-48 32h-16v-80h16zm-32 0h-16v-80h16zm128 0h-16v-80h16zm-208-80h16v48h16v-48h16v80h-16v-16h-16v16h-16zm0 0"/><path d="m448 52.71875h16v16h-16zm0 0"/><path d="m416 52.71875h16v16h-16zm0 0"/><path d="m384 52.71875h16v16h-16zm0 0"/><path d="m224 84.71875h240v16h-240zm0 0"/><path d="m224 116.71875h240v16h-240zm0 0"/><path d="m256 173.542969h16v16h-16zm0 0"/><path d="m288 173.542969h16v16h-16zm0 0"/><path d="m320 172.71875h144v16h-144zm0 0"/><path d="m352 236.71875h112v16h-112zm0 0"/><path d="m136 276.71875h-32c-4.40625 0-8-3.589844-8-8h-16c0 13.234375 10.769531 24 24 24h8v8h16v-8h8c13.230469 0 24-10.765625 24-24v-8c0-13.230469-10.769531-24-24-24h-32c-4.40625 0-8-3.589844-8-8v-8c0-4.40625 3.59375-8 8-8h32c4.40625 0 8 3.59375 8 8h16c0-13.230469-10.769531-24-24-24h-8v-8h-16v8h-8c-13.230469 0-24 10.769531-24 24v8c0 13.234375 10.769531 24 24 24h32c4.40625 0 8 3.59375 8 8v8c0 4.410156-3.59375 8-8 8zm0 0"/><path d="m120 316.71875c-39.695312 0-72-32.304688-72-72 0-16.558594 5.777344-32.742188 16.257812-45.550781l-12.386718-10.136719c-12.816406 15.664062-19.871094 35.441406-19.871094 55.6875 0 48.519531 39.480469 88 88 88 20.246094 0 40.023438-7.054688 55.6875-19.871094l-10.136719-12.382812c-12.808593 10.480468-28.992187 16.253906-45.550781 16.253906zm0 0"/><path d="m120 156.71875c-20.246094 0-40.023438 7.058594-55.6875 19.875l10.136719 12.382812c12.808593-10.480468 28.992187-16.257812 45.550781-16.257812 39.695312 0 72 32.304688 72 72 0 16.5625-5.777344 32.746094-16.257812 45.554688l12.386718 10.132812c12.816406-15.664062 19.871094-35.4375 19.871094-55.6875 0-48.519531-39.480469-88-88-88zm0 0"/></svg>