<svg xmlns="http://www.w3.org/2000/svg" xmlns:xlink="http://www.w3.org/1999/xlink" viewBox="0 0 532 439.96"><defs><style>.cls-1,.cls-2{fill:url(#linear-gradient);filter:url(#luminosity-invert)}.cls-2{fill:url(#linear-gradient-2)}.cls-3{fill:#73d4fb}.cls-4{isolation:isolate}.cls-5,.cls-55,.cls-68,.cls-69{opacity:.2}.cls-5,.cls-7{mix-blend-mode:multiply}.cls-6{fill:url(#linear-gradient-3)}.cls-7{opacity:.6}.cls-8{fill:url(#linear-gradient-4)}.cls-9{fill:url(#linear-gradient-5)}.cls-10{fill:url(#linear-gradient-6)}.cls-11{fill:url(#linear-gradient-7)}.cls-12{fill:url(#linear-gradient-8)}.cls-13{mask:url(#mask)}.cls-14{opacity:.8}.cls-15{fill:url(#linear-gradient-9)}.cls-16{fill:url(#linear-gradient-10)}.cls-17{fill:url(#linear-gradient-11)}.cls-18{fill:url(#linear-gradient-12)}.cls-19{fill:#fff}.cls-20{mask:url(#mask-2)}.cls-21{fill:url(#linear-gradient-13)}.cls-22{fill:url(#linear-gradient-14)}.cls-23{fill:url(#linear-gradient-15)}.cls-24{fill:url(#linear-gradient-16)}.cls-25,.cls-46,.cls-47{fill:none}.cls-26{fill:#231f20}.cls-27{opacity:.25}.cls-28{fill:url(#linear-gradient-17)}.cls-29{fill:#284255}.cls-29,.cls-46{opacity:.75}.cls-30{fill:#fff4f4}.cls-31{fill:#ffc1c1}.cls-32{fill:#59717f}.cls-32,.cls-47{opacity:.3}.cls-33{fill:#ffd012}.cls-34{fill:#edf0f2}.cls-35{clip-path:url(#clip-path)}.cls-36{fill:url(#linear-gradient-18)}.cls-37{fill:url(#linear-gradient-19)}.cls-38{fill:url(#linear-gradient-20)}.cls-39{fill:url(#linear-gradient-21)}.cls-40{fill:url(#linear-gradient-22)}.cls-41{fill:url(#linear-gradient-23)}.cls-42{fill:url(#linear-gradient-24)}.cls-43{fill:url(#linear-gradient-25)}.cls-44{fill:url(#linear-gradient-26)}.cls-45{fill:url(#linear-gradient-27)}.cls-46,.cls-47{stroke:#284255;stroke-width:3.8px;stroke-linecap:round;stroke-linejoin:round}.cls-47{stroke:#59717f;stroke-width:1.9px}.cls-48{fill:#e6ffee}.cls-49{fill:#b6f0c9}.cls-50{fill:url(#linear-gradient-28)}.cls-51{fill:url(#linear-gradient-29)}.cls-52{fill:url(#linear-gradient-30)}.cls-53{fill:url(#linear-gradient-31)}.cls-54{fill:url(#linear-gradient-32)}.cls-55{mix-blend-mode:screen}.cls-56{fill:#6e615a}.cls-57{fill:url(#linear-gradient-33)}.cls-58{fill:url(#linear-gradient-34)}.cls-59{fill:url(#linear-gradient-35)}.cls-60{fill:url(#linear-gradient-36)}.cls-61{fill:url(#linear-gradient-37)}.cls-62{fill:url(#linear-gradient-38)}.cls-63{fill:url(#linear-gradient-39)}.cls-64{fill:url(#linear-gradient-40)}.cls-65{fill:url(#linear-gradient-41)}.cls-66{fill:url(#linear-gradient-42)}.cls-67{fill:url(#linear-gradient-43)}.cls-68{fill:url(#linear-gradient-44)}.cls-69{fill:url(#linear-gradient-45)}</style><linearGradient id="linear-gradient" x1="2367.22" y1="1236.28" x2="2251.34" y2="1199.38" gradientTransform="matrix(-1.11 -.55 -.45 .89 3563.94 496.22)" gradientUnits="userSpaceOnUse"><stop offset="0"/><stop offset=".9" stop-color="#fff"/></linearGradient><linearGradient id="linear-gradient-2" x1="2729.91" y1="1211.99" x2="2620.91" y2="1164.67" gradientTransform="matrix(-1.11 -.55 -.45 .89 3563.94 496.22)" gradientUnits="userSpaceOnUse"><stop offset=".1" stop-color="#fff"/><stop offset="1"/></linearGradient><linearGradient id="linear-gradient-3" x1="375.12" y1="380.14" x2="180.7" y2="262.33" gradientUnits="userSpaceOnUse"><stop offset="0" stop-color="#a7a9ac" stop-opacity="0"/><stop offset=".15" stop-color="#a7a9ac" stop-opacity=".02"/><stop offset=".3" stop-color="#a7a9ac" stop-opacity=".09"/><stop offset=".46" stop-color="#a7a9ac" stop-opacity=".21"/><stop offset=".61" stop-color="#a7a9ac" stop-opacity=".38"/><stop offset=".77" stop-color="#a7a9ac" stop-opacity=".59"/><stop offset=".92" stop-color="#a7a9ac" stop-opacity=".85"/><stop offset="1" stop-color="#a7a9ac"/></linearGradient><linearGradient id="linear-gradient-4" x1="219.84" y1="404.72" x2="139.55" y2="436" xlink:href="#linear-gradient-3"/><linearGradient id="linear-gradient-5" x1="156.64" y1="85.19" x2="182.6" y2="85.19" gradientUnits="userSpaceOnUse"><stop offset="0" stop-color="#6c8"/><stop offset="1" stop-color="#49b877"/></linearGradient><linearGradient id="linear-gradient-6" x1="181.9" y1="182.39" x2="376.83" y2="182.39" xlink:href="#linear-gradient-5"/><linearGradient id="linear-gradient-7" x1="341.05" y1="302.19" x2="358.48" y2="302.19" xlink:href="#linear-gradient-5"/><linearGradient id="linear-gradient-8" x1="155.17" y1="192.36" x2="367.77" y2="192.36" gradientUnits="userSpaceOnUse"><stop offset="0" stop-color="#a9ebbf"/><stop offset="1" stop-color="#6c8"/></linearGradient><filter id="luminosity-invert" filterUnits="userSpaceOnUse" color-interpolation-filters="sRGB"><feColorMatrix values="-1 0 0 0 1 0 -1 0 0 1 0 0 -1 0 1 0 0 0 1 0"/></filter><mask id="mask" x="393.17" y="200.81" width="138.83" height="211.06" maskUnits="userSpaceOnUse"><path class="cls-1" d="M393.17 335.79L532 411.87V270.53l-137.45-69.72-1.38 134.98z"/></mask><linearGradient id="linear-gradient-9" x1="2900.89" y1="242.78" x2="2916.47" y2="242.78" gradientTransform="matrix(-1 0 0 1 3316.35 0)" xlink:href="#linear-gradient-5"/><linearGradient id="linear-gradient-10" x1="2784.35" y1="300.02" x2="2901.31" y2="300.02" gradientTransform="matrix(-1 0 0 1 3316.35 0)" xlink:href="#linear-gradient-5"/><linearGradient id="linear-gradient-11" x1="2795.36" y1="370.82" x2="2805.82" y2="370.82" gradientTransform="matrix(-1 0 0 1 3316.35 0)" xlink:href="#linear-gradient-5"/><linearGradient id="linear-gradient-12" x1="2918.86" y1="306.01" x2="2782.49" y2="306.01" gradientTransform="matrix(-1 0 0 1 3316.35 0)" xlink:href="#linear-gradient-8"/><mask id="mask-2" x="0" y="-27.55" width="261.27" height="207.44" maskUnits="userSpaceOnUse"><path class="cls-2" d="M0 108.15l133 71.74V38.55L0-27.55v135.7z"/></mask><linearGradient id="linear-gradient-13" x1="2998.72" y1="-230.39" x2="3108.37" y2="-144.95" gradientTransform="matrix(-1 0 0 1 3316.35 0)" xlink:href="#linear-gradient-5"/><linearGradient id="linear-gradient-14" x1="2946" y1="-162.74" x2="3055.65" y2="-77.29" gradientTransform="matrix(-1 0 0 1 3316.35 0)" xlink:href="#linear-gradient-5"/><linearGradient id="linear-gradient-15" x1="2895.61" y1="-98.07" x2="3005.26" y2="-12.63" gradientTransform="matrix(-1 0 0 1 3316.35 0)" xlink:href="#linear-gradient-5"/><linearGradient id="linear-gradient-16" x1="3317.86" y1="74.03" x2="3181.49" y2="74.03" gradientTransform="matrix(-1 0 0 1 3316.35 0)" xlink:href="#linear-gradient-8"/><linearGradient id="linear-gradient-17" x1="189.15" y1="197.17" x2="336.8" y2="197.17" xlink:href="#linear-gradient-5"/><clipPath id="clip-path"><path id="_Clipping_Path_" data-name="&amp;lt;Clipping Path&amp;gt;" class="cls-3" d="M197.76 142.07c0 7.39 5.38 16.48 12 20.31s12 .95 12-6.44-5.38-16.48-12-20.31-12-.95-12 6.44z"/></clipPath><linearGradient id="linear-gradient-18" x1="1270.6" y1="2767.86" x2="1278.04" y2="2775.39" gradientTransform="matrix(-.67 -1.12 -.55 .58 2579.29 -38.42)" gradientUnits="userSpaceOnUse"><stop offset="0" stop-color="#d6a19b"/><stop offset="1" stop-color="#ffd6d2"/></linearGradient><linearGradient id="linear-gradient-19" x1="1964.83" y1="1084.67" x2="1987.72" y2="1084.67" gradientTransform="matrix(-.87 -.5 0 1.15 1921.29 -102.45)" gradientUnits="userSpaceOnUse"><stop offset="0" stop-color="#d65f70"/><stop offset="1" stop-color="#ff8595"/></linearGradient><linearGradient id="linear-gradient-20" x1="1369.22" y1="2658.15" x2="1375.83" y2="2658.15" gradientTransform="matrix(-.7 -1.08 -.51 .64 2521.27 -69.31)" xlink:href="#linear-gradient-19"/><linearGradient id="linear-gradient-21" x1="1966.22" y1="1062.44" x2="1988.22" y2="1079.96" gradientTransform="matrix(-.87 -.5 0 1.15 1921.29 -102.45)" gradientUnits="userSpaceOnUse"><stop offset="0" stop-color="#2b2022"/><stop offset="1" stop-color="#452a2d"/></linearGradient><linearGradient id="linear-gradient-22" x1="1972.19" y1="1070.5" x2="1968.68" y2="1077.43" gradientTransform="matrix(-.87 -.5 0 1.15 1921.29 -102.45)" gradientUnits="userSpaceOnUse"><stop offset="0" stop-color="#ffd6d2"/><stop offset="1" stop-color="#d6a19b"/></linearGradient><linearGradient id="linear-gradient-23" x1="1982.75" y1="1070.5" x2="1979.24" y2="1077.43" xlink:href="#linear-gradient-22"/><linearGradient id="linear-gradient-24" x1="1967.93" y1="1058.52" x2="1978.78" y2="1074.62" gradientTransform="matrix(-.87 -.5 0 1.15 1921.29 -102.45)" xlink:href="#linear-gradient-18"/><linearGradient id="linear-gradient-25" x1="1979.85" y1="1068.39" x2="1984.41" y2="1072.01" xlink:href="#linear-gradient-21"/><linearGradient id="linear-gradient-26" x1="1967.9" y1="1060.92" x2="1986.06" y2="1075.38" xlink:href="#linear-gradient-21"/><linearGradient id="linear-gradient-27" x1="1968.54" y1="1068.52" x2="1973.45" y2="1072.43" xlink:href="#linear-gradient-21"/><linearGradient id="linear-gradient-28" x1="3118.48" y1="370.15" x2="3173.6" y2="350.88" gradientTransform="matrix(-1 0 0 1 3316.35 0)" gradientUnits="userSpaceOnUse"><stop offset="0" stop-color="#e0a28c"/><stop offset=".5" stop-color="#efb29a"/><stop offset="1" stop-color="#fcc9bb"/></linearGradient><linearGradient id="linear-gradient-29" x1="3096.45" y1="418.46" x2="3130.14" y2="404.46" gradientTransform="matrix(-1 0 0 1 3282.35 0)" gradientUnits="userSpaceOnUse"><stop offset="0" stop-color="#1c2126"/><stop offset=".39" stop-color="#303841"/><stop offset="1" stop-color="#45525b"/></linearGradient><linearGradient id="linear-gradient-30" x1="3095.19" y1="380.01" x2="3151.19" y2="360.43" xlink:href="#linear-gradient-28"/><linearGradient id="linear-gradient-31" x1="3073.52" y1="429.77" x2="3112.36" y2="413.28" xlink:href="#linear-gradient-29"/><linearGradient id="linear-gradient-32" x1="3075.58" y1="302.13" x2="3143.73" y2="321.08" gradientTransform="matrix(-1 0 0 1 3282.35 0)" gradientUnits="userSpaceOnUse"><stop offset="0" stop-color="#1c538a"/><stop offset=".52" stop-color="#2479b3"/><stop offset="1" stop-color="#477db3"/></linearGradient><linearGradient id="linear-gradient-33" x1="3094.26" y1="201.22" x2="3110.93" y2="211.63" gradientTransform="matrix(-1 0 0 1 3282.35 0)" xlink:href="#linear-gradient-28"/><linearGradient id="linear-gradient-34" x1="3069.02" y1="197.84" x2="3120.61" y2="177.29" gradientTransform="matrix(-1 .04 .04 1 3272.51 -121.58)" xlink:href="#linear-gradient-28"/><linearGradient id="linear-gradient-35" x1="3086.67" y1="187.23" x2="3124.15" y2="167.56" gradientTransform="matrix(-1 0 0 1 3282.35 0)" gradientUnits="userSpaceOnUse"><stop offset="0" stop-color="#141719"/><stop offset=".5" stop-color="#23272b"/><stop offset="1" stop-color="#343d42"/></linearGradient><linearGradient id="linear-gradient-36" x1="3020.07" y1="283.61" x2="3139.76" y2="226.94" gradientTransform="matrix(-1 0 0 1 3282.35 0)" gradientUnits="userSpaceOnUse"><stop offset="0" stop-color="#528fcc"/><stop offset="1" stop-color="#9ef"/></linearGradient><linearGradient id="linear-gradient-37" x1="-2510.01" y1="642.51" x2="-2492.95" y2="631.35" gradientTransform="rotate(9.34 1699.06 16868.007)" gradientUnits="userSpaceOnUse"><stop offset="0" stop-color="#276641"/><stop offset=".58" stop-color="#41a36f"/><stop offset="1" stop-color="#6adb97"/></linearGradient><linearGradient id="linear-gradient-38" x1="-2500.31" y1="654.39" x2="-2488.69" y2="654.39" gradientTransform="rotate(90 -918.185 1765.025)" xlink:href="#linear-gradient-37"/><linearGradient id="linear-gradient-39" x1="-2493.15" y1="661.43" x2="-2484.55" y2="661.43" gradientTransform="rotate(9.34 1699.06 16868.007)" gradientUnits="userSpaceOnUse"><stop offset="0" stop-color="#276641"/><stop offset="1" stop-color="#41a36f"/></linearGradient><linearGradient id="linear-gradient-40" x1="-2499.12" y1="655.03" x2="-2487.5" y2="655.03" gradientTransform="rotate(90 -917.15 1765.7)" gradientUnits="userSpaceOnUse"><stop offset="0" stop-color="#3c9e64"/><stop offset=".58" stop-color="#4dbf82"/><stop offset="1" stop-color="#6adb97"/></linearGradient><linearGradient id="linear-gradient-41" x1="3124.57" y1="186.93" x2="3119.1" y2="195.18" gradientTransform="matrix(-1 0 0 1 3316.35 0)" xlink:href="#linear-gradient-39"/><linearGradient id="linear-gradient-42" x1="334.38" y1="2022.17" x2="419.52" y2="2022.17" gradientTransform="rotate(66.24 1644.682 1014.28)" gradientUnits="userSpaceOnUse"><stop offset="0" stop-color="#ffd3b6"/><stop offset=".5" stop-color="#f0be99"/><stop offset="1" stop-color="#dda885"/></linearGradient><linearGradient id="linear-gradient-43" x1="3107.58" y1="244.66" x2="3131.51" y2="221.73" gradientTransform="matrix(-1 0 0 1 3316.35 0)" xlink:href="#linear-gradient-36"/><linearGradient id="linear-gradient-44" x1="483.85" y1="438.42" x2="393.23" y2="389.77" xlink:href="#linear-gradient-3"/><linearGradient id="linear-gradient-45" x1="-9.68" y1="149.91" x2="143.56" y2="246.66" xlink:href="#linear-gradient-3"/></defs><title>ticketing</title><g class="cls-4"><g id="Layer_2" data-name="Layer 2"><g id="Layer_1-2" data-name="Layer 1"><path class="cls-5 cls-6" d="M347.51 370.92a9 9 0 0 1-4.5-1.21l-163-95.8a9 9 0 1 1 9-15.59l163 95.8a9 9 0 0 1-4.5 16.79z"/><path class="cls-7 cls-8" d="M218.1 419.68c0 11.2-16.41 20.28-36.65 20.28-8.63 0-8.24-9.11-14.5-11.87-8.43-3.72-22.15-2-22.15-8.41 0-11.2 16.41-20.28 36.65-20.28 8.34 0 8.92 8.26 15.08 10.85 8.79 3.75 21.57 2.85 21.57 9.43z"/><path class="cls-9" d="M165.7 81.86a2.67 2.67 0 0 1 2.4 0c5.62 2.32 10.66 2.18 14.49 0l-9.06 5.27c-3.83 2.23-8.88 2.36-14.49 0a2.67 2.67 0 0 0-2.4 0z"/><path class="cls-10" d="M191 67.47a3 3 0 0 1 3 .29l153.51 88.63a9.45 9.45 0 0 1 4.2 6.65c1.55 13.68 10.41 29 21.52 37.23a9.49 9.49 0 0 1 3.62 6.94l-.22 82.39a3 3 0 0 1-1.24 2.74l-9.06 5.27a3 3 0 0 0 1.24-2.74l.22-82.39a9.49 9.49 0 0 0-3.62-6.94c-11.1-8.24-20-23.56-21.52-37.23a9.45 9.45 0 0 0-4.2-6.65L184.92 73a3 3 0 0 0-3-.29z"/><path class="cls-11" d="M349.42 297.66l9.06-5.26c-3.77 2.19-6.37 6.41-7.18 12.28a2.67 2.67 0 0 1-1.19 2L341 312a2.67 2.67 0 0 0 1.19-2c.81-5.93 3.46-10.15 7.23-12.34z"/><path class="cls-12" d="M338.43 161.65a9.45 9.45 0 0 1 4.2 6.65c1.55 13.68 10.41 29 21.52 37.23a9.49 9.49 0 0 1 3.62 6.94l-.22 82.39c0 2.45-1.57 3.6-3.65 2.74-11.11-4.59-20 .49-21.66 12.34-.31 2.22-2.09 3-4.23 1.75l-153.5-88.63a9.51 9.51 0 0 1-4.2-6.61c-1.55-13.68-10.39-29-21.52-37.27a9.44 9.44 0 0 1-3.63-6.94l.22-82.39c0-2.42 1.57-3.6 3.65-2.74 11.14 4.61 20-.46 21.66-12.31.31-2.25 2.12-3 4.23-1.78z"/><g class="cls-13 cls-14"><path class="cls-15" d="M405.32 240.79a1.6 1.6 0 0 1 1.44 0c3.37 1.39 6.4 1.31 8.7 0l-5.46 3.12c-2.3 1.34-5.33 1.42-8.7 0a1.6 1.6 0 0 0-1.44 0z"/><path class="cls-16" d="M420.48 232.15a1.8 1.8 0 0 1 1.81.17l92.1 53.18a5.67 5.67 0 0 1 2.52 4 34.88 34.88 0 0 0 12.91 22.34A5.7 5.7 0 0 1 532 316l-.13 47.27a1.79 1.79 0 0 1-.74 1.64l-5.44 3.16a1.79 1.79 0 0 0 .74-1.64l.13-47.27a5.7 5.7 0 0 0-2.17-4.17 34.88 34.88 0 0 1-12.91-22.34 5.67 5.67 0 0 0-2.52-4l-92.1-53.18a1.8 1.8 0 0 0-1.81-.17z"/><path class="cls-17" d="M515.55 368.1l5.44-3.16c-2.26 1.32-3.82 3.84-4.31 7.37a1.6 1.6 0 0 1-.72 1.23l-5.44 3.16a1.6 1.6 0 0 0 .72-1.23c.49-3.52 2.05-6.05 4.31-7.37z"/><path class="cls-18" d="M509 288.66a5.67 5.67 0 0 1 2.52 4A34.88 34.88 0 0 0 524.39 315a5.7 5.7 0 0 1 2.17 4.17l-.13 47.27c0 1.47-.94 2.16-2.19 1.64-6.67-2.75-12 .3-13 7.4-.18 1.33-1.25 1.79-2.54 1l-92.1-53.18a5.7 5.7 0 0 1-2.52-4 34.88 34.88 0 0 0-12.9-22.3 5.66 5.66 0 0 1-2.18-4.17l.13-47.27c0-1.45.94-2.16 2.19-1.64 6.68 2.76 12-.28 13-7.39.18-1.35 1.27-1.8 2.54-1.07z"/><path class="cls-19" d="M479.74 305.6a1.34 1.34 0 0 1-.74 1.4l-19.36 8.18-3.64 1.52a2 2 0 0 1-1.82-.3 5.29 5.29 0 0 1-1.82-1.8s-6.8-11.24-6.8-12a1.34 1.34 0 0 1 .75-1.38l3.63-1.54a1.73 1.73 0 0 1 1.74 0c.71.41 5.53 7.85 5.53 7.85l17.54-7.44a2 2 0 0 1 1.82.3 16 16 0 0 1 3.17 5.21z"/></g><g class="cls-20 cls-14"><path class="cls-21" d="M6.32 8.81a1.6 1.6 0 0 1 1.44 0c3.37 1.39 6.4 1.31 8.7 0L11 11.94c-2.3 1.34-5.33 1.42-8.7 0A1.6 1.6 0 0 0 .88 12z"/><path class="cls-22" d="M21.48.17a1.8 1.8 0 0 1 1.81.17l92.1 53.18a5.67 5.67 0 0 1 2.52 4 34.88 34.88 0 0 0 12.91 22.34A5.7 5.7 0 0 1 133 84l-.13 47.27a1.79 1.79 0 0 1-.74 1.64l-5.44 3.16a1.79 1.79 0 0 0 .74-1.64l.13-47.27a5.7 5.7 0 0 0-2.17-4.16 34.88 34.88 0 0 1-12.91-22.34 5.67 5.67 0 0 0-2.52-4L17.85 3.51A1.8 1.8 0 0 0 16 3.33z"/><path class="cls-23" d="M116.55 136.12L122 133c-2.26 1.32-3.82 3.84-4.31 7.37a1.6 1.6 0 0 1-.72 1.23l-5.44 3.16a1.6 1.6 0 0 0 .72-1.23c.48-3.53 2.04-6.09 4.3-7.41z"/><path class="cls-24" d="M110 56.68a5.67 5.67 0 0 1 2.52 4A34.88 34.88 0 0 0 125.39 83a5.7 5.7 0 0 1 2.17 4.17l-.13 47.27c0 1.47-.94 2.16-2.19 1.64-6.67-2.75-12 .3-13 7.4-.18 1.33-1.25 1.79-2.54 1L17.61 91.37a5.7 5.7 0 0 1-2.52-4A34.88 34.88 0 0 0 2.18 65 5.66 5.66 0 0 1 0 60.87L.13 13.6c0-1.45.94-2.16 2.19-1.64 6.68 2.76 12-.28 13-7.39.18-1.35 1.27-1.8 2.54-1.07z"/><path class="cls-19" d="M63.82 58a3.55 3.55 0 0 1 1.55 2.18l2.47 10.27a3.57 3.57 0 0 0 1.54 2.17l8.08 4.66c1.58.91 2.23 3.61.94 3.93l-6.55 1.7c-.58.14-.81.84-.6 1.73l2.47 10.27c.37 1.53-.55 2.14-1.56 1.56a3.07 3.07 0 0 1-.94-.9L64.7 86.3a3.12 3.12 0 0 0-1-.92 1.27 1.27 0 0 0-1-.19l-6.55 1.68a1.26 1.26 0 0 1-.94-.18c-1-.59-1.93-2.26-1.55-3.35l2.52-7.39a2.93 2.93 0 0 0-.59-2.42l-6.52-9.24c-1.28-1.8-.61-3.74 1-2.83l8.08 4.66c.71.41 1.33.26 1.55-.39l2.52-7.39c.29-.71.95-.76 1.6-.34z"/><path class="cls-25" transform="rotate(-45.29 224.223 45.433)" d="M197.63 19.69h53.24v51.48h-53.24z"/><path class="cls-26" d="M215.14 48.56l-.21.21-.12.12-.21.21a.38.38 0 0 0 .53-.54zM232.59 44.63l-.07.44.07.11v.22a.82.82 0 0 0 .71.23.9.9 0 0 0 .5-.26.83.83 0 0 0 0-1.18h-.2l-.31-.1a.94.94 0 0 0-.69.38v.12zM237.72 45.43a.61.61 0 0 0-.51.34v.35a.76.76 0 0 0 .16.25l.08.09.12.1.12.05h.15a.75.75 0 0 0 .58-.49.6.6 0 0 0-.15-.62l-.12-.09h-.35zM235.51 69.64a.23.23 0 0 0-.31 0v.19l.08-.08v.11a.22.22 0 0 0 .28.07l.06-.11a.29.29 0 0 0-.11-.18zM254.23 38v.19l.08.08h.11a.19.19 0 0 0 .15-.13.25.25 0 0 0-.24-.29.17.17 0 0 0-.12.08V38a.08.08 0 0 1 .02 0zM230.86 46l-.06.37v.16l.19.33a.84.84 0 0 0 .5.2.78.78 0 0 0 1-.07.79.79 0 0 0 .21-.37.75.75 0 0 0-.25-.74l-.22-.05a.86.86 0 0 0-.72-.24.91.91 0 0 0-.65.41zM224.74 53.52l.17.4.09.08.38.16h.17l.38-.13a.78.78 0 0 0 .29-.58.8.8 0 0 0-.25-.59l-.13-.11-.38-.1h-.16l-.35.16-.08.08-.16.4zM222.56 70.37h-.17a.14.14 0 0 1-.09 0l-.08.19a.32.32 0 0 0 .08.15h.21a.35.35 0 0 0 .15-.24.26.26 0 0 0-.1-.1zM242.94 60.37l-.13-.06c-.1 0-.23 0-.28.15s.06.22.09.26h.23a.2.2 0 0 0 .12-.12.24.24 0 0 0-.03-.23zM234.54 48.13l-.45.33a1 1 0 0 1-.22-.69 1 1 0 0 1-.18-.48.54.54 0 0 0 .13.21l-.15-.53.05-.22.23-.23.15-.07.08-.08.18-.09h.18l.41.17a.86.86 0 0 1 .22.68 1.15 1.15 0 0 1 .27.18l.18.4v.18l-.15.39a1.1 1.1 0 0 1-.82.45l-.25-.06h-.1l-.2-.17zm.48-1.21v.16h.08a.51.51 0 0 0-.1-.16zM242.21 51.75a.51.51 0 0 0-.15-.33l-.17-.11-.27-.08a.55.55 0 0 0-.22 0l-.15.1-.1.12-.06.17a.55.55 0 0 0 .17.4.66.66 0 0 0 .72.13l.13-.11.07-.12zM232 60.56l-.06.18v.16h.47l.05.05.44-.36a.6.6 0 0 0-.5-.26.55.55 0 0 0-.4.23zM239.76 42.34l.08.2.08.08.18.08h.22a.53.53 0 0 0 .21-.07l.13-.2v-.28a.55.55 0 0 0-.18-.32l-.21-.06h-.16l-.17.08-.12.12-.08.2zM243.82 35.35l.11.06a.35.35 0 0 0 .29-.18.2.2 0 0 0-.11-.25h-.16c-.1.13-.22.24-.13.37zM240.72 28.16a.2.2 0 0 0 .26 0 .21.21 0 0 0 0-.3h-.17a.29.29 0 0 0-.14.2zM224.3 42.36l-.13-.57a.42.42 0 0 1 .09.14 1 1 0 0 0-.27-.49l-.17-.14-.36-.09h-.16l-.34.16-.08.08-.2.05a.84.84 0 0 0-.35.61.88.88 0 0 0-.11.75l.37.37h.08a.79.79 0 0 0 .9 0 .8.8 0 0 0 .7-.78zM210.25 44.47a.47.47 0 0 0-.6.07v.14l.07.1a.17.17 0 0 0 .18 0 .17.17 0 0 0 .22.06l.09-.08a.26.26 0 0 0 .19-.12l-.06-.19zM218.29 40l-.08.08-.08.2a.43.43 0 0 0 0 .17v.23a.48.48 0 0 0 .35.14.54.54 0 0 0 .38-.17.48.48 0 0 0 0-.69h-.35zM221.73 40.3l.12-.19v-.25a.5.5 0 0 0-.07-.23l-.19-.13h-.25a.5.5 0 0 0-.23.07l-.13.19v.26a.49.49 0 0 0 .08.23l.19.12h.27a.48.48 0 0 0 .21-.07zM207.27 37.18a.28.28 0 0 0 .15-.2.27.27 0 0 0-.15-.24h-.13c-.09.05-.17.15-.06.35zM222.45 46a.77.77 0 0 0-1 0v.09h-.06a.83.83 0 0 0-.35.62v.35l.13.2a.76.76 0 0 0 1 0h.09a.82.82 0 0 0 .34-.6.76.76 0 0 0-.15-.66zM228 52.4l-.38-.34-.19-.05h-.1a.82.82 0 0 0-.84.34l-.11.32v.42l.14.28a.84.84 0 0 0 .33.2h.4l.42-.16a1 1 0 0 0 .33-1.01zM223.37 55.72v.17l.15.42a.87.87 0 0 0 .54.25l.15.1h.15l.34-.06a.69.69 0 0 0 .37-.72.81.81 0 0 0-.13-.4.76.76 0 0 0-.23-.56h-.2a.8.8 0 0 0-.3-.12l-.51.16-.08.08-.09.23zM231.58 49.24a.71.71 0 0 0-.14-.8l-.14-.1-.39-.09h-.13l-.27.12a.87.87 0 0 0-.35.65.78.78 0 0 0 .23.58.76.76 0 0 0 .71.2.74.74 0 0 0 .53-.49zM209.09 67.31h-.18a.27.27 0 0 0-.11.2.29.29 0 0 0 .1.22H209.11a.27.27 0 0 0-.02-.42zM229.15 46.05l.31.41a.91.91 0 0 0 .75.15l.29-.19.09-.11.12-.32a.81.81 0 0 0-.25-.62.88.88 0 0 0-.63-.26.8.8 0 0 0-.58.27l-.13.48zM224 51.57a.8.8 0 0 0-1.16.13l-.11.22v.18a.79.79 0 0 0 .23.59.86.86 0 0 0 1.2 0l.17-.47v-.19zM251.11 49.16a.21.21 0 0 0-.15.1v.15a.27.27 0 0 0 .32.06v-.22a.27.27 0 0 0-.17-.09zM227.53 61.6h-.11l-.19-.13h-.26a.49.49 0 0 0-.23.08l-.12.19v.25a.49.49 0 0 0 .08.23l.12.08a.46.46 0 0 0 .11.17h.06a.47.47 0 0 0 .66-.06.55.55 0 0 0-.12-.81zM248.22 57.71a.25.25 0 0 0-.12-.22h-.18a.32.32 0 0 0-.19.14v.16l.16.15h.17a.34.34 0 0 0 .16-.23zM231.32 57l.28.14h.19l.44-.19a1 1 0 0 0 0-1.25l-.5-.26h-.3a.83.83 0 0 0-.61.44l-.06.18v.13a.83.83 0 0 0 .24.61 1 1 0 0 0 .31.2zM238.83 49.33l.49-.1-.14-.55a.62.62 0 0 0-.43.44zM233.66 53.85l.1.44a1.07 1.07 0 0 0 .21.32.73.73 0 0 0 .65.2.83.83 0 0 0 .6-.53v-.45l-.14-.29-.09-.09a.81.81 0 0 0-1.15-.07l-.18.32zM219.22 65.75a.17.17 0 0 0-.13.08v.27l.08.08h.12a.19.19 0 0 0 .15-.13.25.25 0 0 0-.22-.3zM237.1 51.29l.2.09a.47.47 0 0 0 .45 0l.12-.17v-.37a.49.49 0 0 0-.12-.19.5.5 0 0 0-.33-.14h-.17l-.2.15a.45.45 0 0 0 .05.63zM232.17 52l-.49-.15h-.2l-.1.08h-.08l.12-.05-.31.24v-.07l-.2.17-.08.18v.49a.92.92 0 0 0 .16.21.74.74 0 0 0 1 .08l-.17-.47.36.32.17-.18v-.78zM229 66.53a.16.16 0 0 0 0-.17h-.07a.2.2 0 0 0-.23.09.27.27 0 0 0 .08.3.18.18 0 0 0 .21.05s.1-.08.09-.21zM229.07 55.58l.33-.11a.89.89 0 0 0 .38-.65.85.85 0 0 0-.27-.66l-.11-.1-.35-.11h-.15l-.33.11a.88.88 0 0 0-.38.65.84.84 0 0 0 .26.66l.12.1.34.11zM223.87 61.52l-.08-.1a.57.57 0 0 0-.72-.07.63.63 0 0 0-.26.73l.06.1.07.07.1.07a.7.7 0 0 0 .63-.06.6.6 0 0 0 .27-.5zM228.88 58l.1-.28v-.17l-.17-.39-.16-.15-.38-.16h-.17l-.38.13a.9.9 0 0 0-.1 1.33l.19.14H228.14a.8.8 0 0 0 .76-.52zM224.42 78.47h-.19a.19.19 0 0 0-.18 0v.17a.32.32 0 0 0 .08.15h.22l.08-.08v-.16a.23.23 0 0 0-.01-.08zM223.62 58.21l-.08-.18-.12-.12-.2-.08H223l-.2.08-.15.16-.08.18v.17l.07.2a.53.53 0 0 0 .41.16.62.62 0 0 0 .45-.26l.06-.19zM237.07 55.05l-.18-.19-.15-.05a.5.5 0 0 0-.65.08L236 55a.51.51 0 0 0 .14.5.6.6 0 0 0 .7.11.49.49 0 0 0 .23-.56zM239.24 58.84a.5.5 0 0 0-.08-.25l-.19-.12h-.24a.5.5 0 0 0-.23.07l-.13.19v.26a.5.5 0 0 0 .08.24l.19.12h.25a.5.5 0 0 0 .23-.07l.13-.19zM233.31 58.38v-.21l-.16-.26a.48.48 0 0 0-.43-.15.49.49 0 0 0-.35.28v.31a.52.52 0 0 0-.12.14.59.59 0 0 0 .14.65l.17.07H232.87a.59.59 0 0 0 .3-.61zM230.28 60.78h-.4a.47.47 0 0 0-.28.21v.46a.47.47 0 0 0 .33.13.54.54 0 0 0 .38-.17.48.48 0 0 0-.03-.63zM226.2 63.45l-.09-.19a.82.82 0 0 0-.85-.27l-.18.31v.24l.12.19.07.07a.61.61 0 0 0 .44.21.5.5 0 0 0 .37-.17l.07-.2zM220.2 53.52l.24-.29.08-.06a.8.8 0 0 0 .14-.33l.16-.06.28-.4v-.19l-.1-.42a1.37 1.37 0 0 0-.24-.39l.16-.48v-.11l-.16-.46-.08-.08-.41-.14h-.18l-.45.16-.08.08-.16.48v.12l.16.45.06.06-.11.09-.08.18v.47a.83.83 0 0 0-.18.19.81.81 0 0 0 .07 1 .75.75 0 0 0 .88.13zM229.91 42a.75.75 0 0 0-.55.36l-.07.18v.14a1 1 0 0 0 .29.7.77.77 0 0 0 .65.23.73.73 0 0 0 .54-.35.77.77 0 0 0-.11-1 .89.89 0 0 0-.75-.26zM231.22 31.69h.2c.13-.14.13-.27 0-.36h-.16a.14.14 0 0 1-.09 0l-.06.21zM220.45 59.57a.65.65 0 0 0-.16-.11h-.14a.53.53 0 0 0-.47.24.63.63 0 0 0 0 .61l.1.11.11.07h.14a.6.6 0 0 0 .56-.36.51.51 0 0 0-.14-.56zM218.41 56.62a.6.6 0 0 0-.11-.75.7.7 0 0 0-.55-.21l-.19.1-.11.14-.06.21a.59.59 0 0 0 .17.36.57.57 0 0 0 .16.11l.15.15h.23zM214.58 31.1l-.12-.12h-.16a.42.42 0 0 0-.14.27.18.18 0 0 0 .05.15.18.18 0 0 0 .21 0v-.06a.29.29 0 0 0 .15-.09zM213.19 61.51a.17.17 0 0 0-.12.08v.27l.08.08h.12a.2.2 0 0 0 .15-.13.25.25 0 0 0-.23-.3zM225.6 48.52a.75.75 0 0 0 0 .9l.51.2a.72.72 0 0 0 .76-.2.73.73 0 0 0 .12-.78l-.13-.13a.73.73 0 0 0-.14-.2.7.7 0 0 0-.93-.06zM218.92 59.69v-.2l-.08-.24a.62.62 0 0 0-.62-.14l.11.27v.11l-.1.1.22.18.22.18h.05zM227.54 50.24a.83.83 0 0 0 .21.73l.07.06.1.06a.76.76 0 0 0 1-.23.8.8 0 0 0 .13-.3.9.9 0 0 0 .21-.9l-.44-.37h-.21l-.28.1v-.06a.85.85 0 0 0-.42.27l-.1.28a.73.73 0 0 0-.27.36zM221.06 58.33a.57.57 0 0 0 .29-.18l.07-.17V57.65l-.07-.09a.52.52 0 0 0-.73 0 .51.51 0 0 0 0 .72l.22.09h.16zM234.91 41.79h-.08a.53.53 0 0 0-.4.23.44.44 0 0 0 0 .45.5.5 0 0 0 .15.45h.07l.1.05h.11a.85.85 0 0 0 .36-.06.5.5 0 0 0-.1.24.55.55 0 0 0 .16.46.53.53 0 0 0 .88-.17v-.14a.54.54 0 0 0-.16-.3.42.42 0 0 0-.17-.11l-.17-.07h-.18l.05-.1v-.13a.57.57 0 0 0 0-.13v-.27a.49.49 0 0 0-.07-.22l-.19-.13h-.25a.5.5 0 0 0-.11-.05zM246.06 43.7a.12.12 0 0 1 .09 0 .29.29 0 0 0-.18-.23l-.14.05v.06h-.06v.19l.16.15.07.08h.05a.18.18 0 0 0 .17-.07.17.17 0 0 0 0-.17zM234.78 41.19l.08.19.08.08.2.08h.17l.2-.08.16-.16.08-.2v-.17l-.09-.2-.07-.08-.2-.08h-.18l-.2.09-.15.15-.08.2v.18zM222 55.15v-.21a.86.86 0 0 0-.28-.5l-.26-.12h-.33a.75.75 0 0 0-.56.53.8.8 0 0 0 .85 1 .73.73 0 0 0 .53-.33zM229.19 47.82l.47.39h.19a.79.79 0 0 0 .84-.38l.07-.42v-.17l-.07-.13a.53.53 0 0 1 0 .12l-.35-.48-.2-.08-.58.1a1 1 0 0 0-.37 1.05zM208.35 55.16h-.16a.28.28 0 0 0-.14.2.2.2 0 0 0 .06.16.36.36 0 0 0 .25.09.25.25 0 0 0 .19-.07v-.17zM229.31 37.23l-.16-.08H228.82a.41.41 0 0 0-.22.37.23.23 0 0 1 .08-.11l-.06.12a.49.49 0 0 0 0 .72.6.6 0 0 0 .16.37.45.45 0 0 0 .41.13.42.42 0 0 0 .24-.15.51.51 0 0 0 .52-.07l.11-.25v-.22l-.06-.15a.74.74 0 0 0-.17-.26l-.13-.1h-.21a.55.55 0 0 0-.18-.32zM210.14 48.13h-.21a.19.19 0 0 0-.16.1.2.2 0 0 0 0 .18h.16c.07 0 .2-.06.24-.17a.18.18 0 0 0-.03-.11zM221.51 36.14l.2.21.21.06.28-.07.15-.15.08-.16V35.7l-.09-.11a.49.49 0 0 0-.65 0l-.1.12-.09.22v.23h.28zM217 43.37v-.17a.61.61 0 0 0-.65-.13l-.19.18-.07.2v.26l.07.08a.57.57 0 0 0 .44.18.54.54 0 0 0 .4-.23l.06-.21zM215.14 43.78l-.19-.18-.19-.06h-.11a.5.5 0 0 0-.23.07l-.13.19v.25a.56.56 0 0 0 .07.3l.1.1.1.06h.14a.49.49 0 0 0 .42-.19.62.62 0 0 0 .02-.54zM218 37.49l-.31-.18h-.24l-.16.08a.56.56 0 0 0-.3.37.53.53 0 0 0 .12.43l.26.1h.21l.23-.17a.53.53 0 0 0 .19-.63zM218.06 47.07l-.19-.36a.75.75 0 0 0-1-.08l-.17.23v.39a1 1 0 0 0 .29.83 1.22 1.22 0 0 0 .24.18l.29.08h.13l.29-.09a.81.81 0 0 0 .38-.55.83.83 0 0 0-.26-.63zM213.9 51.16a.7.7 0 0 0-.17-.32l-.4.4v.07l.55.12v-.15zM230 72.74h.18a.22.22 0 0 0 .11 0v-.18a.21.21 0 0 0 0-.11h-.18a.23.23 0 0 0-.1 0v.18a.22.22 0 0 0-.01.11zM222.43 32.14l.07.19a.55.55 0 0 0 .77 0l.12-.19v-.18l-.11-.28a.53.53 0 0 0-.4-.16.62.62 0 0 0-.44.26l-.06.18zM214.27 49.47l-.08-.17-.15-.15-.16-.08H213.55a.58.58 0 0 0-.29.43.5.5 0 0 0 .15.42.52.52 0 0 0 .43.15.59.59 0 0 0 .43-.27v-.18zM215.93 24.15h-.06a.25.25 0 0 0-.12.19.27.27 0 0 0 .08.21.32.32 0 0 0 .23.1h.06a.26.26 0 0 0 .12-.19.32.32 0 0 0-.31-.31zM197.54 37.58h-.06l-.07.24.1.1a.34.34 0 0 0 .26.13.26.26 0 0 0 .19-.12v-.15a.46.46 0 0 0-.42-.2zM216 47.27l.08-.2v-.17l-.08-.2-.19-.19-.17-.08H215.3a.52.52 0 0 0-.25.39.51.51 0 0 0 .15.41.57.57 0 0 0 .8.04zM218.34 35.33h-.28a.55.55 0 0 0 .15.49.75.75 0 0 0 .58.17h.08l.26-.16.1-.2v-.31c-.43-.51-.81-.36-1-.27l.15.24zM216.36 37.64a.54.54 0 0 0 .22-.73l-.17-.18-.19-.07-.1.26-.23.15h-.28v.16l.08.17.16.15.16.08h.15zM225.36 40.54l.17.11h.39a.83.83 0 0 0 .83-.63v-.42l-.15-.26-.15-.15-.45-.09h-.18l-.4.18a1.09 1.09 0 0 0-.33.83zM218.19 45.45v.13l.14.3.05.06a.81.81 0 0 0 .62.24.89.89 0 0 0 .65-.37l.12-.37v-.16l-.2-.42a.82.82 0 0 0-.73-.25.86.86 0 0 0-.61.53zM226.59 33.28l-.13.19v.25a.51.51 0 0 0 .07.23l.19.13h.26a.48.48 0 0 0 .23-.08l.12-.19v-.25a.51.51 0 0 0-.07-.22l-.19-.14h-.26a.51.51 0 0 0-.22.08zM230.28 35.55v.15a.49.49 0 0 0 .13.45l.16.08H230.9a.47.47 0 0 0 .26-.44v-.36l-.11-.15a.46.46 0 0 0-.34-.14.48.48 0 0 0-.37.21zM233.44 38.5l.08.17.08.08.11.07h.23a.48.48 0 0 0 .37-.76l-.19-.13h-.29a.51.51 0 0 0-.36.22v.19zM221.66 48.84v.31a1 1 0 0 0 .24.43.74.74 0 0 0 1 0l.17-.36a.74.74 0 0 0-.06-.67l-.42-.26a.75.75 0 0 0-.69.06l-.24.33zM207.28 26.42a.25.25 0 0 0-.22-.12.43.43 0 0 0-.29.19v.2c.09.09.2.07.33 0h-.05zM224.17 28.73h.1a.27.27 0 0 0 .25-.16.24.24 0 0 0-.1-.3h-.15c-.27.24-.14.41-.1.46zM224.71 36.25V36a.47.47 0 0 0-.67 0 .54.54 0 0 0 0 .75h.37a.59.59 0 0 0 .23-.08l.13-.32a.69.69 0 0 0-.06-.1zM233.16 26.72h.18a.23.23 0 0 0 .1 0v-.19a.22.22 0 0 0 0-.1h-.18a.23.23 0 0 0-.1 0v.19a.22.22 0 0 0 0 .1zM213 37.53c-.19 0-.26.05-.29.11a.2.2 0 0 0 0 .23.19.19 0 0 0 .2 0c.06 0 .13-.08.15-.25zM220.32 40.21l-.13-.11H219.73l-.21.19v.07a.57.57 0 0 0-.19.48l.06.16.09.12a.59.59 0 0 0 .76 0h.12l.15-.14.09-.25a.8.8 0 0 0-.28-.52zM201 43.41h-.16l-.08.08v.18l.12.12h.12a.23.23 0 0 0 .09-.16.26.26 0 0 0-.09-.22zM229.81 39.6l.06.09.08.08h.34a.51.51 0 0 0 .24-.37.49.49 0 0 0-.15-.41.48.48 0 0 0-.55-.1.48.48 0 0 0-.25.52zM201.91 52.35h-.18a.22.22 0 0 0-.11 0v.18a.22.22 0 0 0 0 .11h.18a.23.23 0 0 0 .11 0v-.18a.22.22 0 0 0 0-.11zM224.28 46.32v.18l.09.47.11.13a.86.86 0 0 0 1.22-.1l.17-.4v-.18l-.17-.4-.12-.12-.26-.15h-.42a.84.84 0 0 0-.44.29zM214.8 53.85l-.19-.16h-.19a.51.51 0 0 0-.64.24l-.05.19v.16l.08.18.27.27.17.08H214.58a.64.64 0 0 0 .22-.96zM226.48 19.26h-.18a.23.23 0 0 0-.11 0v.18a.23.23 0 0 0 0 .11h.18a.22.22 0 0 0 .11 0v-.18a.22.22 0 0 0 0-.11zM236.36 66a.26.26 0 0 0-.09-.19h-.16a.28.28 0 0 0-.11.2.26.26 0 0 0 .09.19h.16a.28.28 0 0 0 .11-.2zM236.81 35.62h.17a.23.23 0 0 0 .09-.25v-.06a.26.26 0 0 0 0-.34h-.17a.45.45 0 0 0-.09.65zM225.63 44.42a.85.85 0 0 0 .42-.27l.13-.42v-.18l-.09-.22a1 1 0 0 0-.21-.32.77.77 0 0 0-.89-.14l-.31.4v.17a.81.81 0 0 0 .18.88l.44.14h.18z"/></g><path class="cls-27 cls-28" d="M192.15 96.36l138.75 80c4 2.31 5.54 4.3 5.55 8.77l.35 111.2c0 2.08-1.14 2.7-3 1.62L195.05 218c-4-2.31-5.54-4.3-5.55-8.77L189.15 98c-.01-2.09 1.14-2.71 3-1.64z"/><path class="cls-19" d="M189.15 90.36l138.75 80c4 2.31 5.54 4.3 5.55 8.77l.35 111.2c0 2.08-1.14 2.7-3 1.62L192.05 212c-4-2.31-5.54-4.3-5.55-8.77L186.15 92c-.01-2.09 1.14-2.71 3-1.64z"/><path class="cls-29" d="M242.53 133.92l-33.93-19.59a1.88 1.88 0 0 1-.8-1.5c0-.57.36-.83.8-.57l33.93 19.59a1.88 1.88 0 0 1 .8 1.5c.01.57-.33.83-.8.57z"/><path class="cls-30" d="M217.17 129.07a.8.8 0 0 1-.38-.12l-7.52-4.34a2.79 2.79 0 0 1-1.16-2.18c0-.38.12-.78.46-.78a.8.8 0 0 1 .38.12l7.52 4.34a2.79 2.79 0 0 1 1.16 2.18c0 .38-.12.78-.46.78z"/><path class="cls-31" d="M208.57 122a.47.47 0 0 1 .22.08l7.52 4.34a2.47 2.47 0 0 1 1 1.91c0 .27-.08.46-.15.46a.47.47 0 0 1-.22-.08l-7.52-4.34a2.47 2.47 0 0 1-1-1.91c0-.27.08-.46.15-.46m0-.63c-.46 0-.78.41-.78 1.1a3.09 3.09 0 0 0 1.32 2.46l7.52 4.34a1.09 1.09 0 0 0 .54.16c.46 0 .78-.41.78-1.1a3.09 3.09 0 0 0-1.32-2.46l-7.52-4.34a1.09 1.09 0 0 0-.54-.16z"/><path class="cls-32" d="M252.94 144.17l-44.6-25.75a1.29 1.29 0 0 1-.55-1c0-.39.25-.56.55-.39l44.6 25.75a1.29 1.29 0 0 1 .55 1c0 .39-.24.57-.55.39z"/><path class="cls-33" d="M205.66 116.16c0 3.76-2.74 5.23-6.12 3.28a13.28 13.28 0 0 1-6.12-10.34c0-3.76 2.74-5.23 6.12-3.28a13.28 13.28 0 0 1 6.12 10.34z"/><path class="cls-34" d="M323.35 196.46l-128.72-74.24c-.74-.43-1.2-.18-1.2.64v59.49c0 1.78 2 5.17 3.61 6.09l128.72 74.24c.74.43 1.2.18 1.2-.64v-59.49c.04-1.78-1.96-5.17-3.61-6.09z"/><path id="_Clipping_Path_2" data-name="&amp;lt;Clipping Path&amp;gt;" class="cls-3" d="M197.76 142.07c0 7.39 5.38 16.48 12 20.31s12 .95 12-6.44-5.38-16.48-12-20.31-12-.95-12 6.44z"/><g class="cls-35"><path class="cls-36" d="M208.57 156.72a3.81 3.81 0 0 0 1.2 1.16c1.05.61 1.91.16 1.91-1v-6.73a4.14 4.14 0 0 0-1.9-3.23c-1.05-.61-1.91-.16-1.91 1v6.73a3.86 3.86 0 0 0 .7 2.07z"/><path class="cls-37" d="M209.62 156.6l6.76 3.9a5.54 5.54 0 0 1 2.15 3.73l1.16 6.05c0 1.38-.73 2.09-1.62 1.57l-16.57-9.57a4.29 4.29 0 0 1-1.62-3.45l1.53-4.48c.44-1.45.73-2.09 1.62-1.57z"/><path class="cls-38" d="M206.76 155.47l.05.07c3 3.8 5.84 3.34 6 3.32.43-.08.54-.66.25-1.3s-.86-1.1-1.29-1c-.09 0-2 .27-3.93-2.19-.44-.56-1-.74-1.28-.41a1.4 1.4 0 0 0 .2 1.51z"/><path class="cls-39" d="M215.71 146.48s0 6.89-2 6.31-7.93-4.18-8.35-4.91-2.6-9.8-.87-9.2c1.12.39 11.22 7.8 11.22 7.8z"/><path class="cls-40" d="M213.35 150.48a2.32 2.32 0 0 0 1.07 1.81c.59.34 1.07.08 1.07-.57a2.32 2.32 0 0 0-1.07-1.81c-.59-.34-1.07-.08-1.07.57z"/><path class="cls-41" d="M204.22 145.21a2.32 2.32 0 0 0 1.07 1.81c.59.34 1.07.08 1.07-.57a2.32 2.32 0 0 0-1.07-1.81c-.6-.35-1.07-.09-1.07.57z"/><path class="cls-42" d="M215.1 145.34l-.92 7.71a3.22 3.22 0 0 1-1.23 2.41c-.8.53-1.62.22-3.14-.66a7.84 7.84 0 0 1-3.12-3 9.74 9.74 0 0 1-1.32-3.9l-.87-8.66z"/><path class="cls-43" d="M205 141.23a7 7 0 0 1 .25 2 9.72 9.72 0 0 0-.14 2s-1.41-6.41-.61-6 .5 2 .5 2z"/><path class="cls-44" d="M215.69 146.89s-6.94-1.39-9.66-4.13c-1.65-1.66-2.18-4.39-1.84-5.46.68-.93 12.18 3.04 11.5 9.59z"/><path class="cls-45" d="M213.73 146.43s.2.62.43 1.42a17.21 17.21 0 0 1 .31 2.79l.63-4.1-.69-1z"/></g><path class="cls-46" d="M227.39 154.6l82.71 47.7M227.39 163.86l46.68 26.92"/><path class="cls-47" d="M286.11 207.41l19.39 11.18M262.44 193.76l20.37 11.75M227.39 173.54l31.58 18.22M259.2 197.84l31.17 17.98M239.19 186.3l16.26 9.38M227.39 179.49l8.42 4.86M275.88 213.41l27.01 15.57M227.39 185.44l45.64 26.33M289.92 227.46l8.95 5.16M249.41 204.09l37.15 21.42M227.39 191.39l18.17 10.48M291.23 234.16l17.53 10.11M268.07 220.8l19.41 11.19M227.39 197.34l37.43 21.59"/><path class="cls-48" d="M223.26 220.46a1 1 0 0 1-.48-.15l-27.44-15.84a3.57 3.57 0 0 1-1.45-2.8v-7.34c0-.67.26-1.09.65-1.09a1 1 0 0 1 .48.15l27.44 15.84a3.57 3.57 0 0 1 1.45 2.81v7.34c.01.62-.25 1.08-.65 1.08z"/><path class="cls-49" d="M194.54 193.54a.7.7 0 0 1 .32.11l27.44 15.84a3.27 3.27 0 0 1 1.3 2.51v7.34c0 .37-.11.78-.34.78a.7.7 0 0 1-.32-.11l-27.44-15.82a3.27 3.27 0 0 1-1.29-2.53v-7.34c0-.37.11-.78.34-.78m0-.63c-.57 0-1 .53-1 1.41v7.34a3.86 3.86 0 0 0 1.61 3.08l27.44 15.84a1.29 1.29 0 0 0 .64.19c.57 0 1-.53 1-1.41V212a3.86 3.86 0 0 0-1.61-3.08l-27.44-15.84a1.29 1.29 0 0 0-.64-.19z"/><path class="cls-48" d="M257.9 240.46a1 1 0 0 1-.48-.15L230 224.46a3.57 3.57 0 0 1-1.45-2.81v-7.34c0-.67.26-1.09.66-1.09a1 1 0 0 1 .48.15l27.44 15.84a3.58 3.58 0 0 1 1.45 2.81v7.34c-.02.64-.28 1.1-.68 1.1z"/><path class="cls-49" d="M229.18 213.53a.7.7 0 0 1 .32.11l27.44 15.84a3.27 3.27 0 0 1 1.29 2.53v7.34c0 .37-.11.78-.34.78a.7.7 0 0 1-.32-.11l-27.44-15.84a3.27 3.27 0 0 1-1.29-2.53v-7.34c0-.37.11-.78.34-.78m0-.63c-.57 0-1 .53-1 1.41v7.34a3.86 3.86 0 0 0 1.61 3.08l27.44 15.84a1.29 1.29 0 0 0 .64.19c.57 0 1-.53 1-1.41V232a3.86 3.86 0 0 0-1.61-3.08l-27.44-15.84a1.29 1.29 0 0 0-.64-.19z"/><path class="cls-48" d="M292.54 260.46a1 1 0 0 1-.48-.15l-27.44-15.84a3.57 3.57 0 0 1-1.45-2.8v-7.35c0-.67.26-1.09.65-1.09a1 1 0 0 1 .48.15l27.44 15.84a3.57 3.57 0 0 1 1.45 2.8v7.34c0 .64-.25 1.1-.65 1.1z"/><path class="cls-49" d="M263.82 233.53a.7.7 0 0 1 .32.11l27.44 15.84a3.27 3.27 0 0 1 1.29 2.53v7.34c0 .37-.11.78-.34.78a.7.7 0 0 1-.32-.11l-27.44-15.84a3.27 3.27 0 0 1-1.29-2.53v-7.34c0-.37.11-.78.34-.78m0-.63c-.57 0-1 .53-1 1.41v7.34a3.86 3.86 0 0 0 1.61 3.08l27.44 15.84a1.29 1.29 0 0 0 .64.19c.57 0 1-.53 1-1.41V252a3.86 3.86 0 0 0-1.61-3.08l-27.44-15.84a1.29 1.29 0 0 0-.64-.19z"/><path class="cls-50" d="M177.2 395.23l1.59-18.61c.54-6.61 1.22-13.23 1.52-19.84l.42-19.85.14-9.92v-9.92a9.72 9.72 0 0 0-19.43 0v9.92l.07 9.92.3 19.83c.05 3.31.42 6.61.61 9.92l.7 9.92 1.41 19.84a6.29 6.29 0 0 0 2.5 4.57l.31 1.16 11.88 15.61 2.71-5c-4.14-5.21-4.72-13.47-4.73-17.55z"/><path id="_Path_" data-name="&amp;lt;Path&amp;gt;" class="cls-51" d="M164.45 392.87s-6.52 5.54-4.89 10.76l3.91 22.18 2.61-1.3-.65-11.42s-.41-.6 3.91 7.5c2.47 4.63 9.64 8.24 19.56-5.44a3.83 3.83 0 0 0 .31-4.15c-.81-1.38-2.59-2.21-6.5.79-1.56 1.2-4.44 6.1-7.83-1 .01.02-3.88-12.7-10.43-17.92z"/><path class="cls-52" d="M204.78 423.9l-2.71 5-11.87-15.61-1.41-5.2.37-.13a6.27 6.27 0 0 1-1.62-3.74l-3-39.68q-.39-5-.42-9.92c0-3.31-.08-6.61-.07-9.92 0-6.61.12-13.22.44-19.83a9.73 9.73 0 0 1 19.43.06c.28 6.62.36 13.23.32 19.85 0 3.31-.07 6.62-.13 9.92s-.2 6.62-.48 9.92l-.83 9.92-.89 9.92-1.78 19.68c-.13 1.56-.67 13.18 4.65 19.76z"/><path id="_Path_2" data-name="&amp;lt;Path&amp;gt;" class="cls-53" d="M187.52 404s-6.52 5.54-4.89 10.76l3.91 22.24 2.61-1.3-.65-11.42s-.41-.6 3.91 7.5c2.47 4.63 9.64 8.24 19.56-5.44a3.83 3.83 0 0 0 .31-4.15c-.81-1.38-2.59-2.21-6.5.79-1.56 1.2-4.44 6.1-7.83-1 .05.02-3.95-12.72-10.43-17.98z"/><path id="_Path_3" data-name="&amp;lt;Path&amp;gt;" class="cls-54" d="M207.17 319.43c1.25-9 3.92-31.07-3.19-38.65A59.89 59.89 0 0 1 175 272q-2.69-1.66-5.26-3.51l-7.65-5.49a1.79 1.79 0 0 0-2.17.75c-2.29 3.7-8.08 15.28-2.85 31 2.52 7.57 3.72 11 2.55 31.59 0 0 0 8.39.68 12a4.21 4.21 0 0 0 1.17 2.15c2.39 2.39 10.25 7.78 20.5 11.51 11.89 3.2 26.13 10.49 24.86-10.2-.12-1.8.29-20.54.34-22.37z"/><g class="cls-55"><path class="cls-25" transform="rotate(-64.51 199.224 353.884)" d="M197.77 352.38h2.9v3h-2.9z"/><path class="cls-56" d="M199.56 354.3zM199 353.45h-.06zM199 353.16zM200.3 352.83zM198.27 352.42zM199.13 353.51v-.05zM199.64 353.7zM200.58 353.5zM199.67 352.6zM199.17 353.28h-.05zm-.07 0zM199.22 352.8zM199.88 353.18zM198.77 353.11zM198.32 353zM198 353.32zM199.06 353.93H199.1zM199.43 354.64zM199 354.29zM199 354.11zM199.1 354.93zM199.28 354v.06h.07V354zM199.52 353.55h.05a.06.06 0 0 0-.05 0zM199.78 353.73zM199.29 353.42h.06zM200.67 354.28zM199.16 353.6zM199.55 353.78v0zM198.92 352.38zM200 353.4h0zM199.43 352.37zM199.71 353.28a.05.05 0 0 0-.07 0zM199.16 353zM199.49 353.22v.06zM200.4 353.77zM199.29 353.08zM199.42 353.33h.08v-.05zM200.25 353.23zM199.67 353.43zM200.08 353.6zM199.8 353.4zM201 353.25zM199.91 353.67zM199.49 353zM199.66 352.83zM199.74 353.15h-.06zM199.93 353.27zM200.14 353.44v.05zM199.73 353.94h-.11.11zM198.93 353.64h-.05a.05.05 0 0 0 .05 0zM198.36 353.76zM200 353.82zM199.92 354zM198.64 354.66zM200.28 354.17zM199.36 353.75v.05zM200.08 353.9zM199.42 353.61a.05.05 0 0 0-.05 0zM200 353.81zM198.83 353.38zM198.72 352.75zM198.8 353.39h.01v-.03l-.01-.01h-.03l-.01.01h-.01v.01l.01.01.01.01.01.01h.01l.01-.01zM199.78 353.82v-.06zM199.26 353.57zM200 354.54zM198.69 353.76h-.06zM199.63 354.58zM198.78 354.2zM199.24 354.3zM199.3 354.39zM198.91 354.36h.09-.06zM199.42 354.18v.06zM199.72 354.32zM200.57 353.06l-.01-.01h-.01v.02l.01-.01h.01zM198.55 354.22zM199.62 354.33zM198.24 354.71zM199.3 355.45zM199.47 354.28zM198.79 354.38v.06zM199 354.44zM198.94 353.91h.05zM199.33 354.2zM198.53 354zM198.58 353.74h-.06zM198.68 353.52zM199.45 354v-.06zM198.52 355.13zM198.33 354.19zM198.72 354zM198.06 353.75v-.01l-.01-.01-.01.01v.01h.02zM199 354.62zM199 354.18h.06zM199.55 355.15zM198.81 353.69zM200 354.94l.01.01h.02l-.01-.01v-.01h-.01l-.01.01zM199.27 353.86v-.07zM199.84 354.22zM197.78 354.24l.01.01v.01h.01l.01-.01-.01-.01h-.02zM200.09 352.85zM198.46 353.39zM199.14 353.82z"/></g><path id="_Path_4" data-name="&amp;lt;Path&amp;gt;" class="cls-57" d="M179.62 217l-5.41-1.1c-2.09-.42-3.34-3.06-2.79-5.89l1.83-9.5c.55-2.86 2.71-4.84 4.82-4.42l12.86 2.55-1.86 9.66c-1.07 5.59-5.31 9.49-9.45 8.7z"/><path id="_Rectangle_" data-name="&amp;lt;Rectangle&amp;gt;" class="cls-58" d="M176.84 174.78h22.75V195a8.5 8.5 0 0 1-8.5 8.5h-5.35a8.9 8.9 0 0 1-8.9-8.9v-19.82z" transform="rotate(2.25 188.646 189.623)"/><path id="_Path_5" data-name="&amp;lt;Path&amp;gt;" class="cls-59" d="M170.1 197c2.51 2 8.93 6 12.87 0 .91-1.38.27-4.17 4.15-5.14 2.31-.58 5.66-.4 8-5.13.67-1.34 2.63-2.62 4-4.46 4-5.48 5.62-20.25-15.63-22.16a22.68 22.68 0 0 0-8.68 1.25 22.82 22.82 0 0 1-5.69.24c-4.23-.25-13.83 4.07-8.13 14.86.01.01-.06 13.22 9.11 20.54z"/><path id="_Path_6" data-name="&amp;lt;Path&amp;gt;" class="cls-60" d="M206 277.62c-3.69-14.89-6.49-31.84-3-46.8 1.32-5.58-1.76-10.9-8.89-14.2 0 0-23.93-14.2-29-12.34-11.89 4.32-10.53 17-9.28 21.12 6.13 20.18 5.51 29.24 3.11 34.46a8.89 8.89 0 0 0 1.24 9.66c4 4.36 16.78 9 16.78 9 7.88 3.55 17.08 7.81 17.08 7.81q.28.17.57.3c5.07 2.37 13.36-1 12-6.44z"/><path class="cls-61" d="M191.84 183.82a1.58 1.58 0 0 1-1.32-1.63c.3-6.48-1.39-12.22-5.45-15.74-3-2.62-9.31-5.32-9.34-5.33-1-.28.85-.75 1.87-1 .85-.21 8.77 1.3 13.27 8.44 1.93 3.05 3.06 8.3 2.8 13.78a1.58 1.58 0 0 1-1.65 1.51z"/><ellipse class="cls-62" cx="192.44" cy="188.71" rx="7.33" ry="5.81" transform="rotate(-80.66 192.444 188.714)"/><path class="cls-63" d="M197.29 200.09c-3.68-.61-4.27-6-4.29-6.25a1.06 1.06 0 0 1 2.1-.21s.48 4 2.53 4.38a1.16 1.16 0 0 0 1.36-.56 1.07 1.07 0 0 1 1.39-.51 1 1 0 0 1 .54 1.36 3.28 3.28 0 0 1-3.63 1.79z"/><ellipse class="cls-64" cx="193.51" cy="189.54" rx="7.33" ry="5.81" transform="rotate(-80.66 193.51 189.537)"/><path class="cls-65" d="M193.3 194.2a3.07 3.07 0 0 1-.55 0 3.44 3.44 0 0 1-2.44-1.82 5.52 5.52 0 0 1 1.07-6.48 3.45 3.45 0 0 1 2.89-.95c2.06.34 3.39 2.69 3 5.24-.4 2.29-2.11 3.98-3.97 4.01zm.43-8.62a2.87 2.87 0 0 0-1.88.8 4.82 4.82 0 0 0-.92 5.62 2.76 2.76 0 0 0 1.94 1.47c1.67.27 3.33-1.26 3.69-3.43.36-2.17-.72-4.15-2.39-4.43a2.42 2.42 0 0 0-.44-.03z"/><path class="cls-66" d="M234.62 295.74a6.5 6.5 0 0 0 6-3.39c2.86-5 .8-9.57-6.09-13.54l-.23-.13a10.5 10.5 0 0 0-2.53-1 10.27 10.27 0 0 0-2.64-.36h-.73L211 264.87l-6.65-38a7.45 7.45 0 0 0-14.7 2.36l7.42 40.19a7.21 7.21 0 0 0 3.58 5.18l22.45 14.77.08.06a13.77 13.77 0 0 0 4.92 4.57 15.87 15.87 0 0 0 3.4 1.34 12 12 0 0 0 3.12.4z"/><path class="cls-67" d="M192.43 245.08c4.23 1 12.18.06 14.85-2.35.78-.7.71-1.24.68-1.41l-1.86-13.63a9 9 0 0 0-6.81-7.53 9 9 0 0 0-11 9.94l1.86 13.63c.07.52.92 1 2.27 1.35z"/><path class="cls-68" d="M402.49 399.4l63.32 40.6h27.86l-84.16-52.67a7 7 0 0 0-7 12.12z"/><path class="cls-69" d="M116.54 221.34a7 7 0 0 0-3.26-4.25L0 150.23v16.25l106.28 62.73a7 7 0 0 0 10.26-7.87z"/></g></g></g></svg>