<svg height="502pt" viewBox="-4 0 502 502.424" width="502pt" xmlns="http://www.w3.org/2000/svg"><path d="m319.15625 302.425781h80v192h-80zm0 0" fill="#fcd770"/><path d="m343.15625 142.425781v-32l-18.542969-3.714843c-1.914062-7.527344-4.875-14.613282-8.746093-21.117188l10.488281-15.738281-22.632813-22.632813-15.734375 10.488282c-6.503906-3.871094-13.59375-6.832032-21.121093-8.742188l-3.710938-18.542969h-32l-3.710938 18.542969c-7.53125 1.910156-14.617187 4.871094-21.121093 8.742188l-15.734375-10.488282-22.625 22.625 10.488281 15.738282c-3.875 6.503906-6.839844 13.589843-8.746094 21.117187l-18.550781 3.722656v32l18.542969 3.710938c1.914062 7.527343 4.871093 14.617187 8.746093 21.121093l-10.488281 15.734376 22.621094 22.625 15.738281-10.488282c6.503906 3.871094 13.589844 6.839844 21.121094 8.742188l3.71875 18.554687h32l3.710938-18.546875c7.527343-1.910156 14.617187-4.871094 21.121093-8.742187l15.734375 10.488281 22.625-22.625-10.488281-15.734375c3.871094-6.503906 6.839844-13.59375 8.746094-21.121094zm-96 32c-26.511719 0-48-21.488281-48-48 0-26.515625 21.488281-48 48-48s48 21.484375 48 48c0 26.511719-21.488281 48-48 48zm0 0" fill="#a0d468"/><path d="m95.15625 302.425781h304v192h-304zm0 0" fill="#ecc19c"/><path d="m319.15625 302.425781h80v192h-80zm0 0" fill="#cf9e76"/><path d="m319.15625 302.425781 40 48 40-48zm0 0" fill="#dfb28b"/><path d="m207.15625 302.425781-41.375-41.378906c-4.242188-4.238281-10-6.621094-16-6.621094-12.496094 0-22.625 10.125-22.625 22.621094v25.378906zm0 0" fill="#fcd770"/><path d="m207.15625 302.425781 41.375-41.378906c4.242188-4.238281 10-6.621094 16-6.621094 12.496094 0 22.625 10.125 22.625 22.621094v25.378906zm0 0" fill="#fcd770"/><path d="m159.15625 62.425781h-72v128h24l-48 72-48-72h24v-144c0-17.671875 14.328125-32 32-32h88zm0 0" fill="#ff826e"/><path d="m311.15625 214.425781h96v-128h-24l48-72 48 72h-24v144c0 17.671875-14.328125 32-32 32h-112zm0 0" fill="#ff826e"/><path d="m207.15625 302.425781h80v-16h-64zm0 0" fill="#ffc729"/><path d="m127.15625 286.425781v16h80l-16-16zm0 0" fill="#ffc729"/><path d="m189.5625 36.9375-31.894531 31.894531 11.433593 17.136719c-2.304687 4.4375-4.226562 9.070312-5.746093 13.855469l-20.199219 4.039062v45.121094l20.191406 4.039063c1.511719 4.785156 3.441406 9.417968 5.746094 13.855468l-11.433594 17.136719 31.894532 31.894531 17.144531-11.421875c4.441406 2.304688 9.074219 4.214844 13.847656 5.734375l4.058594 20.203125h45.109375l4.050781-20.195312c4.78125-1.519531 9.414063-3.4375 13.847656-5.734375l17.144531 11.425781 31.894532-31.898437-11.433594-17.136719c2.304688-4.4375 4.226562-9.070313 5.746094-13.855469l20.191406-4.046875v-45.121094l-20.191406-4.039062c-1.511719-4.785157-3.441406-9.417969-5.746094-13.855469l11.433594-17.136719-31.894532-31.894531-17.144531 11.421875c-4.441406-2.304687-9.074219-4.214844-13.847656-5.734375l-4.058594-20.199219h-45.109375l-4.050781 20.191407c-4.78125 1.519531-9.414063 3.4375-13.847656 5.734374zm39.847656 19.789062 4.890625-1.238281 3.40625-17.0625h18.890625l3.40625 17.054688 4.886719 1.238281c6.707031 1.707031 13.097656 4.351562 18.992187 7.867188l4.328126 2.582031 14.488281-9.65625 13.351562 13.351562-9.648437 14.480469 2.578125 4.335938c3.519531 5.90625 6.167969 12.296874 7.871093 19l1.242188 4.878906 17.0625 3.425781v18.878906l-17.054688 3.417969-1.242187 4.878906c-1.710937 6.703125-4.351563 13.097656-7.871094 19l-2.578125 4.335938 9.648438 14.480468-13.351563 13.351563-14.488281-9.65625-4.328125 2.585937c-5.894531 3.511719-12.285156 6.15625-18.992187 7.863282l-4.886719 1.238281-3.40625 17.066406h-18.890625l-3.40625-17.058593-4.886719-1.238282c-6.707031-1.703125-13.097656-4.351562-18.992187-7.863281l-4.328126-2.585937-14.488281 9.65625-13.351562-13.351563 9.644531-14.480469-2.574219-4.335937c-3.519531-5.902344-6.167969-12.296875-7.871093-19l-1.242188-4.878907-17.0625-3.425781v-18.878906l17.054688-3.417969 1.242187-4.878906c1.710937-6.703125 4.351563-13.09375 7.871094-19l2.574219-4.335938-9.644532-14.480468 13.351563-13.351563 14.488281 9.65625 4.328125-2.582031c5.902344-3.515625 12.285156-6.160156 18.988281-7.867188zm0 0"/><path d="m247.15625 86.425781c22.054688 0 40 17.941407 40 40 0 8.316407-2.566406 16.316407-7.425781 23.140625l13.035156 9.28125c6.796875-9.542968 10.390625-20.757812 10.390625-32.421875 0-30.882812-25.128906-56-56-56-11.664062 0-22.871094 3.589844-32.425781 10.390625l9.28125 13.03125c6.824219-4.855468 14.824219-7.421875 23.144531-7.421875zm0 0"/><path d="m191.15625 126.425781c0 30.878907 25.128906 56 56 56 11.664062 0 22.871094-3.59375 32.421875-10.394531l-9.277344-13.03125c-6.824219 4.855469-14.824219 7.425781-23.144531 7.425781-22.054688 0-40-17.945312-40-40 0-8.320312 2.566406-16.320312 7.421875-23.144531l-13.03125-9.28125c-6.800781 9.542969-10.390625 20.761719-10.390625 32.425781zm0 0"/><path d="m119.15625 422.425781h96v16h-96zm0 0"/><path d="m119.15625 454.425781h96v16h-96zm0 0"/><path d="m231.15625 422.425781h16v16h-16zm0 0"/><path d="m231.15625 454.425781h16v16h-16zm0 0"/><path d="m295.15625 277.054688c0-16.894532-13.746094-30.628907-30.625-30.628907-8.183594 0-15.871094 3.183594-21.65625 8.972657l-35.71875 35.714843-35.71875-35.714843c-5.785156-5.789063-13.464844-8.972657-21.65625-8.972657-16.882812 0-30.625 13.734375-30.625 30.628907v17.371093h-32v208h320v-208h-112zm-40.96875-10.351563c2.726562-2.71875 6.488281-4.277344 10.34375-4.277344 8.066406 0 14.625 6.558594 14.625 14.628907v17.371093h-52.6875zm-119.03125 10.351563c0-8.070313 6.558594-14.628907 14.625-14.628907 3.847656 0 7.613281 1.558594 10.34375 4.285157l27.71875 27.714843h-52.6875zm-32 33.371093h86.382812c-15.335937 19.558594-25.566406 42.484375-29.710937 67.316407l-.558594 3.363281 15.78125 2.636719.5625-3.367188c4.125-24.800781 15.015625-47.488281 31.542969-66.191406 16.527344 18.695312 27.414062 41.390625 31.542969 66.199218l.5625 3.359376 15.78125-2.636719-.558594-3.351563c-4.136719-24.84375-14.367187-47.769531-29.710937-67.328125h86.382812v176h-208zm248 176h-24v-161.90625l24 28.800781zm8-148.496093-22.921875-27.503907h45.832031zm8 148.496093v-133.105469l24-28.800781v161.90625zm0 0"/><path d="m95.15625 182.425781v-24h-16v40h17.054688l-33.054688 49.574219-33.054688-49.574219h17.054688v-40h-16v24h-30.945312l62.945312 94.421875 62.945312-94.421875zm0 0"/><path d="m31.15625 126.425781h16v16h-16zm0 0"/><path d="m47.15625 46.425781c0-13.234375 10.769531-24 24-24h136v-16h-136c-22.054688 0-40 17.941407-40 40v64h16zm0 0"/><path d="m79.15625 126.425781h16v16h-16zm0 0"/><path d="m95.15625 70.425781h48v-16h-64v56h16zm0 0"/><path d="m431.15625 0-62.945312 94.425781h30.945312v24h16v-40h-17.054688l33.054688-49.578125 33.054688 49.578125h-17.054688v40h16v-24h30.945312zm0 0"/><path d="m447.15625 134.425781h16v16h-16zm0 0"/><path d="m447.15625 230.425781c0 13.230469-10.769531 24-24 24h-112v16h112c22.054688 0 40-17.945312 40-40v-64h-16zm0 0"/><path d="m399.15625 134.425781h16v16h-16zm0 0"/><path d="m399.15625 206.425781h-64v16h80v-56h-16zm0 0"/></svg>