<svg height="496pt" viewBox="0 0 496 496" width="496pt" xmlns="http://www.w3.org/2000/svg"><g fill="#f0bc5e"><path d="m214.167969 315.9375c6.40625-2.5625 11.878906-7.007812 15.710937-12.746094 6.320313-9.496094 16.96875-15.191406 28.367188-15.191406h24.417968c11.785157 0 21.335938-9.550781 21.335938-21.335938 0-6.710937 3.160156-13.039062 8.535156-17.0625 14.769532-11.082031 23.464844-28.464843 23.464844-46.9375v-18.664062c-81.191406 0-147.320312 63.710938-151.585938 143.832031zm0 0"/><path d="m440 385.886719c0-10.957031-6.191406-20.984375-16-25.886719l-16-8c-9.808594-4.902344-16-14.929688-16-25.886719v-9.167969c0-15.984374-12.960938-28.945312-28.945312-28.945312h-8.902344c-6.578125 0-12.953125 2.238281-18.082032 6.34375l-24.140624 19.3125c-5.136719 4.105469-11.515626 6.34375-18.082032 6.34375h-16.902344c-15.984374 0-28.945312 12.960938-28.945312 28.945312v9.167969c0 10.957031 6.191406 20.984375 16 25.886719s16 14.929688 16 25.886719v10.511719c0 11.832031-7.207031 22.480468-18.191406 26.875l-19.886719 7.957031c25.886719 20.464843 58.519531 32.769531 94.078125 32.769531 40.28125 0 76.800781-15.785156 104-41.359375zm0 0"/><path d="m384 192v34.382812c0 13.992188 4.761719 27.570313 13.503906 38.488282 11.6875 14.617187 29.390625 23.121094 48.113282 23.121094h34.527343c-15.082031-45.289063-50.847656-81.054688-96.144531-96.136719zm0 0"/><path d="m40 32h64v16h-64zm0 0"/><path d="m40 208h64v16h-64zm0 0"/><path d="m40 320h64v16h-64zm0 0"/></g><path d="m368 179.222656v-11.222656c0-13.230469-10.769531-24-24-24h-8v-32h8c13.230469 0 24-10.769531 24-24v-64c0-13.230469-10.769531-24-24-24h-320c-13.230469 0-24 10.769531-24 24v64c0 13.230469 10.769531 24 24 24h8v32h-8c-13.230469 0-24 10.769531-24 24v64c0 13.230469 10.769531 24 24 24h8v32h-8c-13.230469 0-24 10.769531-24 24v64c0 13.230469 10.769531 24 24 24h165.457031c24.742188 56.441406 81.078125 96 146.542969 96 88.222656 0 160-71.777344 160-160 0-77.265625-55.054688-141.910156-128-156.777344zm-352-91.222656v-64c0-4.40625 3.585938-8 8-8h320c4.414062 0 8 3.59375 8 8v64c0 4.40625-3.585938 8-8 8h-320c-4.414062 0-8-3.59375-8-8zm32 24h272v32h-272zm-32 120v-64c0-4.40625 3.585938-8 8-8h320c4.414062 0 8 3.59375 8 8v8.808594c-5.265625-.519532-10.601562-.808594-16-.808594-52.183594 0-98.472656 25.222656-127.695312 64h-184.304688c-4.414062 0-8-3.59375-8-8zm32 24h149.648438c-5.839844 10.054688-10.710938 20.71875-14.273438 32h-135.375zm-24 128c-4.414062 0-8-3.59375-8-8v-64c0-4.40625 3.585938-8 8-8h155.222656c-2.101562 10.34375-3.222656 21.039062-3.222656 32 0 16.71875 2.601562 32.839844 7.375 48zm312 96c-79.398438 0-144-64.601562-144-144s64.601562-144 144-144 144 64.601562 144 144-64.601562 144-144 144zm0 0"/><path d="m32 352h128v16h-128zm0 0"/><path d="m32 320h16v16h-16zm0 0"/><path d="m64 320h16v16h-16zm0 0"/><path d="m96 320h16v16h-16zm0 0"/><path d="m32 64h160v16h-160zm0 0"/><path d="m208 64h64v16h-64zm0 0"/><path d="m32 32h16v16h-16zm0 0"/><path d="m64 32h16v16h-16zm0 0"/><path d="m96 32h16v16h-16zm0 0"/><path d="m288 64h16v16h-16zm0 0"/><path d="m320 64h16v16h-16zm0 0"/><path d="m32 176h160v16h-160zm0 0"/><path d="m208 176h32v16h-32zm0 0"/><path d="m32 208h16v16h-16zm0 0"/><path d="m64 208h16v16h-16zm0 0"/><path d="m96 208h16v16h-16zm0 0"/></svg>