<svg height="496pt" viewBox="0 0 496 496" width="496pt" xmlns="http://www.w3.org/2000/svg"><path d="m136 160h48v272h-48zm0 0" fill="#ccd1d9"/><path d="m472 456h-448c-8.839844 0-16-7.160156-16-16s7.160156-16 16-16h448c8.839844 0 16 7.160156 16 16s-7.160156 16-16 16zm0 0" fill="#656d78"/><path d="m432 456c17.671875 0 32 14.328125 32 32h-432c0-17.671875 14.328125-32 32-32zm0 0" fill="#aab2bd"/><path d="m216 232h232v192h-232zm0 0" fill="#dfb28b"/><path d="m288 232h96v48h-96zm0 0" fill="#cf9e76"/><path d="m264 144h-208c-4.414062 0-8-3.585938-8-8v-120c0-4.414062 3.585938-8 8-8h208c4.414062 0 8 3.585938 8 8v120c0 4.414062-3.585938 8-8 8zm0 0" fill="#ff826e"/><path d="m80 32h160v48h-160zm0 0" fill="#4fc1e9"/><path d="m216 144-8 32h-96l-8-32zm0 0" fill="#838f9b"/><path d="m212 160 4-16h-112l4 16zm0 0" fill="#656d78"/><path d="m136 176h48v16h-48zm0 0" fill="#aab2bd"/><path d="m136 408h48v16h-48zm0 0" fill="#aab2bd"/><path d="m36.441406 472h423.125c-5.542968-9.527344-15.742187-16-27.558594-16h-368.007812c-11.816406 0-22.015625 6.472656-27.558594 16zm0 0" fill="#969faa"/><path d="m216 408h232v16h-232zm0 0" fill="#cf9e76"/><path d="m472 416h-16v-192h-248v192h-16v-232h22.246094l8-32h41.753906c8.824219 0 16-7.175781 16-16v-120c0-8.824219-7.175781-16-16-16h-208c-8.824219 0-16 7.175781-16 16v120c0 8.824219 7.175781 16 16 16h41.753906l8 32h22.246094v232h-104c-13.230469 0-24 10.769531-24 24s10.769531 24 24 24h8.207031c-5.078125 6.703125-8.207031 14.960938-8.207031 24v8h448v-8c0-9.039062-3.128906-17.296875-8.207031-24h8.207031c13.230469 0 24-10.769531 24-24s-10.769531-24-24-24zm-128-160v16h-16v-16h-16v16h-16v-32h80v32h-16v-16zm-120-16h56v48h112v-48h48v176h-216zm-168-224h208l.007812 120h-208.007812zm58.246094 136h91.507812l-4 16h-83.507812zm29.753906 32h32v232h-32zm310.632812 296h-413.265624c3.304687-9.3125 12.199218-16 22.632812-16h368c10.433594 0 19.328125 6.6875 22.632812 16zm17.367188-32h-448c-4.40625 0-8-3.585938-8-8s3.59375-8 8-8h448c4.40625 0 8 3.585938 8 8s-3.59375 8-8 8zm0 0"/><path d="m240 352h16v16h-16zm0 0"/><path d="m272 352h88v16h-88zm0 0"/><path d="m240 384h16v16h-16zm0 0"/><path d="m272 384h88v16h-88zm0 0"/><path d="m72 88h176v-64h-176zm16-48h144v32h-144zm0 0"/><path d="m152 104h16v16h-16zm0 0"/><path d="m184 104h16v16h-16zm0 0"/><path d="m88 104h16v16h-16zm0 0"/><path d="m120 104h16v16h-16zm0 0"/><path d="m216 104h16v16h-16zm0 0"/><path d="m456 136h-16v-96h-16v96h-16v-72h-16v72h-16v-48h-16v48h-16v-24h-16v24h-16v16h144zm0 0"/></svg>