<svg height="496pt" viewBox="0 0 496 496" width="496pt" xmlns="http://www.w3.org/2000/svg"><path d="m312 296h-304v-288h304zm0 0" fill="#ecc19c"/><path d="m256 176c-13.230469 0-24 10.769531-24 24v96h80v-120zm0 0" fill="#dfb28b"/><path d="m480 488h-224c-4.414062 0-8-3.585938-8-8v-280c0-4.414062 3.585938-8 8-8h224c4.414062 0 8 3.585938 8 8v280c0 4.414062-3.585938 8-8 8zm0 0" fill="#aab2bd"/><path d="m448 456h-32c-4.414062 0-8-3.585938-8-8v-48c0-4.414062 3.585938-8 8-8h32c4.414062 0 8 3.585938 8 8v48c0 4.414062-3.585938 8-8 8zm0 0" fill="#fcd770"/><path d="m448 360h-32c-4.414062 0-8-3.585938-8-8v-32c0-4.414062 3.585938-8 8-8h32c4.414062 0 8 3.585938 8 8v32c0 4.414062-3.585938 8-8 8zm0 0" fill="#fcd770"/><path d="m448 280h-160c-4.414062 0-8-3.585938-8-8v-40c0-4.414062 3.585938-8 8-8h160c4.414062 0 8 3.585938 8 8v40c0 4.414062-3.585938 8-8 8zm0 0" fill="#69d6f4"/><path d="m112 8h96v64h-96zm0 0" fill="#cf9e76"/><path d="m80 208h-48v-48h48zm0 0" fill="#b27946"/><path d="m80 272h-48v-48h48zm0 0" fill="#b27946"/><path d="m456 272v-40c0-4.414062-3.585938-8-8-8h-48l-48 56h96c4.414062 0 8-3.585938 8-8zm0 0" fill="#4fc1e9"/><path d="m368 456h-80c-4.414062 0-8-3.585938-8-8v-128c0-4.414062 3.585938-8 8-8h80c4.414062 0 8 3.585938 8 8v128c0 4.414062-3.585938 8-8 8zm0 0" fill="#ccd1d9"/><path d="m480 184h-160v-184h-320v304h240v176c0 8.824219 7.175781 16 16 16h224c8.824219 0 16-7.175781 16-16v-280c0-8.824219-7.175781-16-16-16zm-312-152v32h-16v-32h-16v32h-16v-48h80v48h-16v-32zm72 168v88h-224v-272h88v64h112v-64h88v168h-48c-8.824219 0-16 7.175781-16 16zm16 280v-280h224l.015625 280zm0 0"/><path d="m448 384h-32c-8.824219 0-16 7.175781-16 16v48c0 8.824219 7.175781 16 16 16h32c8.824219 0 16-7.175781 16-16v-48c0-8.824219-7.175781-16-16-16zm-32 64v-48h32l.015625 48zm0 0"/><path d="m448 304h-32c-8.824219 0-16 7.175781-16 16v32c0 8.824219 7.175781 16 16 16h32c8.824219 0 16-7.175781 16-16v-32c0-8.824219-7.175781-16-16-16zm-32 48v-32h32l.015625 32zm0 0"/><path d="m448 216h-160c-8.824219 0-16 7.175781-16 16v40c0 8.824219 7.175781 16 16 16h160c8.824219 0 16-7.175781 16-16v-40c0-8.824219-7.175781-16-16-16zm-160 56v-40h160l.015625 40zm0 0"/><path d="m368 304h-80c-8.824219 0-16 7.175781-16 16v128c0 8.824219 7.175781 16 16 16h80c8.824219 0 16-7.175781 16-16v-128c0-8.824219-7.175781-16-16-16zm0 48h-32v-32h32zm-32 16h32.007812v32h-32.007812zm-16 32h-32v-32h32zm0-80v32h-32v-32zm-32 96h32v32h-32zm48 32v-32h32.007812v32zm0 0"/><path d="m408 136h-32c-4.414062 0-8-3.59375-8-8h-16c0 13.230469 10.769531 24 24 24h8v16h16v-16h8c13.230469 0 24-10.769531 24-24v-8c0-13.230469-10.769531-24-24-24h-32c-4.414062 0-8-3.59375-8-8v-8c0-4.40625 3.585938-8 8-8h32c4.414062 0 8 3.59375 8 8h16c0-13.230469-10.769531-24-24-24h-8v-16h-16v16h-8c-13.230469 0-24 10.769531-24 24v8c0 13.230469 10.769531 24 24 24h32c4.414062 0 8 3.59375 8 8v8c0 4.40625-3.585938 8-8 8zm0 0"/><path d="m32 208h48v-48h-48zm16-32h16v16h-16zm0 0"/><path d="m32 272h48v-48h-48zm16-32h16v16h-16zm0 0"/><path d="m96 160h96v16h-96zm0 0"/><path d="m96 192h16v16h-16zm0 0"/><path d="m128 192h64v16h-64zm0 0"/><path d="m96 224h96v16h-96zm0 0"/><path d="m96 256h16v16h-16zm0 0"/><path d="m128 256h64v16h-64zm0 0"/></svg>