<svg height="496pt" viewBox="0 0 496 496" width="496pt" xmlns="http://www.w3.org/2000/svg"><path d="m264 280h120v208h-272v-208zm0 0" fill="#ecc19c"/><path d="m112 280h80v208h-80zm0 0" fill="#dfb28b"/><path d="m264 280h-48v56c0 35.289062 28.710938 64 64 64s64-28.710938 64-64c0-17.648438-14.351562-32-32-32s-32 14.351562-32 32v-56zm0 0" fill="#cf9e76"/><path d="m264 40-8-32h-16l-8 32v296c0 26.511719 21.488281 48 48 48s48-21.488281 48-48c0-8.839844-7.160156-16-16-16s-16 7.160156-16 16-7.160156 16-16 16-16-7.160156-16-16zm0 0" fill="#ccd1d9"/><path d="m256 440h96v48h-96zm0 0" fill="#dfb28b"/><path d="m235.886719 24.464844-3.886719 15.535156v176h32v-176l-3.886719-15.535156c-4.007812-.273438-8.035156-.464844-12.113281-.464844s-8.105469.191406-12.113281.464844zm0 0" fill="#aab2bd"/><path d="m248 216c0-22.089844-17.910156-40-40-40s-40 17.910156-40 40c0-22.089844-17.910156-40-40-40s-40 17.910156-40 40v-16c0-88.367188 71.632812-160 160-160s160 71.632812 160 160v16c0-22.089844-17.910156-40-40-40s-40 17.910156-40 40c0-22.089844-17.910156-40-40-40s-40 17.910156-40 40zm0 0" fill="#fcd770"/><path d="m265.777344 57.777344-17.777344-17.777344-17.777344 17.777344c-39.839844 39.839844-62.222656 93.878906-62.222656 150.222656v8c0-20.816406 15.953125-37.710938 36.265625-39.625 1.230469-.238281 2.476563-.375 3.734375-.375 1.535156 0 2.976562.183594 4.382812.441406 20 2.214844 35.617188 18.964844 35.617188 39.558594 0-20.816406 15.953125-37.710938 36.265625-39.625 1.230469-.238281 2.476563-.375 3.734375-.375s2.503906.136719 3.734375.375c20.3125 1.914062 36.265625 18.808594 36.265625 39.625v-8c0-56.34375-22.382812-110.382812-62.222656-150.222656zm0 0" fill="#ff826e"/><g fill="#4fc1e9"><path d="m24 128c-8.839844 0-16-7.160156-16-16 0-5.265625 1.222656-10.449219 3.574219-15.152344l12.425781-24.847656 12.425781 24.847656c2.351563 4.703125 3.574219 9.886719 3.574219 15.152344 0 8.839844-7.160156 16-16 16zm0 0"/><path d="m96 80c-8.839844 0-16-7.160156-16-16 0-5.265625 1.222656-10.449219 3.574219-15.152344l12.425781-24.847656 12.425781 24.847656c2.351563 4.703125 3.574219 9.886719 3.574219 15.152344 0 8.839844-7.160156 16-16 16zm0 0"/><path d="m472 128c8.839844 0 16-7.160156 16-16 0-5.265625-1.222656-10.449219-3.574219-15.152344l-12.425781-24.847656-12.425781 24.847656c-2.351563 4.703125-3.574219 9.886719-3.574219 15.152344 0 8.839844 7.160156 16 16 16zm0 0"/><path d="m400 80c8.839844 0 16-7.160156 16-16 0-5.265625-1.222656-10.449219-3.574219-15.152344l-12.425781-24.847656-12.425781 24.847656c-2.351563 4.703125-3.574219 9.886719-3.574219 15.152344 0 8.839844 7.160156 16 16 16zm0 0"/></g><path d="m112 280 40 40 40-40zm0 0" fill="#cf9e76"/><path d="m270.671875 33.710938-8.425781-33.710938h-28.492188l-8.433594 33.710938c-81.921874 11.136718-145.320312 81.359374-145.320312 166.289062v16h16c0-17.648438 14.351562-32 32-32s32 14.351562 32 32h16c0-17.648438 14.351562-32 32-32 5.855469 0 11.273438 1.695312 16 4.449219v83.550781h-120v224h288v-224h-120v-83.550781c4.726562-2.753907 10.144531-4.449219 16-4.449219 17.648438 0 32 14.351562 32 32h16c0-17.648438 14.351562-32 32-32s32 14.351562 32 32h16v-16c0-84.929688-63.398438-155.152344-145.328125-166.289062zm-24.425781-17.710938h3.507812l4.070313 16.296875c-1.945313-.066406-3.855469-.296875-5.824219-.296875s-3.878906.230469-5.824219.296875zm-118.246094 152c-11.503906 0-22.070312 4.078125-30.351562 10.855469 9.382812-66.953125 62.441406-119.953125 129.421874-129.238281l-2.503906 2.503906c-35.390625 35.390625-57.199218 80.703125-62.972656 129.65625-8.65625-8.503906-20.523438-13.777344-33.59375-13.777344zm152 192c13.230469 0 24-10.769531 24-24 0-4.414062 3.59375-8 8-8s8 3.585938 8 8c0 22.054688-17.945312 40-40 40s-40-17.945312-40-40v-120h16v120c0 13.230469 10.769531 24 24 24zm-128-51.3125-20.6875-20.6875h41.375zm-32-9.375 24 24v68.6875h16v-68.6875l24-24v180.6875h-24v-72h-16v72h-24zm176 164.6875v-16h16v16h16v-16h16v32h-80v-32h16v16zm80-176v192h-16v-48h-112v48h-48v-192h24v48c0 30.871094 25.121094 56 56 56s56-25.128906 56-56c0-13.230469-10.769531-24-24-24s-24 10.769531-24 24c0 4.414062-3.59375 8-8 8s-8-3.585938-8-8v-48zm-88-120c-16.6875 0-31.390625 8.566406-40 21.519531-8.609375-12.960937-23.3125-21.519531-40-21.519531-11.296875 0-21.671875 3.945312-29.878906 10.503906 6.238281-43.414062 26.191406-83.496094 57.765625-115.070312l12.113281-12.121094 12.121094 12.121094c31.574218 31.574218 51.527344 71.65625 57.765625 115.070312-8.214844-6.558594-18.589844-10.503906-29.886719-10.503906zm80 0c-13.070312 0-24.9375 5.273438-33.601562 13.777344-5.765626-48.953125-27.582032-94.265625-62.972657-129.65625l-2.503906-2.503906c66.980469 9.285156 120.039063 62.277343 129.421875 129.238281-8.273438-6.777344-18.839844-10.855469-30.34375-10.855469zm0 0"/><path d="m24 54.113281-19.574219 39.160157c-2.898437 5.78125-4.425781 12.253906-4.425781 18.726562 0 13.230469 10.769531 24 24 24s24-10.769531 24-24c0-6.472656-1.527344-12.945312-4.425781-18.734375zm0 65.886719c-4.40625 0-8-3.585938-8-8 0-4 .945312-8 2.734375-11.574219l5.265625-10.539062 5.265625 10.527343c1.789063 3.585938 2.734375 7.585938 2.734375 11.585938 0 4.414062-3.59375 8-8 8zm0 0"/><path d="m120 64c0-6.472656-1.527344-12.945312-4.425781-18.734375l-19.574219-39.152344-19.574219 39.160157c-2.898437 5.78125-4.425781 12.253906-4.425781 18.726562 0 13.230469 10.769531 24 24 24s24-10.769531 24-24zm-32 0c0-4 .945312-8 2.734375-11.574219l5.265625-10.539062 5.265625 10.527343c1.789063 3.585938 2.734375 7.585938 2.734375 11.585938 0 4.414062-3.59375 8-8 8s-8-3.585938-8-8zm0 0"/><path d="m491.574219 93.265625-19.574219-39.152344-19.574219 39.160157c-2.898437 5.78125-4.425781 12.253906-4.425781 18.726562 0 13.230469 10.769531 24 24 24s24-10.769531 24-24c0-6.472656-1.527344-12.945312-4.425781-18.734375zm-19.574219 26.734375c-4.40625 0-8-3.585938-8-8 0-4 .945312-8 2.734375-11.574219l5.265625-10.539062 5.265625 10.527343c1.789063 3.585938 2.734375 7.585938 2.734375 11.585938 0 4.414062-3.59375 8-8 8zm0 0"/><path d="m400 6.113281-19.574219 39.160157c-2.898437 5.78125-4.425781 12.253906-4.425781 18.726562 0 13.230469 10.769531 24 24 24s24-10.769531 24-24c0-6.472656-1.527344-12.945312-4.425781-18.734375zm0 65.886719c-4.40625 0-8-3.585938-8-8 0-4 .945312-8 2.734375-11.574219l5.265625-10.539062 5.265625 10.527343c1.789063 3.585938 2.734375 7.585938 2.734375 11.585938 0 4.414062-3.59375 8-8 8zm0 0"/></svg>