<svg height="496pt" viewBox="-40 0 496 496" width="496pt" xmlns="http://www.w3.org/2000/svg"><path d="m32.558594 136-24 352h336l64-64-24-336h-288zm0 0" fill="#f0d0b4"/><path d="m384.558594 88-64 48h-288l64-48zm0 0" fill="#dfb28b"/><path d="m256.558594 376h-160l8-152h144zm0 0" fill="#a0d468"/><path d="m176.558594 328-33.375-33.375c-4.238282-4.242188-6.625-10-6.625-16 0-12.496094 10.128906-22.625 22.625-22.625 6 0 11.761718 2.382812 16 6.625l1.375 1.375 1.378906-1.375c4.238281-4.242188 10-6.625 16-6.625 12.496094 0 22.621094 10.128906 22.621094 22.625 0 6-2.382813 11.757812-6.621094 16zm0 0" fill="#e6e9ed"/><path d="m384.558594 88-64 48 24 352 64-64zm0 0" fill="#ecc19c"/><g fill="#cf9e76"><path d="m408.558594 424-32-24-32 88zm0 0"/><path d="m56.558594 136h48v-48h-8l-40 30zm0 0"/><path d="m296.558594 88h-48v48h48zm0 0"/><path d="m96.558594 184c0 8.835938-7.160156 16-16 16-8.835938 0-16-7.164062-16-16s7.164062-16 16-16c8.839844 0 16 7.164062 16 16zm0 0"/><path d="m288.558594 184c0 8.835938-7.160156 16-16 16-8.835938 0-16-7.164062-16-16s7.164062-16 16-16c8.839844 0 16 7.164062 16 16zm0 0"/></g><path d="m392.007812 80h-39.449218v-40c0-22.054688-17.941406-40-40-40h-200c-22.054688 0-40 17.945312-40 40v56l-47.734375 35.800781-24.824219 364.199219h347.871094l68.929687-68.929688zm-63.167968 59.785156 16.953125-12.714844 22.65625 271.839844-18.472657 50.800782zm-64.28125-43.785156v32h-176v-24l10.664062-8zm16 0h80.007812l-42.664062 32h-37.34375zm99.832031 316.871094 15.992187 11.992187-31.984374 31.984375zm18.9375-5.792969-15.097656-11.324219-23.335938-280.011718 16.738281-12.550782zm-62.769531-367.078125v40h-56v-40c0-9.039062-3.125-17.296875-8.207032-24h40.207032c13.234375 0 24 10.769531 24 24zm-96-24c13.234375 0 24 10.769531 24 24v40h-104v-40c0-13.230469 10.769531-24 24-24zm-152 24c0-13.230469 10.769531-24 24-24h40.210937c-5.082031 6.703125-8.210937 14.960938-8.210937 24v40h-50.664063l-5.335937 4zm-16 88h-16l16-12zm-32.527344 16h32.527344v17.472656c-9.285156 3.3125-16 12.113282-16 22.527344 0 13.230469 10.769531 24 24 24 13.234375 0 24-10.769531 24-24 0-10.414062-6.710938-19.214844-16-22.527344v-17.472656h176v17.472656c-9.285156 3.3125-16 12.113282-16 22.527344 0 13.230469 10.769531 24 24 24 13.234375 0 24-10.769531 24-24 0-10.414062-6.710938-19.214844-16-22.527344v-17.472656h32.519531l18.546875 272h-310.136719zm48.527344 40c0 4.40625-3.582032 8-8 8-4.414063 0-8-3.59375-8-8s3.585937-8 8-8c4.417968 0 8 3.59375 8 8zm192 0c0 4.40625-3.582032 8-8 8-4.414063 0-8-3.59375-8-8s3.585937-8 8-8c4.417968 0 8 3.59375 8 8zm-262.34375 280h246.34375v-16h-245.253906l1.085937-16h312.328125l1.089844 16h-53.25v16h54.34375l1.089844 16h-318.871094zm0 0"/><path d="m256.152344 216h-159.183594l-8.832031 168h176.855469zm-151.160156 152 7.167968-136h128.816406l7.167969 136zm0 0"/><path d="m193.9375 248c-6.296875 0-12.304688 1.886719-17.378906 5.390625-5.070313-3.503906-11.078125-5.390625-17.375-5.390625-16.878906 0-30.625 13.742188-30.625 30.625 0 8.175781 3.183594 15.871094 8.96875 21.65625l39.03125 39.03125 39.035156-39.03125c5.78125-5.785156 8.964844-13.472656 8.964844-21.65625 0-16.882812-13.742188-30.625-30.621094-30.625zm10.34375 40.96875-27.722656 27.71875-27.71875-27.71875c-2.71875-2.722656-4.28125-6.488281-4.28125-10.34375 0-8.066406 6.5625-14.625 14.625-14.625 3.847656 0 7.625 1.558594 10.34375 4.28125l7.03125 7.03125 7.035156-7.03125c2.71875-2.722656 6.484375-4.28125 10.34375-4.28125 8.0625 0 14.621094 6.558594 14.621094 14.625 0 3.855469-1.558594 7.621094-4.277344 10.34375zm0 0"/><path d="m120.558594 336h16v16h-16zm0 0"/><path d="m216.558594 336h16v16h-16zm0 0"/></svg>