<svg height="496pt" viewBox="0 -24 496 496" width="496pt" xmlns="http://www.w3.org/2000/svg"><path d="m184 40h288v320h-288zm0 0" fill="#e6e9ed"/><path d="m184 344h288v16h-288zm0 0" fill="#ccd1d9"/><path d="m342.625 280h-158.625v80h238.625zm0 0" fill="#ccd1d9"/><path d="m56 296h280l64 64h-344zm0 0" fill="#fcd770"/><path d="m24 280v-75.34375c0-3.039062.863281-6.023438 2.503906-8.59375l48.785156-76.65625c2.933594-4.613281 8.023438-7.40625 13.496094-7.40625h95.214844v184h-160zm0 0" fill="#ff826e"/><path d="m40 280h144v16h-144zm0 0" fill="#fc6e51"/><path d="m72 296h-16v64h344l-16-16h-312zm0 0" fill="#ffc729"/><path d="m72 288c0-13.230469-10.769531-24-24-24h-24v32h48zm0 0" fill="#fc6e51"/><path d="m96 360h-40v-72c0-4.414062-3.585938-8-8-8h-32c-4.414062 0-8 3.585938-8 8v112c0 4.414062 3.585938 8 8 8h464c4.414062 0 8-3.585938 8-8v-32c0-4.414062-3.585938-8-8-8zm0 0" fill="#aab2bd"/><path d="m424 384c0 30.929688-25.070312 56-56 56s-56-25.070312-56-56 25.070312-56 56-56 56 25.070312 56 56zm0 0" fill="#656d78"/><path d="m392 384c0 13.253906-10.746094 24-24 24s-24-10.746094-24-24 10.746094-24 24-24 24 10.746094 24 24zm0 0" fill="#969faa"/><path d="m200 384c0 30.929688-25.070312 56-56 56s-56-25.070312-56-56 25.070312-56 56-56 56 25.070312 56 56zm0 0" fill="#656d78"/><path d="m168 384c0 13.253906-10.746094 24-24 24s-24-10.746094-24-24 10.746094-24 24-24 24 10.746094 24 24zm0 0" fill="#969faa"/><path d="m424 184v-32l-18.542969-3.710938c-1.914062-7.527343-4.871093-14.617187-8.746093-21.121093l10.488281-15.734375-22.632813-22.632813-15.734375 10.488281c-6.503906-3.875-13.59375-6.832031-21.121093-8.746093l-3.710938-18.542969h-32l-3.710938 18.542969c-7.527343 1.914062-14.617187 4.871093-21.121093 8.746093l-15.734375-10.488281-22.625 22.625 10.488281 15.734375c-3.871094 6.503906-6.839844 13.59375-8.746094 21.121094l-18.550781 3.71875v32l18.542969 3.710938c1.914062 7.527343 4.871093 14.617187 8.746093 21.121093l-10.488281 15.734375 22.625 22.625 15.734375-10.488281c6.503906 3.871094 13.59375 6.839844 21.121094 8.746094l3.71875 18.550781h32l3.710938-18.542969c7.527343-1.914062 14.617187-4.871093 21.121093-8.746093l15.734375 10.488281 22.625-22.625-10.488281-15.734375c3.871094-6.503906 6.839844-13.59375 8.746094-21.121094zm-96 32c-26.511719 0-48-21.488281-48-48s21.488281-48 48-48 48 21.488281 48 48-21.488281 48-48 48zm0 0" fill="#fcd770"/><path d="m480 40h-304c-4.414062 0-8-3.585938-8-8v-16c0-4.414062 3.585938-8 8-8h304c4.414062 0 8 3.585938 8 8v16c0 4.414062-3.585938 8-8 8zm0 0" fill="#ff826e"/><path d="m152 240h-96v-32l40-64h56zm0 0" fill="#838f9b"/><path d="m168 112h16v184h-16zm0 0" fill="#fc6e51"/><path d="m184 40h288v16h-288zm0 0" fill="#ccd1d9"/><path d="m328 104c-35.34375 0-64 28.65625-64 64s28.65625 64 64 64 64-28.65625 64-64-28.65625-64-64-64zm0 112c-26.511719 0-48-21.488281-48-48s21.488281-48 48-48 48 21.488281 48 48-21.488281 48-48 48zm0 0" fill="#ffc729"/><path d="m368 352c-17.648438 0-32 14.351562-32 32s14.351562 32 32 32 32-14.351562 32-32-14.351562-32-32-32zm0 48c-8.824219 0-16-7.175781-16-16s7.175781-16 16-16 16 7.175781 16 16-7.175781 16-16 16zm0 0"/><path d="m144 352c-17.648438 0-32 14.351562-32 32s14.351562 32 32 32 32-14.351562 32-32-14.351562-32-32-32zm0 48c-8.824219 0-16-7.175781-16-16s7.175781-16 16-16 16 7.175781 16 16-7.175781 16-16 16zm0 0"/><path d="m224 145.441406v45.117188l20.191406 4.042968c1.511719 4.78125 3.441406 9.414063 5.746094 13.855469l-11.433594 17.136719 31.894532 31.894531 17.144531-11.425781c4.441406 2.304688 9.074219 4.21875 13.847656 5.738281l4.058594 20.199219h45.109375l4.050781-20.191406c4.78125-1.519532 9.414063-3.441406 13.847656-5.738282l17.144531 11.425782 31.894532-31.894532-11.433594-17.136718c2.304688-4.441406 4.226562-9.074219 5.746094-13.855469l20.191406-4.050781v-45.117188l-20.191406-4.042968c-1.511719-4.78125-3.441406-9.414063-5.746094-13.855469l11.433594-17.136719-31.894532-31.894531-17.144531 11.425781c-4.441406-2.304688-9.074219-4.21875-13.847656-5.738281l-4.058594-20.199219h-45.109375l-4.050781 20.191406c-4.78125 1.519532-9.414063 3.441406-13.847656 5.738282l-17.144531-11.425782-31.894532 31.894532 11.433594 17.136718c-2.304688 4.441406-4.226562 9.074219-5.746094 13.855469zm33.054688 9.703125 1.242187-4.878906c1.710937-6.707031 4.351563-13.097656 7.871094-19l2.574219-4.335937-9.644532-14.480469 13.351563-13.351563 14.488281 9.65625 4.328125-2.585937c5.894531-3.511719 12.285156-6.160157 18.992187-7.863281l4.886719-1.242188 3.40625-17.0625h18.890625l3.40625 17.054688 4.886719 1.242187c6.707031 1.703125 13.097656 4.351563 18.992187 7.863281l4.328126 2.582032 14.488281-9.652344 13.351562 13.351562-9.648437 14.480469 2.578125 4.335937c3.519531 5.902344 6.167969 12.292969 7.871093 19l1.242188 4.878907 17.0625 3.421875v18.882812l-17.054688 3.414063-1.242187 4.878906c-1.710937 6.707031-4.351563 13.097656-7.871094 19l-2.574219 4.335937 9.644532 14.480469-13.351563 13.351563-14.488281-9.65625-4.328125 2.585937c-5.894531 3.511719-12.285156 6.160157-18.992187 7.863281l-4.886719 1.242188-3.40625 17.0625h-18.890625l-3.40625-17.054688-4.886719-1.242187c-6.707031-1.703125-13.097656-4.351563-18.992187-7.863281l-4.328126-2.582032-14.488281 9.652344-13.351562-13.351562 9.648437-14.480469-2.578125-4.335937c-3.519531-5.902344-6.167969-12.292969-7.871093-19l-1.242188-4.878907-17.0625-3.421875v-18.882812zm0 0"/><path d="m328 128c22.054688 0 40 17.945312 40 40 0 8.320312-2.566406 16.320312-7.425781 23.144531l13.035156 9.28125c6.796875-9.546875 10.390625-20.761719 10.390625-32.425781 0-30.878906-25.128906-56-56-56-11.664062 0-22.871094 3.59375-32.425781 10.390625l9.28125 13.035156c6.824219-4.859375 14.824219-7.425781 23.144531-7.425781zm0 0"/><path d="m328 224c11.664062 0 22.871094-3.59375 32.425781-10.390625l-9.28125-13.035156c-6.824219 4.859375-14.824219 7.425781-23.144531 7.425781-22.054688 0-40-17.945312-40-40 0-8.320312 2.566406-16.320312 7.425781-23.144531l-13.035156-9.28125c-6.796875 9.546875-10.390625 20.761719-10.390625 32.425781 0 30.878906 25.128906 56 56 56zm0 0"/><path d="m496 32v-16c0-8.824219-7.175781-16-16-16h-304c-8.824219 0-16 7.175781-16 16v16c0 8.824219 7.175781 16 16 16v56h-87.214844c-8.25 0-15.824218 4.160156-20.25 11.121094l-48.78125 76.664062c-2.457031 3.847656-3.753906 8.304688-3.753906 12.878906v67.335938c-8.824219 0-16 7.175781-16 16v112c0 8.824219 7.175781 16 16 16h72.65625c11.085938 19.097656 31.710938 32 55.34375 32s44.257812-12.902344 55.34375-32h113.320312c11.089844 19.097656 31.710938 32 55.34375 32 23.632813 0 44.257813-12.902344 55.34375-32h56.648438c8.824219 0 16-7.175781 16-16v-32c0-8.824219-7.175781-16-16-16v-304c8.824219 0 16-7.175781 16-16zm-320-16h304l.007812 16h-304.007812zm136.65625 336h-113.3125c-11.085938-19.097656-31.710938-32-55.34375-32s-44.257812 12.902344-55.34375 32h-24.65625v-48h268.6875l18.351562 18.351562c-16.335937 4.503907-30.054687 15.304688-38.382812 29.648438zm-280.65625-147.335938c0-1.519531.433594-3.007812 1.246094-4.296874l48.785156-76.664063c1.480469-2.320313 4-3.703125 6.753906-3.703125h87.214844v168h-112c0-8.824219-7.175781-16-16-16h-16zm-16 195.335938v-112h32v80h34.105469c-1.328125 5.128906-2.105469 10.464844-2.105469 16s.777344 10.871094 2.105469 16zm128 32c-26.472656 0-48-21.527344-48-48s21.527344-48 48-48 48 21.527344 48 48-21.527344 48-48 48zm61.894531-32c1.328125-5.128906 2.105469-10.464844 2.105469-16s-.777344-10.871094-2.105469-16h100.21875c-1.335937 5.128906-2.113281 10.464844-2.113281 16s.777344 10.871094 2.105469 16zm162.105469 32c-26.472656 0-48-21.527344-48-48s21.527344-48 48-48 48 21.527344 48 48-21.527344 48-48 48zm112-32h-50.105469c1.328125-5.128906 2.105469-10.464844 2.105469-16s-.777344-10.871094-2.105469-16h50.105469zm-16-48h-40.65625c-10.535156-18.144531-29.695312-30.617188-51.847656-31.824219l-32.183594-32.175781h-147.3125v-240h272zm0 0"/><path d="m160 136h-68.441406l-43.558594 69.703125v42.296875h112zm-16 96h-80v-21.703125l36.441406-58.296875h43.558594zm0 0"/></svg>