<svg height="496pt" viewBox="0 0 496 496" width="496pt" xmlns="http://www.w3.org/2000/svg"><path d="m424 455.617188v-304l-176-136-176 136v304zm0 0" fill="#e6e9ed"/><path d="m248 391.617188h128v64h-128zm0 0" fill="#ccd1d9"/><path d="m120 391.617188h128v64h-128zm0 0" fill="#ccd1d9"/><path d="m264 407.617188h96v80h-96zm0 0" fill="#dfb28b"/><path d="m136 407.617188h96v80h-96zm0 0" fill="#dfb28b"/><path d="m72 151.617188v55.175781c5.632812-1.136719 11.023438-3.480469 15.609375-7.015625l160.390625-123.941406 160.40625 123.949218c4.578125 3.527344 9.960938 5.871094 15.59375 7.007813v-55.175781l-176-136zm0 0" fill="#ccd1d9"/><path d="m276.542969 17.546875 171.273437 135.589844c5.167969 4.097656 8.183594 10.320312 8.183594 16.914062 0 11.910157-9.65625 21.566407-21.566406 21.566407h-3.074219c-4.773437 0-9.40625-1.582032-13.183594-4.503907l-170.175781-131.496093-170.175781 131.496093c-3.777344 2.921875-8.417969 4.503907-13.183594 4.503907h-3.074219c-11.910156 0-21.566406-9.65625-21.566406-21.566407 0-6.59375 3.015625-12.816406 8.183594-16.914062l171.273437-135.589844c8.117188-6.433594 18.183594-9.929687 28.542969-9.929687s20.425781 3.496093 28.542969 9.929687zm0 0" fill="#ff826e"/><path d="m104 295.617188h96v80h-96zm0 0" fill="#f0d0b4"/><path d="m208 127.617188h96v120h-96zm0 0" fill="#dfb28b"/><path d="m136 295.617188h32v32h-32zm0 0" fill="#dfb28b"/><path d="m232 295.617188h96v80h-96zm0 0" fill="#f0d0b4"/><path d="m328 319.617188h64v56h-64zm0 0" fill="#f0d0b4"/><path d="m264 295.617188h32v32h-32zm0 0" fill="#dfb28b"/><path d="m280 175.617188h24v72h-24zm0 0" fill="#cf9e76"/><path d="m296 191.617188h96v56h-96zm0 0" fill="#f0d0b4"/><path d="m208 175.617188h72v72h-72zm0 0" fill="#cf9e76"/><path d="m168 191.617188h96v56h-96zm0 0" fill="#f0d0b4"/><g fill="#ecc19c"><path d="m168 223.617188h96v24h-96zm0 0"/><path d="m104 351.617188h96v24h-96zm0 0"/><path d="m232 351.617188h96v24h-96zm0 0"/><path d="m328 351.617188h64v24h-64zm0 0"/><path d="m296 223.617188h96v24h-96zm0 0"/></g><path d="m104 215.617188h64v32h-64zm0 0" fill="#f0d0b4"/><path d="m104 223.617188h64v24h-64zm0 0" fill="#ecc19c"/><path d="m152 215.617188h16v32h-16zm0 0" fill="#ecc19c"/><path d="m152 223.617188h16v24h-16zm0 0" fill="#dfb28b"/><path d="m328 319.617188h16v56h-16zm0 0" fill="#ecc19c"/><path d="m328 351.617188h16v24h-16zm0 0" fill="#dfb28b"/><path d="m72 367.617188h352v16h-352zm0 0" fill="#969faa"/><path d="m72 239.617188h352v16h-352zm0 0" fill="#969faa"/><path d="m434.433594 199.617188c16.300781 0 29.566406-13.261719 29.566406-29.566407 0-9.082031-4.089844-17.527343-11.207031-23.175781l-171.28125-135.601562h-.007813c-18.984375-15.03125-48.023437-15.03125-67.023437 0l-171.273438 135.601562c-7.117187 5.640625-11.207031 14.09375-11.207031 23.175781 0 16.304688 13.265625 29.566407 29.566406 29.566407h2.433594v248h-32v16h96v32h112v-32h16v32h112v-32h96v-16h-32v-248zm-18.433594 168h-16v-56h-64v-24h-112v80h-16v-80h-112v80h-16v-112h336zm-144-64h16v16h-16zm32 32v-32h16v64h-80v-64h16v32zm32-8h48v40h-48zm-192-24h16v16h-16zm32 32v-32h16v64h-80v-64h16v32zm72-184v-16h16v16h16v-16h16v48h-8v56h-16v-56h-56v-48h16v16zm88 64v-16h16v16h16v-16h16v40h-80v-40h16v16zm-128 0v-16h16v16h16v-16h16v40h-80v-40h16v16zm-48 24h-48v-16h48zm256 0h-16v-56h-88v-64h-112v64h-40v24h-64v32h-16v-44.414063c.921875-.5625 1.863281-1.097656 2.71875-1.761719l165.28125-127.710937 165.289062 127.726562c.855469.65625 1.789063 1.191407 2.710938 1.753907zm-368-69.566407c0-4.167969 1.871094-8.039062 5.152344-10.632812l171.261718-135.601563c13.378907-10.574218 33.800782-10.574218 47.171876 0h-.011719l171.273437 135.585938c3.273438 2.601562 5.152344 6.480468 5.152344 10.640625 0 7.488281-6.089844 13.574219-13.566406 13.574219h-3.074219c-2.984375 0-5.925781-1.007813-8.296875-2.832032l-175.0625-135.277344-175.054688 135.277344c-2.378906 1.824219-5.320312 2.832032-8.304687 2.832032h-3.074219c-7.476562 0-13.566406-6.085938-13.566406-13.566407zm176 309.566407h-80v-64h16v16h16v-16h16v16h16v-16h16zm128 0h-80v-64h16v16h16v-16h16v16h16v-16h16zm16-32v-48h-112v48h-16v-48h-112v48h-48v-64h336v64zm0 0"/><path d="m0 447.617188h16v16h-16zm0 0"/><path d="m480 447.617188h16v16h-16zm0 0"/></svg>